<?xml version="1.0" encoding="UTF-8" standalone="no"?><svg xmlns="http://www.w3.org/2000/svg" xmlns:xlink="http://www.w3.org/1999/xlink" contentScriptType="application/ecmascript" contentStyleType="text/css" height="905px" preserveAspectRatio="none" style="width:1342px;height:905px;background:#FFFFFF;" version="1.1" viewBox="0 0 1342 905" width="1342px" zoomAndPan="magnify"><defs><filter height="300%" id="f20dlb0oq89wn" width="300%" x="-1" y="-1"><feGaussianBlur result="blurOut" stdDeviation="2.0"/><feColorMatrix in="blurOut" result="blurOut2" type="matrix" values="0 0 0 0 0 0 0 0 0 0 0 0 0 0 0 0 0 0 .4 0"/><feOffset dx="4.0" dy="4.0" in="blurOut2" result="blurOut3"/><feBlend in="SourceGraphic" in2="blurOut3" mode="normal"/></filter></defs><g><text fill="#000000" font-family="sans-serif" font-size="18" lengthAdjust="spacing" textLength="58" x="635.5" y="18.6855">qibolab</text><!--MD5=[1600dc1a246361dc3a8d79d886d2f5aa]
cluster circuit.py--><polygon fill="#FFFFFF" filter="url(#f20dlb0oq89wn)" points="446,217.6406,516,217.6406,523,241.25,784,241.25,784,598.6406,446,598.6406,446,217.6406" style="stroke:#000000;stroke-width:1.5;"/><line style="stroke:#000000;stroke-width:1.5;" x1="446" x2="523" y1="241.25" y2="241.25"/><text fill="#000000" font-family="sans-serif" font-size="14" font-weight="bold" lengthAdjust="spacing" textLength="64" x="450" y="234.1738">circuit.py</text><!--MD5=[1547ab1398f81bb103cc7891a2d49935]
cluster qibo--><polygon fill="#FFFFFF" filter="url(#f20dlb0oq89wn)" points="651,28.6406,688,28.6406,695,52.25,793,52.25,793,112.6406,651,112.6406,651,28.6406" style="stroke:#000000;stroke-width:1.5;"/><line style="stroke:#000000;stroke-width:1.5;" x1="651" x2="695" y1="52.25" y2="52.25"/><text fill="#000000" font-family="sans-serif" font-size="14" font-weight="bold" lengthAdjust="spacing" textLength="31" x="655" y="45.1738">qibo</text><!--MD5=[0bb3397e7267be48783fe50b8a3487af]
cluster runcards--><polygon fill="#FFFFFF" filter="url(#f20dlb0oq89wn)" points="792,514.6406,861,514.6406,868,538.25,916,538.25,916,598.6406,792,598.6406,792,514.6406" style="stroke:#000000;stroke-width:1.5;"/><line style="stroke:#000000;stroke-width:1.5;" x1="792" x2="868" y1="538.25" y2="538.25"/><text fill="#000000" font-family="sans-serif" font-size="14" font-weight="bold" lengthAdjust="spacing" textLength="63" x="796" y="531.1738">runcards</text><!--MD5=[fce57c831037ab0f10797d4f50a82451]
cluster instruments--><polygon fill="#FFFFFF" filter="url(#f20dlb0oq89wn)" points="948,120.6406,1038,120.6406,1045,144.25,1325,144.25,1325,806.6406,948,806.6406,948,120.6406" style="stroke:#000000;stroke-width:1.5;"/><line style="stroke:#000000;stroke-width:1.5;" x1="948" x2="1045" y1="144.25" y2="144.25"/><text fill="#000000" font-family="sans-serif" font-size="14" font-weight="bold" lengthAdjust="spacing" textLength="84" x="952" y="137.1738">instruments</text><!--MD5=[7a7bbbcf19b9229aff5ef16aa79442bd]
cluster instruments/abstract.py--><polygon fill="#FFFFFF" filter="url(#f20dlb0oq89wn)" points="1107,148.6406,1278,148.6406,1285,172.25,1288,172.25,1288,370.6406,1107,370.6406,1107,148.6406" style="stroke:#000000;stroke-width:1.5;"/><line style="stroke:#000000;stroke-width:1.5;" x1="1107" x2="1285" y1="172.25" y2="172.25"/><text fill="#000000" font-family="sans-serif" font-size="14" font-weight="bold" lengthAdjust="spacing" textLength="165" x="1111" y="165.1738">instruments/abstract.py</text><!--MD5=[90e3ce51a76c62e5608602faee276689]
cluster qblox.py--><polygon fill="#FFFFFF" filter="url(#f20dlb0oq89wn)" points="956,514.6406,1021,514.6406,1028,538.25,1317,538.25,1317,798.6406,956,798.6406,956,514.6406" style="stroke:#000000;stroke-width:1.5;"/><line style="stroke:#000000;stroke-width:1.5;" x1="956" x2="1028" y1="538.25" y2="538.25"/><text fill="#000000" font-family="sans-serif" font-size="14" font-weight="bold" lengthAdjust="spacing" textLength="59" x="960" y="531.1738">qblox.py</text><!--MD5=[7c56e1c929152d74d90367d89b22bee4]
cluster rohde_schwarz.py--><polygon fill="#FFFFFF" filter="url(#f20dlb0oq89wn)" points="956,217.6406,1089,217.6406,1096,241.25,1099,241.25,1099,301.6406,956,301.6406,956,217.6406" style="stroke:#000000;stroke-width:1.5;"/><line style="stroke:#000000;stroke-width:1.5;" x1="956" x2="1096" y1="241.25" y2="241.25"/><text fill="#000000" font-family="sans-serif" font-size="14" font-weight="bold" lengthAdjust="spacing" textLength="127" x="960" y="234.1738">rohde_schwarz.py</text><!--MD5=[33cd32c3f1a57c0f8084b879be3d942d]
cluster platforms--><polygon fill="#FFFFFF" filter="url(#f20dlb0oq89wn)" points="16,378.6406,88,378.6406,95,402.25,438,402.25,438,806.6406,16,806.6406,16,378.6406" style="stroke:#000000;stroke-width:1.5;"/><line style="stroke:#000000;stroke-width:1.5;" x1="16" x2="95" y1="402.25" y2="402.25"/><text fill="#000000" font-family="sans-serif" font-size="14" font-weight="bold" lengthAdjust="spacing" textLength="66" x="20" y="395.1738">platforms</text><!--MD5=[1292142bd8f9d97ae94bfe1002e37e28]
cluster platforms/abstract.py--><polygon fill="#FFFFFF" filter="url(#f20dlb0oq89wn)" points="79,406.6406,232,406.6406,239,430.25,361,430.25,361,706.6406,79,706.6406,79,406.6406" style="stroke:#000000;stroke-width:1.5;"/><line style="stroke:#000000;stroke-width:1.5;" x1="79" x2="239" y1="430.25" y2="430.25"/><text fill="#000000" font-family="sans-serif" font-size="14" font-weight="bold" lengthAdjust="spacing" textLength="147" x="83" y="423.1738">platforms/abstract.py</text><!--MD5=[b780bd8101a43f9fab5f2e9a62f44011]
cluster multiqubit.py--><polygon fill="#FFFFFF" filter="url(#f20dlb0oq89wn)" points="284,714.6406,380,714.6406,387,738.25,430,738.25,430,798.6406,284,798.6406,284,714.6406" style="stroke:#000000;stroke-width:1.5;"/><line style="stroke:#000000;stroke-width:1.5;" x1="284" x2="387" y1="738.25" y2="738.25"/><text fill="#000000" font-family="sans-serif" font-size="14" font-weight="bold" lengthAdjust="spacing" textLength="90" x="288" y="731.1738">multiqubit.py</text><!--MD5=[b831f4e3a7ac0d4b1a577e602699e015]
cluster qbloxplatform.py--><polygon fill="#FFFFFF" filter="url(#f20dlb0oq89wn)" points="24,714.6406,147,714.6406,154,738.25,157,738.25,157,798.6406,24,798.6406,24,714.6406" style="stroke:#000000;stroke-width:1.5;"/><line style="stroke:#000000;stroke-width:1.5;" x1="24" x2="154" y1="738.25" y2="738.25"/><text fill="#000000" font-family="sans-serif" font-size="14" font-weight="bold" lengthAdjust="spacing" textLength="117" x="28" y="731.1738">qbloxplatform.py</text><!--MD5=[1a5bbc5ede2bad80f0af6be7a7df2826]
cluster ictplatform.py--><polygon fill="#FFFFFF" filter="url(#f20dlb0oq89wn)" points="165,714.6406,266,714.6406,273,738.25,276,738.25,276,798.6406,165,798.6406,165,714.6406" style="stroke:#000000;stroke-width:1.5;"/><line style="stroke:#000000;stroke-width:1.5;" x1="165" x2="273" y1="738.25" y2="738.25"/><text fill="#000000" font-family="sans-serif" font-size="14" font-weight="bold" lengthAdjust="spacing" textLength="95" x="169" y="731.1738">ictplatform.py</text><!--MD5=[01f613dfab4ee697dd3a653348883ec1]
cluster platform.py--><polygon fill="#FFFFFF" filter="url(#f20dlb0oq89wn)" points="129,814.6406,213,814.6406,220,838.25,311,838.25,311,898.6406,129,898.6406,129,814.6406" style="stroke:#000000;stroke-width:1.5;"/><line style="stroke:#000000;stroke-width:1.5;" x1="129" x2="220" y1="838.25" y2="838.25"/><text fill="#000000" font-family="sans-serif" font-size="14" font-weight="bold" lengthAdjust="spacing" textLength="78" x="133" y="831.1738">platform.py</text><!--MD5=[c1587ad85098c3e44a9a9797df1c146f]
class PulseSequence--><rect codeLine="5" fill="#FEFECE" filter="url(#f20dlb0oq89wn)" height="48" id="PulseSequence" style="stroke:#A80036;stroke-width:1.5;" width="120" x="454" y="542.6406"/><ellipse cx="469" cy="558.6406" fill="#ADD1B2" rx="11" ry="11" style="stroke:#A80036;stroke-width:1.0;"/><path d="M471.7656,554.5156 Q471.9219,554.2969 472.1094,554.1875 Q472.2969,554.0781 472.5156,554.0781 Q472.8906,554.0781 473.125,554.3359 Q473.3594,554.5938 473.3594,555.2031 L473.3594,556.6563 Q473.3594,557.2656 473.125,557.5313 Q472.8906,557.7969 472.5156,557.7969 Q472.1719,557.7969 471.9688,557.5938 Q471.7656,557.4063 471.6563,556.8906 Q471.6094,556.5313 471.4219,556.3438 Q471.0938,555.9688 470.4844,555.75 Q469.875,555.5313 469.25,555.5313 Q468.4844,555.5313 467.8516,555.8594 Q467.2188,556.1875 466.7266,556.9375 Q466.2344,557.6875 466.2344,558.7188 L466.2344,559.8125 Q466.2344,561.0469 467.125,561.8672 Q468.0156,562.6875 469.6094,562.6875 Q470.5469,562.6875 471.2031,562.4375 Q471.5938,562.2813 472.0156,561.8438 Q472.2813,561.5781 472.4297,561.5 Q472.5781,561.4219 472.7813,561.4219 Q473.1094,561.4219 473.3672,561.6797 Q473.625,561.9375 473.625,562.2813 Q473.625,562.625 473.2813,563.0313 Q472.7813,563.6094 471.9844,563.9375 Q470.9063,564.3906 469.6094,564.3906 Q468.0938,564.3906 466.8906,563.7656 Q465.9063,563.2656 465.2188,562.1953 Q464.5313,561.125 464.5313,559.8438 L464.5313,558.6875 Q464.5313,557.3594 465.1484,556.2109 Q465.7656,555.0625 466.8594,554.4453 Q467.9531,553.8281 469.1875,553.8281 Q469.9219,553.8281 470.5703,553.9922 Q471.2188,554.1563 471.7656,554.5156 Z " fill="#000000"/><text fill="#000000" font-family="sans-serif" font-size="12" lengthAdjust="spacing" textLength="88" x="483" y="563.5508">PulseSequence</text><line style="stroke:#A80036;stroke-width:1.5;" x1="455" x2="573" y1="574.6406" y2="574.6406"/><line style="stroke:#A80036;stroke-width:1.5;" x1="455" x2="573" y1="582.6406" y2="582.6406"/><!--MD5=[ac859170cbe4cb3be7759d3fed11635e]
class HardwareCircuit--><rect codeLine="7" fill="#FEFECE" filter="url(#f20dlb0oq89wn)" height="48" id="HardwareCircuit" style="stroke:#A80036;stroke-width:1.5;" width="121" x="654.5" y="245.6406"/><ellipse cx="669.5" cy="261.6406" fill="#ADD1B2" rx="11" ry="11" style="stroke:#A80036;stroke-width:1.0;"/><path d="M672.2656,257.5156 Q672.4219,257.2969 672.6094,257.1875 Q672.7969,257.0781 673.0156,257.0781 Q673.3906,257.0781 673.625,257.3359 Q673.8594,257.5938 673.8594,258.2031 L673.8594,259.6563 Q673.8594,260.2656 673.625,260.5313 Q673.3906,260.7969 673.0156,260.7969 Q672.6719,260.7969 672.4688,260.5938 Q672.2656,260.4063 672.1563,259.8906 Q672.1094,259.5313 671.9219,259.3438 Q671.5938,258.9688 670.9844,258.75 Q670.375,258.5313 669.75,258.5313 Q668.9844,258.5313 668.3516,258.8594 Q667.7188,259.1875 667.2266,259.9375 Q666.7344,260.6875 666.7344,261.7188 L666.7344,262.8125 Q666.7344,264.0469 667.625,264.8672 Q668.5156,265.6875 670.1094,265.6875 Q671.0469,265.6875 671.7031,265.4375 Q672.0938,265.2813 672.5156,264.8438 Q672.7813,264.5781 672.9297,264.5 Q673.0781,264.4219 673.2813,264.4219 Q673.6094,264.4219 673.8672,264.6797 Q674.125,264.9375 674.125,265.2813 Q674.125,265.625 673.7813,266.0313 Q673.2813,266.6094 672.4844,266.9375 Q671.4063,267.3906 670.1094,267.3906 Q668.5938,267.3906 667.3906,266.7656 Q666.4063,266.2656 665.7188,265.1953 Q665.0313,264.125 665.0313,262.8438 L665.0313,261.6875 Q665.0313,260.3594 665.6484,259.2109 Q666.2656,258.0625 667.3594,257.4453 Q668.4531,256.8281 669.6875,256.8281 Q670.4219,256.8281 671.0703,256.9922 Q671.7188,257.1563 672.2656,257.5156 Z " fill="#000000"/><text fill="#000000" font-family="sans-serif" font-size="12" lengthAdjust="spacing" textLength="89" x="683.5" y="266.5508">HardwareCircuit</text><line style="stroke:#A80036;stroke-width:1.5;" x1="655.5" x2="774.5" y1="277.6406" y2="277.6406"/><line style="stroke:#A80036;stroke-width:1.5;" x1="655.5" x2="774.5" y1="285.6406" y2="285.6406"/><!--MD5=[e5fd751491e1ac255e3d1fddfe48492e]
class Pulse--><rect fill="#FEFECE" filter="url(#f20dlb0oq89wn)" height="48" id="Pulse" style="stroke:#A80036;stroke-width:1.5;" width="64" x="572" y="245.6406"/><ellipse cx="587" cy="261.6406" fill="#ADD1B2" rx="11" ry="11" style="stroke:#A80036;stroke-width:1.0;"/><path d="M589.7656,257.5156 Q589.9219,257.2969 590.1094,257.1875 Q590.2969,257.0781 590.5156,257.0781 Q590.8906,257.0781 591.125,257.3359 Q591.3594,257.5938 591.3594,258.2031 L591.3594,259.6563 Q591.3594,260.2656 591.125,260.5313 Q590.8906,260.7969 590.5156,260.7969 Q590.1719,260.7969 589.9688,260.5938 Q589.7656,260.4063 589.6563,259.8906 Q589.6094,259.5313 589.4219,259.3438 Q589.0938,258.9688 588.4844,258.75 Q587.875,258.5313 587.25,258.5313 Q586.4844,258.5313 585.8516,258.8594 Q585.2188,259.1875 584.7266,259.9375 Q584.2344,260.6875 584.2344,261.7188 L584.2344,262.8125 Q584.2344,264.0469 585.125,264.8672 Q586.0156,265.6875 587.6094,265.6875 Q588.5469,265.6875 589.2031,265.4375 Q589.5938,265.2813 590.0156,264.8438 Q590.2813,264.5781 590.4297,264.5 Q590.5781,264.4219 590.7813,264.4219 Q591.1094,264.4219 591.3672,264.6797 Q591.625,264.9375 591.625,265.2813 Q591.625,265.625 591.2813,266.0313 Q590.7813,266.6094 589.9844,266.9375 Q588.9063,267.3906 587.6094,267.3906 Q586.0938,267.3906 584.8906,266.7656 Q583.9063,266.2656 583.2188,265.1953 Q582.5313,264.125 582.5313,262.8438 L582.5313,261.6875 Q582.5313,260.3594 583.1484,259.2109 Q583.7656,258.0625 584.8594,257.4453 Q585.9531,256.8281 587.1875,256.8281 Q587.9219,256.8281 588.5703,256.9922 Q589.2188,257.1563 589.7656,257.5156 Z " fill="#000000"/><text fill="#000000" font-family="sans-serif" font-size="12" lengthAdjust="spacing" textLength="32" x="601" y="266.5508">Pulse</text><line style="stroke:#A80036;stroke-width:1.5;" x1="573" x2="635" y1="277.6406" y2="277.6406"/><line style="stroke:#A80036;stroke-width:1.5;" x1="573" x2="635" y1="285.6406" y2="285.6406"/><!--MD5=[ef31930a71af14f91769317a2baf5241]
class PulseShape--><rect fill="#FEFECE" filter="url(#f20dlb0oq89wn)" height="48" id="PulseShape" style="stroke:#A80036;stroke-width:1.5;" width="100" x="454" y="245.6406"/><ellipse cx="469" cy="261.6406" fill="#ADD1B2" rx="11" ry="11" style="stroke:#A80036;stroke-width:1.0;"/><path d="M471.7656,257.5156 Q471.9219,257.2969 472.1094,257.1875 Q472.2969,257.0781 472.5156,257.0781 Q472.8906,257.0781 473.125,257.3359 Q473.3594,257.5938 473.3594,258.2031 L473.3594,259.6563 Q473.3594,260.2656 473.125,260.5313 Q472.8906,260.7969 472.5156,260.7969 Q472.1719,260.7969 471.9688,260.5938 Q471.7656,260.4063 471.6563,259.8906 Q471.6094,259.5313 471.4219,259.3438 Q471.0938,258.9688 470.4844,258.75 Q469.875,258.5313 469.25,258.5313 Q468.4844,258.5313 467.8516,258.8594 Q467.2188,259.1875 466.7266,259.9375 Q466.2344,260.6875 466.2344,261.7188 L466.2344,262.8125 Q466.2344,264.0469 467.125,264.8672 Q468.0156,265.6875 469.6094,265.6875 Q470.5469,265.6875 471.2031,265.4375 Q471.5938,265.2813 472.0156,264.8438 Q472.2813,264.5781 472.4297,264.5 Q472.5781,264.4219 472.7813,264.4219 Q473.1094,264.4219 473.3672,264.6797 Q473.625,264.9375 473.625,265.2813 Q473.625,265.625 473.2813,266.0313 Q472.7813,266.6094 471.9844,266.9375 Q470.9063,267.3906 469.6094,267.3906 Q468.0938,267.3906 466.8906,266.7656 Q465.9063,266.2656 465.2188,265.1953 Q464.5313,264.125 464.5313,262.8438 L464.5313,261.6875 Q464.5313,260.3594 465.1484,259.2109 Q465.7656,258.0625 466.8594,257.4453 Q467.9531,256.8281 469.1875,256.8281 Q469.9219,256.8281 470.5703,256.9922 Q471.2188,257.1563 471.7656,257.5156 Z " fill="#000000"/><text fill="#000000" font-family="sans-serif" font-size="12" lengthAdjust="spacing" textLength="68" x="483" y="266.5508">PulseShape</text><line style="stroke:#A80036;stroke-width:1.5;" x1="455" x2="553" y1="277.6406" y2="277.6406"/><line style="stroke:#A80036;stroke-width:1.5;" x1="455" x2="553" y1="285.6406" y2="285.6406"/><!--MD5=[a1de5696ebf5f97bd200155ec3ffe22e]
class qibo.Circuit--><rect fill="#FEFECE" filter="url(#f20dlb0oq89wn)" height="48" id="qibo.Circuit" style="stroke:#A80036;stroke-width:1.5;" width="67" x="717.5" y="56.6406"/><ellipse cx="732.5" cy="72.6406" fill="#ADD1B2" rx="11" ry="11" style="stroke:#A80036;stroke-width:1.0;"/><path d="M735.2656,68.5156 Q735.4219,68.2969 735.6094,68.1875 Q735.7969,68.0781 736.0156,68.0781 Q736.3906,68.0781 736.625,68.3359 Q736.8594,68.5938 736.8594,69.2031 L736.8594,70.6563 Q736.8594,71.2656 736.625,71.5313 Q736.3906,71.7969 736.0156,71.7969 Q735.6719,71.7969 735.4688,71.5938 Q735.2656,71.4063 735.1563,70.8906 Q735.1094,70.5313 734.9219,70.3438 Q734.5938,69.9688 733.9844,69.75 Q733.375,69.5313 732.75,69.5313 Q731.9844,69.5313 731.3516,69.8594 Q730.7188,70.1875 730.2266,70.9375 Q729.7344,71.6875 729.7344,72.7188 L729.7344,73.8125 Q729.7344,75.0469 730.625,75.8672 Q731.5156,76.6875 733.1094,76.6875 Q734.0469,76.6875 734.7031,76.4375 Q735.0938,76.2813 735.5156,75.8438 Q735.7813,75.5781 735.9297,75.5 Q736.0781,75.4219 736.2813,75.4219 Q736.6094,75.4219 736.8672,75.6797 Q737.125,75.9375 737.125,76.2813 Q737.125,76.625 736.7813,77.0313 Q736.2813,77.6094 735.4844,77.9375 Q734.4063,78.3906 733.1094,78.3906 Q731.5938,78.3906 730.3906,77.7656 Q729.4063,77.2656 728.7188,76.1953 Q728.0313,75.125 728.0313,73.8438 L728.0313,72.6875 Q728.0313,71.3594 728.6484,70.2109 Q729.2656,69.0625 730.3594,68.4453 Q731.4531,67.8281 732.6875,67.8281 Q733.4219,67.8281 734.0703,67.9922 Q734.7188,68.1563 735.2656,68.5156 Z " fill="#000000"/><text fill="#000000" font-family="sans-serif" font-size="12" lengthAdjust="spacing" textLength="35" x="746.5" y="77.5508">Circuit</text><line style="stroke:#A80036;stroke-width:1.5;" x1="718.5" x2="783.5" y1="88.6406" y2="88.6406"/><line style="stroke:#A80036;stroke-width:1.5;" x1="718.5" x2="783.5" y1="96.6406" y2="96.6406"/><!--MD5=[a995201587dbd5d94a127467abf84f21]
class qibo.K--><rect fill="#FEFECE" filter="url(#f20dlb0oq89wn)" height="48" id="qibo.K" style="stroke:#A80036;stroke-width:1.5;" width="40" x="659" y="56.6406"/><ellipse cx="674" cy="72.6406" fill="#ADD1B2" rx="11" ry="11" style="stroke:#A80036;stroke-width:1.0;"/><path d="M676.7656,68.5156 Q676.9219,68.2969 677.1094,68.1875 Q677.2969,68.0781 677.5156,68.0781 Q677.8906,68.0781 678.125,68.3359 Q678.3594,68.5938 678.3594,69.2031 L678.3594,70.6563 Q678.3594,71.2656 678.125,71.5313 Q677.8906,71.7969 677.5156,71.7969 Q677.1719,71.7969 676.9688,71.5938 Q676.7656,71.4063 676.6563,70.8906 Q676.6094,70.5313 676.4219,70.3438 Q676.0938,69.9688 675.4844,69.75 Q674.875,69.5313 674.25,69.5313 Q673.4844,69.5313 672.8516,69.8594 Q672.2188,70.1875 671.7266,70.9375 Q671.2344,71.6875 671.2344,72.7188 L671.2344,73.8125 Q671.2344,75.0469 672.125,75.8672 Q673.0156,76.6875 674.6094,76.6875 Q675.5469,76.6875 676.2031,76.4375 Q676.5938,76.2813 677.0156,75.8438 Q677.2813,75.5781 677.4297,75.5 Q677.5781,75.4219 677.7813,75.4219 Q678.1094,75.4219 678.3672,75.6797 Q678.625,75.9375 678.625,76.2813 Q678.625,76.625 678.2813,77.0313 Q677.7813,77.6094 676.9844,77.9375 Q675.9063,78.3906 674.6094,78.3906 Q673.0938,78.3906 671.8906,77.7656 Q670.9063,77.2656 670.2188,76.1953 Q669.5313,75.125 669.5313,73.8438 L669.5313,72.6875 Q669.5313,71.3594 670.1484,70.2109 Q670.7656,69.0625 671.8594,68.4453 Q672.9531,67.8281 674.1875,67.8281 Q674.9219,67.8281 675.5703,67.9922 Q676.2188,68.1563 676.7656,68.5156 Z " fill="#000000"/><text fill="#000000" font-family="sans-serif" font-size="12" lengthAdjust="spacing" textLength="8" x="688" y="77.5508">K</text><line style="stroke:#A80036;stroke-width:1.5;" x1="660" x2="698" y1="88.6406" y2="88.6406"/><line style="stroke:#A80036;stroke-width:1.5;" x1="660" x2="698" y1="96.6406" y2="96.6406"/><!--MD5=[c604c14d1c0a84a3f9c77da56847fd0d]
class multiqubit.yml--><rect codeLine="16" fill="#FEFECE" filter="url(#f20dlb0oq89wn)" height="48" id="multiqubit.yml" style="stroke:#A80036;stroke-width:1.5;" width="108" x="800" y="542.6406"/><ellipse cx="815" cy="558.6406" fill="#DA70D6" rx="11" ry="11" style="stroke:#A80036;stroke-width:1.0;"/><path d="M814.1563,561.0781 L811.2031,555.3125 Q810.7813,555.25 810.5703,555.0234 Q810.3594,554.7969 810.3594,554.4531 Q810.3594,554.0781 810.6172,553.8438 Q810.875,553.6094 811.5,553.6094 L813.0469,553.6094 Q813.6563,553.6094 813.9219,553.8438 Q814.1875,554.0781 814.1875,554.4531 Q814.1875,554.8281 813.9219,555.0703 Q813.6563,555.3125 813.0938,555.3125 L815.1094,559.2188 L817.0938,555.3125 Q816.5469,555.3125 816.2891,555.0703 Q816.0313,554.8281 816.0313,554.4531 Q816.0313,554.0781 816.2891,553.8438 Q816.5469,553.6094 817.1563,553.6094 L818.7656,553.6094 Q819.375,553.6094 819.6328,553.8438 Q819.8906,554.0781 819.8906,554.4531 Q819.8906,554.7969 819.6719,555.0313 Q819.4531,555.2656 819,555.3125 L815.1094,562.9844 Q815.75,562.9844 815.9375,563.1094 Q816.3438,563.375 816.3438,563.8438 Q816.3438,564.2188 816.0781,564.4531 Q815.8125,564.6875 815.2031,564.6875 L811.5,564.6875 Q810.875,564.6875 810.6172,564.4531 Q810.3594,564.2188 810.3594,563.8438 Q810.3594,563.4688 810.6172,563.2266 Q810.875,562.9844 811.5,562.9844 L813.1875,562.9844 L814.1563,561.0781 Z " fill="#000000"/><text fill="#000000" font-family="sans-serif" font-size="12" lengthAdjust="spacing" textLength="76" x="829" y="563.5508">multiqubit.yml</text><line style="stroke:#A80036;stroke-width:1.5;" x1="801" x2="907" y1="574.6406" y2="574.6406"/><line style="stroke:#A80036;stroke-width:1.5;" x1="801" x2="907" y1="582.6406" y2="582.6406"/><!--MD5=[c7bc3a30b87c75335c59b402919ac157]
class AbstractInstrument--><rect codeLine="20" fill="#FEFECE" filter="url(#f20dlb0oq89wn)" height="186.3594" id="AbstractInstrument" style="stroke:#A80036;stroke-width:1.5;" width="135" x="1115.5" y="176.6406"/><ellipse cx="1130.5" cy="192.6406" fill="#ADD1B2" rx="11" ry="11" style="stroke:#A80036;stroke-width:1.0;"/><path d="M1133.2656,188.5156 Q1133.4219,188.2969 1133.6094,188.1875 Q1133.7969,188.0781 1134.0156,188.0781 Q1134.3906,188.0781 1134.625,188.3359 Q1134.8594,188.5938 1134.8594,189.2031 L1134.8594,190.6563 Q1134.8594,191.2656 1134.625,191.5313 Q1134.3906,191.7969 1134.0156,191.7969 Q1133.6719,191.7969 1133.4688,191.5938 Q1133.2656,191.4063 1133.1563,190.8906 Q1133.1094,190.5313 1132.9219,190.3438 Q1132.5938,189.9688 1131.9844,189.75 Q1131.375,189.5313 1130.75,189.5313 Q1129.9844,189.5313 1129.3516,189.8594 Q1128.7188,190.1875 1128.2266,190.9375 Q1127.7344,191.6875 1127.7344,192.7188 L1127.7344,193.8125 Q1127.7344,195.0469 1128.625,195.8672 Q1129.5156,196.6875 1131.1094,196.6875 Q1132.0469,196.6875 1132.7031,196.4375 Q1133.0938,196.2813 1133.5156,195.8438 Q1133.7813,195.5781 1133.9297,195.5 Q1134.0781,195.4219 1134.2813,195.4219 Q1134.6094,195.4219 1134.8672,195.6797 Q1135.125,195.9375 1135.125,196.2813 Q1135.125,196.625 1134.7813,197.0313 Q1134.2813,197.6094 1133.4844,197.9375 Q1132.4063,198.3906 1131.1094,198.3906 Q1129.5938,198.3906 1128.3906,197.7656 Q1127.4063,197.2656 1126.7188,196.1953 Q1126.0313,195.125 1126.0313,193.8438 L1126.0313,192.6875 Q1126.0313,191.3594 1126.6484,190.2109 Q1127.2656,189.0625 1128.3594,188.4453 Q1129.4531,187.8281 1130.6875,187.8281 Q1131.4219,187.8281 1132.0703,187.9922 Q1132.7188,188.1563 1133.2656,188.5156 Z " fill="#000000"/><text fill="#000000" font-family="sans-serif" font-size="12" lengthAdjust="spacing" textLength="103" x="1144.5" y="197.5508">AbstractInstrument</text><line style="stroke:#A80036;stroke-width:1.5;" x1="1116.5" x2="1249.5" y1="208.6406" y2="208.6406"/><text fill="#000000" font-family="sans-serif" font-size="11" lengthAdjust="spacing" textLength="26" x="1121.5" y="224.0596">name</text><text fill="#000000" font-family="sans-serif" font-size="11" lengthAdjust="spacing" textLength="8" x="1121.5" y="237.8955">ip</text><text fill="#000000" font-family="sans-serif" font-size="11" lengthAdjust="spacing" textLength="65" x="1121.5" y="251.7314">is_connected</text><text fill="#000000" font-family="sans-serif" font-size="11" lengthAdjust="spacing" textLength="45" x="1121.5" y="265.5674">signature</text><text fill="#000000" font-family="sans-serif" font-size="11" lengthAdjust="spacing" textLength="32" x="1121.5" y="279.4033">device</text><line style="stroke:#A80036;stroke-width:1.0;" x1="1116.5" x2="1249.5" y1="285.8203" y2="285.8203"/><text fill="#000000" font-family="sans-serif" font-size="11" font-style="italic" lengthAdjust="spacing" textLength="39" x="1121.5" y="301.2393">connect</text><text fill="#000000" font-family="sans-serif" font-size="11" font-style="italic" lengthAdjust="spacing" textLength="27" x="1121.5" y="315.0752">setup</text><text fill="#000000" font-family="sans-serif" font-size="11" font-style="italic" lengthAdjust="spacing" textLength="22" x="1121.5" y="328.9111">start</text><text fill="#000000" font-family="sans-serif" font-size="11" font-style="italic" lengthAdjust="spacing" textLength="21" x="1121.5" y="342.7471">stop</text><text fill="#000000" font-family="sans-serif" font-size="11" font-style="italic" lengthAdjust="spacing" textLength="54" x="1121.5" y="356.583">disconnect</text><!--MD5=[84fafa0a6380cd77223e1d9bbadd6fb4]
class GenericPulsar--><rect codeLine="35" fill="#FEFECE" filter="url(#f20dlb0oq89wn)" height="48" id="GenericPulsar" style="stroke:#A80036;stroke-width:1.5;" width="110" x="1199" y="542.6406"/><ellipse cx="1214" cy="558.6406" fill="#A9DCDF" rx="11" ry="11" style="stroke:#A80036;stroke-width:1.0;"/><path d="M1216.1875,560.4063 L1212.0469,560.4063 L1211.625,561.4375 L1212.0469,561.4375 Q1212.6563,561.4375 1212.9219,561.6719 Q1213.1875,561.9063 1213.1875,562.2969 Q1213.1875,562.6719 1212.9219,562.9063 Q1212.6563,563.1406 1212.0469,563.1406 L1209.75,563.1406 Q1209.1406,563.1406 1208.8828,562.9063 Q1208.625,562.6719 1208.625,562.2813 Q1208.625,561.9063 1208.8984,561.6641 Q1209.1719,561.4219 1209.7969,561.4375 L1212.4688,554.7813 L1211.3594,554.7813 Q1210.75,554.7813 1210.4844,554.5469 Q1210.2188,554.3125 1210.2188,553.9219 Q1210.2188,553.5469 1210.4844,553.3125 Q1210.75,553.0781 1211.3594,553.0781 L1215.0313,553.0781 L1218.4219,561.4375 Q1219.0156,561.4375 1219.2031,561.5781 Q1219.5938,561.8438 1219.5938,562.2969 Q1219.5938,562.6719 1219.3359,562.9063 Q1219.0781,563.1406 1218.4688,563.1406 L1216.1719,563.1406 Q1215.5625,563.1406 1215.2969,562.9063 Q1215.0313,562.6719 1215.0313,562.2813 Q1215.0313,561.9063 1215.2969,561.6719 Q1215.5625,561.4375 1216.1719,561.4375 L1216.5938,561.4375 L1216.1875,560.4063 Z M1215.4688,558.7031 L1214.1094,555.3281 L1212.7344,558.7031 L1215.4688,558.7031 Z " fill="#000000"/><text fill="#000000" font-family="sans-serif" font-size="12" font-style="italic" lengthAdjust="spacing" textLength="78" x="1228" y="563.5508">GenericPulsar</text><line style="stroke:#A80036;stroke-width:1.5;" x1="1200" x2="1308" y1="574.6406" y2="574.6406"/><line style="stroke:#A80036;stroke-width:1.5;" x1="1200" x2="1308" y1="582.6406" y2="582.6406"/><!--MD5=[ed4659463c6963de57c5bd7f14304f22]
class PulsarQRM--><rect codeLine="37" fill="#FEFECE" filter="url(#f20dlb0oq89wn)" height="48" id="PulsarQRM" style="stroke:#A80036;stroke-width:1.5;" width="95" x="1096.5" y="742.6406"/><ellipse cx="1111.5" cy="758.6406" fill="#ADD1B2" rx="11" ry="11" style="stroke:#A80036;stroke-width:1.0;"/><path d="M1114.2656,754.5156 Q1114.4219,754.2969 1114.6094,754.1875 Q1114.7969,754.0781 1115.0156,754.0781 Q1115.3906,754.0781 1115.625,754.3359 Q1115.8594,754.5938 1115.8594,755.2031 L1115.8594,756.6563 Q1115.8594,757.2656 1115.625,757.5313 Q1115.3906,757.7969 1115.0156,757.7969 Q1114.6719,757.7969 1114.4688,757.5938 Q1114.2656,757.4063 1114.1563,756.8906 Q1114.1094,756.5313 1113.9219,756.3438 Q1113.5938,755.9688 1112.9844,755.75 Q1112.375,755.5313 1111.75,755.5313 Q1110.9844,755.5313 1110.3516,755.8594 Q1109.7188,756.1875 1109.2266,756.9375 Q1108.7344,757.6875 1108.7344,758.7188 L1108.7344,759.8125 Q1108.7344,761.0469 1109.625,761.8672 Q1110.5156,762.6875 1112.1094,762.6875 Q1113.0469,762.6875 1113.7031,762.4375 Q1114.0938,762.2813 1114.5156,761.8438 Q1114.7813,761.5781 1114.9297,761.5 Q1115.0781,761.4219 1115.2813,761.4219 Q1115.6094,761.4219 1115.8672,761.6797 Q1116.125,761.9375 1116.125,762.2813 Q1116.125,762.625 1115.7813,763.0313 Q1115.2813,763.6094 1114.4844,763.9375 Q1113.4063,764.3906 1112.1094,764.3906 Q1110.5938,764.3906 1109.3906,763.7656 Q1108.4063,763.2656 1107.7188,762.1953 Q1107.0313,761.125 1107.0313,759.8438 L1107.0313,758.6875 Q1107.0313,757.3594 1107.6484,756.2109 Q1108.2656,755.0625 1109.3594,754.4453 Q1110.4531,753.8281 1111.6875,753.8281 Q1112.4219,753.8281 1113.0703,753.9922 Q1113.7188,754.1563 1114.2656,754.5156 Z " fill="#000000"/><text fill="#000000" font-family="sans-serif" font-size="12" lengthAdjust="spacing" textLength="63" x="1125.5" y="763.5508">PulsarQRM</text><line style="stroke:#A80036;stroke-width:1.5;" x1="1097.5" x2="1190.5" y1="774.6406" y2="774.6406"/><line style="stroke:#A80036;stroke-width:1.5;" x1="1097.5" x2="1190.5" y1="782.6406" y2="782.6406"/><!--MD5=[8df2a8b70fa8cded5739a2fb106a5d02]
class PulsarQCM--><rect codeLine="39" fill="#FEFECE" filter="url(#f20dlb0oq89wn)" height="48" id="PulsarQCM" style="stroke:#A80036;stroke-width:1.5;" width="95" x="1209.5" y="742.6406"/><ellipse cx="1224.5" cy="758.6406" fill="#ADD1B2" rx="11" ry="11" style="stroke:#A80036;stroke-width:1.0;"/><path d="M1227.2656,754.5156 Q1227.4219,754.2969 1227.6094,754.1875 Q1227.7969,754.0781 1228.0156,754.0781 Q1228.3906,754.0781 1228.625,754.3359 Q1228.8594,754.5938 1228.8594,755.2031 L1228.8594,756.6563 Q1228.8594,757.2656 1228.625,757.5313 Q1228.3906,757.7969 1228.0156,757.7969 Q1227.6719,757.7969 1227.4688,757.5938 Q1227.2656,757.4063 1227.1563,756.8906 Q1227.1094,756.5313 1226.9219,756.3438 Q1226.5938,755.9688 1225.9844,755.75 Q1225.375,755.5313 1224.75,755.5313 Q1223.9844,755.5313 1223.3516,755.8594 Q1222.7188,756.1875 1222.2266,756.9375 Q1221.7344,757.6875 1221.7344,758.7188 L1221.7344,759.8125 Q1221.7344,761.0469 1222.625,761.8672 Q1223.5156,762.6875 1225.1094,762.6875 Q1226.0469,762.6875 1226.7031,762.4375 Q1227.0938,762.2813 1227.5156,761.8438 Q1227.7813,761.5781 1227.9297,761.5 Q1228.0781,761.4219 1228.2813,761.4219 Q1228.6094,761.4219 1228.8672,761.6797 Q1229.125,761.9375 1229.125,762.2813 Q1229.125,762.625 1228.7813,763.0313 Q1228.2813,763.6094 1227.4844,763.9375 Q1226.4063,764.3906 1225.1094,764.3906 Q1223.5938,764.3906 1222.3906,763.7656 Q1221.4063,763.2656 1220.7188,762.1953 Q1220.0313,761.125 1220.0313,759.8438 L1220.0313,758.6875 Q1220.0313,757.3594 1220.6484,756.2109 Q1221.2656,755.0625 1222.3594,754.4453 Q1223.4531,753.8281 1224.6875,753.8281 Q1225.4219,753.8281 1226.0703,753.9922 Q1226.7188,754.1563 1227.2656,754.5156 Z " fill="#000000"/><text fill="#000000" font-family="sans-serif" font-size="12" lengthAdjust="spacing" textLength="63" x="1238.5" y="763.5508">PulsarQCM</text><line style="stroke:#A80036;stroke-width:1.5;" x1="1210.5" x2="1303.5" y1="774.6406" y2="774.6406"/><line style="stroke:#A80036;stroke-width:1.5;" x1="1210.5" x2="1303.5" y1="782.6406" y2="782.6406"/><!--MD5=[1654034dd139b1149a3f682c58704b1a]
class ClusterQRM--><rect codeLine="41" fill="#FEFECE" filter="url(#f20dlb0oq89wn)" height="48" id="ClusterQRM" style="stroke:#A80036;stroke-width:1.5;" width="99" x="1081.5" y="542.6406"/><ellipse cx="1096.5" cy="558.6406" fill="#ADD1B2" rx="11" ry="11" style="stroke:#A80036;stroke-width:1.0;"/><path d="M1099.2656,554.5156 Q1099.4219,554.2969 1099.6094,554.1875 Q1099.7969,554.0781 1100.0156,554.0781 Q1100.3906,554.0781 1100.625,554.3359 Q1100.8594,554.5938 1100.8594,555.2031 L1100.8594,556.6563 Q1100.8594,557.2656 1100.625,557.5313 Q1100.3906,557.7969 1100.0156,557.7969 Q1099.6719,557.7969 1099.4688,557.5938 Q1099.2656,557.4063 1099.1563,556.8906 Q1099.1094,556.5313 1098.9219,556.3438 Q1098.5938,555.9688 1097.9844,555.75 Q1097.375,555.5313 1096.75,555.5313 Q1095.9844,555.5313 1095.3516,555.8594 Q1094.7188,556.1875 1094.2266,556.9375 Q1093.7344,557.6875 1093.7344,558.7188 L1093.7344,559.8125 Q1093.7344,561.0469 1094.625,561.8672 Q1095.5156,562.6875 1097.1094,562.6875 Q1098.0469,562.6875 1098.7031,562.4375 Q1099.0938,562.2813 1099.5156,561.8438 Q1099.7813,561.5781 1099.9297,561.5 Q1100.0781,561.4219 1100.2813,561.4219 Q1100.6094,561.4219 1100.8672,561.6797 Q1101.125,561.9375 1101.125,562.2813 Q1101.125,562.625 1100.7813,563.0313 Q1100.2813,563.6094 1099.4844,563.9375 Q1098.4063,564.3906 1097.1094,564.3906 Q1095.5938,564.3906 1094.3906,563.7656 Q1093.4063,563.2656 1092.7188,562.1953 Q1092.0313,561.125 1092.0313,559.8438 L1092.0313,558.6875 Q1092.0313,557.3594 1092.6484,556.2109 Q1093.2656,555.0625 1094.3594,554.4453 Q1095.4531,553.8281 1096.6875,553.8281 Q1097.4219,553.8281 1098.0703,553.9922 Q1098.7188,554.1563 1099.2656,554.5156 Z " fill="#000000"/><text fill="#000000" font-family="sans-serif" font-size="12" lengthAdjust="spacing" textLength="67" x="1110.5" y="563.5508">ClusterQRM</text><line style="stroke:#A80036;stroke-width:1.5;" x1="1082.5" x2="1179.5" y1="574.6406" y2="574.6406"/><line style="stroke:#A80036;stroke-width:1.5;" x1="1082.5" x2="1179.5" y1="582.6406" y2="582.6406"/><!--MD5=[92df2d8379123cf098f80197b4ed6ab8]
class ClusterQCM--><rect codeLine="43" fill="#FEFECE" filter="url(#f20dlb0oq89wn)" height="48" id="ClusterQCM" style="stroke:#A80036;stroke-width:1.5;" width="99" x="964.5" y="542.6406"/><ellipse cx="979.5" cy="558.6406" fill="#ADD1B2" rx="11" ry="11" style="stroke:#A80036;stroke-width:1.0;"/><path d="M982.2656,554.5156 Q982.4219,554.2969 982.6094,554.1875 Q982.7969,554.0781 983.0156,554.0781 Q983.3906,554.0781 983.625,554.3359 Q983.8594,554.5938 983.8594,555.2031 L983.8594,556.6563 Q983.8594,557.2656 983.625,557.5313 Q983.3906,557.7969 983.0156,557.7969 Q982.6719,557.7969 982.4688,557.5938 Q982.2656,557.4063 982.1563,556.8906 Q982.1094,556.5313 981.9219,556.3438 Q981.5938,555.9688 980.9844,555.75 Q980.375,555.5313 979.75,555.5313 Q978.9844,555.5313 978.3516,555.8594 Q977.7188,556.1875 977.2266,556.9375 Q976.7344,557.6875 976.7344,558.7188 L976.7344,559.8125 Q976.7344,561.0469 977.625,561.8672 Q978.5156,562.6875 980.1094,562.6875 Q981.0469,562.6875 981.7031,562.4375 Q982.0938,562.2813 982.5156,561.8438 Q982.7813,561.5781 982.9297,561.5 Q983.0781,561.4219 983.2813,561.4219 Q983.6094,561.4219 983.8672,561.6797 Q984.125,561.9375 984.125,562.2813 Q984.125,562.625 983.7813,563.0313 Q983.2813,563.6094 982.4844,563.9375 Q981.4063,564.3906 980.1094,564.3906 Q978.5938,564.3906 977.3906,563.7656 Q976.4063,563.2656 975.7188,562.1953 Q975.0313,561.125 975.0313,559.8438 L975.0313,558.6875 Q975.0313,557.3594 975.6484,556.2109 Q976.2656,555.0625 977.3594,554.4453 Q978.4531,553.8281 979.6875,553.8281 Q980.4219,553.8281 981.0703,553.9922 Q981.7188,554.1563 982.2656,554.5156 Z " fill="#000000"/><text fill="#000000" font-family="sans-serif" font-size="12" lengthAdjust="spacing" textLength="67" x="993.5" y="563.5508">ClusterQCM</text><line style="stroke:#A80036;stroke-width:1.5;" x1="965.5" x2="1062.5" y1="574.6406" y2="574.6406"/><line style="stroke:#A80036;stroke-width:1.5;" x1="965.5" x2="1062.5" y1="582.6406" y2="582.6406"/><!--MD5=[f5edbe02ebcb88165975fa5e9ff1b8ac]
class SGS100A--><rect codeLine="47" fill="#FEFECE" filter="url(#f20dlb0oq89wn)" height="48" id="SGS100A" style="stroke:#A80036;stroke-width:1.5;" width="85" x="964.5" y="245.6406"/><ellipse cx="979.5" cy="261.6406" fill="#ADD1B2" rx="11" ry="11" style="stroke:#A80036;stroke-width:1.0;"/><path d="M982.2656,257.5156 Q982.4219,257.2969 982.6094,257.1875 Q982.7969,257.0781 983.0156,257.0781 Q983.3906,257.0781 983.625,257.3359 Q983.8594,257.5938 983.8594,258.2031 L983.8594,259.6563 Q983.8594,260.2656 983.625,260.5313 Q983.3906,260.7969 983.0156,260.7969 Q982.6719,260.7969 982.4688,260.5938 Q982.2656,260.4063 982.1563,259.8906 Q982.1094,259.5313 981.9219,259.3438 Q981.5938,258.9688 980.9844,258.75 Q980.375,258.5313 979.75,258.5313 Q978.9844,258.5313 978.3516,258.8594 Q977.7188,259.1875 977.2266,259.9375 Q976.7344,260.6875 976.7344,261.7188 L976.7344,262.8125 Q976.7344,264.0469 977.625,264.8672 Q978.5156,265.6875 980.1094,265.6875 Q981.0469,265.6875 981.7031,265.4375 Q982.0938,265.2813 982.5156,264.8438 Q982.7813,264.5781 982.9297,264.5 Q983.0781,264.4219 983.2813,264.4219 Q983.6094,264.4219 983.8672,264.6797 Q984.125,264.9375 984.125,265.2813 Q984.125,265.625 983.7813,266.0313 Q983.2813,266.6094 982.4844,266.9375 Q981.4063,267.3906 980.1094,267.3906 Q978.5938,267.3906 977.3906,266.7656 Q976.4063,266.2656 975.7188,265.1953 Q975.0313,264.125 975.0313,262.8438 L975.0313,261.6875 Q975.0313,260.3594 975.6484,259.2109 Q976.2656,258.0625 977.3594,257.4453 Q978.4531,256.8281 979.6875,256.8281 Q980.4219,256.8281 981.0703,256.9922 Q981.7188,257.1563 982.2656,257.5156 Z " fill="#000000"/><text fill="#000000" font-family="sans-serif" font-size="12" lengthAdjust="spacing" textLength="53" x="993.5" y="266.5508">SGS100A</text><line style="stroke:#A80036;stroke-width:1.5;" x1="965.5" x2="1048.5" y1="277.6406" y2="277.6406"/><line style="stroke:#A80036;stroke-width:1.5;" x1="965.5" x2="1048.5" y1="285.6406" y2="285.6406"/><!--MD5=[46257d4d8877d391899eb9646b764fd9]
class AbstractPlatform--><rect codeLine="54" fill="#FEFECE" filter="url(#f20dlb0oq89wn)" height="263.5391" id="AbstractPlatform" style="stroke:#A80036;stroke-width:1.5;" width="265" x="87.5" y="434.6406"/><ellipse cx="170.25" cy="450.6406" fill="#A9DCDF" rx="11" ry="11" style="stroke:#A80036;stroke-width:1.0;"/><path d="M172.4375,452.4063 L168.2969,452.4063 L167.875,453.4375 L168.2969,453.4375 Q168.9063,453.4375 169.1719,453.6719 Q169.4375,453.9063 169.4375,454.2969 Q169.4375,454.6719 169.1719,454.9063 Q168.9063,455.1406 168.2969,455.1406 L166,455.1406 Q165.3906,455.1406 165.1328,454.9063 Q164.875,454.6719 164.875,454.2813 Q164.875,453.9063 165.1484,453.6641 Q165.4219,453.4219 166.0469,453.4375 L168.7188,446.7813 L167.6094,446.7813 Q167,446.7813 166.7344,446.5469 Q166.4688,446.3125 166.4688,445.9219 Q166.4688,445.5469 166.7344,445.3125 Q167,445.0781 167.6094,445.0781 L171.2813,445.0781 L174.6719,453.4375 Q175.2656,453.4375 175.4531,453.5781 Q175.8438,453.8438 175.8438,454.2969 Q175.8438,454.6719 175.5859,454.9063 Q175.3281,455.1406 174.7188,455.1406 L172.4219,455.1406 Q171.8125,455.1406 171.5469,454.9063 Q171.2813,454.6719 171.2813,454.2813 Q171.2813,453.9063 171.5469,453.6719 Q171.8125,453.4375 172.4219,453.4375 L172.8438,453.4375 L172.4375,452.4063 Z M171.7188,450.7031 L170.3594,447.3281 L168.9844,450.7031 L171.7188,450.7031 Z " fill="#000000"/><text fill="#000000" font-family="sans-serif" font-size="12" font-style="italic" lengthAdjust="spacing" textLength="91" x="190.75" y="455.5508">AbstractPlatform</text><line style="stroke:#A80036;stroke-width:1.5;" x1="88.5" x2="351.5" y1="466.6406" y2="466.6406"/><text fill="#000000" font-family="sans-serif" font-size="11" lengthAdjust="spacing" textLength="26" x="93.5" y="482.0596">name</text><text fill="#000000" font-family="sans-serif" font-size="11" lengthAdjust="spacing" textLength="38" x="93.5" y="495.8955">runcard</text><text fill="#000000" font-family="sans-serif" font-size="11" lengthAdjust="spacing" textLength="38" x="93.5" y="509.7314">settings</text><text fill="#000000" font-family="sans-serif" font-size="11" lengthAdjust="spacing" textLength="65" x="93.5" y="523.5674">is_connected</text><line style="stroke:#A80036;stroke-width:1.0;" x1="88.5" x2="351.5" y1="529.9844" y2="529.9844"/><text fill="#000000" font-family="sans-serif" font-size="11" lengthAdjust="spacing" textLength="115" x="93.5" y="545.4033">__init__(name, runcard)</text><text fill="#000000" font-family="sans-serif" font-size="11" lengthAdjust="spacing" textLength="166" x="93.5" y="559.2393">__call__(sequence, nshots=None)</text><text fill="#000000" font-family="sans-serif" font-size="11" lengthAdjust="spacing" textLength="100" x="93.5" y="573.0752">_check_connected()</text><text fill="#000000" font-family="sans-serif" font-size="11" lengthAdjust="spacing" textLength="82" x="93.5" y="586.9111">reload_settings()</text><line style="stroke:#A80036;stroke-width:1.0;stroke-dasharray:1.0,2.0;" x1="88.5" x2="351.5" y1="593.3281" y2="593.3281"/><text fill="#000000" font-family="sans-serif" font-size="11" font-style="italic" lengthAdjust="spacing" textLength="121" x="93.5" y="608.7471">run_calibration(runcard)</text><text fill="#000000" font-family="sans-serif" font-size="11" font-style="italic" lengthAdjust="spacing" textLength="47" x="93.5" y="622.583">connect()</text><text fill="#000000" font-family="sans-serif" font-size="11" font-style="italic" lengthAdjust="spacing" textLength="35" x="93.5" y="636.4189">setup()</text><text fill="#000000" font-family="sans-serif" font-size="11" font-style="italic" lengthAdjust="spacing" textLength="30" x="93.5" y="650.2549">start()</text><text fill="#000000" font-family="sans-serif" font-size="11" font-style="italic" lengthAdjust="spacing" textLength="29" x="93.5" y="664.0908">stop()</text><text fill="#000000" font-family="sans-serif" font-size="11" font-style="italic" lengthAdjust="spacing" textLength="62" x="93.5" y="677.9268">disconnect()</text><text fill="#000000" font-family="sans-serif" font-size="11" font-style="italic" lengthAdjust="spacing" textLength="253" x="93.5" y="691.7627">execute_pulse_sequence(sequence, nshots=None)</text><!--MD5=[12d1b92e40dc465f5084af542e9d9be5]
class MultiqubitPlatform--><rect codeLine="75" fill="#FEFECE" filter="url(#f20dlb0oq89wn)" height="48" id="MultiqubitPlatform" style="stroke:#A80036;stroke-width:1.5;" width="130" x="292" y="742.6406"/><ellipse cx="307" cy="758.6406" fill="#ADD1B2" rx="11" ry="11" style="stroke:#A80036;stroke-width:1.0;"/><path d="M309.7656,754.5156 Q309.9219,754.2969 310.1094,754.1875 Q310.2969,754.0781 310.5156,754.0781 Q310.8906,754.0781 311.125,754.3359 Q311.3594,754.5938 311.3594,755.2031 L311.3594,756.6563 Q311.3594,757.2656 311.125,757.5313 Q310.8906,757.7969 310.5156,757.7969 Q310.1719,757.7969 309.9688,757.5938 Q309.7656,757.4063 309.6563,756.8906 Q309.6094,756.5313 309.4219,756.3438 Q309.0938,755.9688 308.4844,755.75 Q307.875,755.5313 307.25,755.5313 Q306.4844,755.5313 305.8516,755.8594 Q305.2188,756.1875 304.7266,756.9375 Q304.2344,757.6875 304.2344,758.7188 L304.2344,759.8125 Q304.2344,761.0469 305.125,761.8672 Q306.0156,762.6875 307.6094,762.6875 Q308.5469,762.6875 309.2031,762.4375 Q309.5938,762.2813 310.0156,761.8438 Q310.2813,761.5781 310.4297,761.5 Q310.5781,761.4219 310.7813,761.4219 Q311.1094,761.4219 311.3672,761.6797 Q311.625,761.9375 311.625,762.2813 Q311.625,762.625 311.2813,763.0313 Q310.7813,763.6094 309.9844,763.9375 Q308.9063,764.3906 307.6094,764.3906 Q306.0938,764.3906 304.8906,763.7656 Q303.9063,763.2656 303.2188,762.1953 Q302.5313,761.125 302.5313,759.8438 L302.5313,758.6875 Q302.5313,757.3594 303.1484,756.2109 Q303.7656,755.0625 304.8594,754.4453 Q305.9531,753.8281 307.1875,753.8281 Q307.9219,753.8281 308.5703,753.9922 Q309.2188,754.1563 309.7656,754.5156 Z " fill="#000000"/><text fill="#000000" font-family="sans-serif" font-size="12" lengthAdjust="spacing" textLength="98" x="321" y="763.5508">MultiqubitPlatform</text><line style="stroke:#A80036;stroke-width:1.5;" x1="293" x2="421" y1="774.6406" y2="774.6406"/><line style="stroke:#A80036;stroke-width:1.5;" x1="293" x2="421" y1="782.6406" y2="782.6406"/><!--MD5=[b19c85508d867d32c2b33c49db94d757]
class QBloxPlatform--><rect codeLine="84" fill="#FEFECE" filter="url(#f20dlb0oq89wn)" height="48" id="QBloxPlatform" style="stroke:#A80036;stroke-width:1.5;" width="110" x="39" y="742.6406"/><ellipse cx="54" cy="758.6406" fill="#ADD1B2" rx="11" ry="11" style="stroke:#A80036;stroke-width:1.0;"/><path d="M56.7656,754.5156 Q56.9219,754.2969 57.1094,754.1875 Q57.2969,754.0781 57.5156,754.0781 Q57.8906,754.0781 58.125,754.3359 Q58.3594,754.5938 58.3594,755.2031 L58.3594,756.6563 Q58.3594,757.2656 58.125,757.5313 Q57.8906,757.7969 57.5156,757.7969 Q57.1719,757.7969 56.9688,757.5938 Q56.7656,757.4063 56.6563,756.8906 Q56.6094,756.5313 56.4219,756.3438 Q56.0938,755.9688 55.4844,755.75 Q54.875,755.5313 54.25,755.5313 Q53.4844,755.5313 52.8516,755.8594 Q52.2188,756.1875 51.7266,756.9375 Q51.2344,757.6875 51.2344,758.7188 L51.2344,759.8125 Q51.2344,761.0469 52.125,761.8672 Q53.0156,762.6875 54.6094,762.6875 Q55.5469,762.6875 56.2031,762.4375 Q56.5938,762.2813 57.0156,761.8438 Q57.2813,761.5781 57.4297,761.5 Q57.5781,761.4219 57.7813,761.4219 Q58.1094,761.4219 58.3672,761.6797 Q58.625,761.9375 58.625,762.2813 Q58.625,762.625 58.2813,763.0313 Q57.7813,763.6094 56.9844,763.9375 Q55.9063,764.3906 54.6094,764.3906 Q53.0938,764.3906 51.8906,763.7656 Q50.9063,763.2656 50.2188,762.1953 Q49.5313,761.125 49.5313,759.8438 L49.5313,758.6875 Q49.5313,757.3594 50.1484,756.2109 Q50.7656,755.0625 51.8594,754.4453 Q52.9531,753.8281 54.1875,753.8281 Q54.9219,753.8281 55.5703,753.9922 Q56.2188,754.1563 56.7656,754.5156 Z " fill="#000000"/><text fill="#000000" font-family="sans-serif" font-size="12" lengthAdjust="spacing" textLength="78" x="68" y="763.5508">QBloxPlatform</text><line style="stroke:#A80036;stroke-width:1.5;" x1="40" x2="148" y1="774.6406" y2="774.6406"/><line style="stroke:#A80036;stroke-width:1.5;" x1="40" x2="148" y1="782.6406" y2="782.6406"/><!--MD5=[d4876861cd1023c1c2a974f4c07b6e0a]
class ICPlatform--><rect codeLine="88" fill="#FEFECE" filter="url(#f20dlb0oq89wn)" height="48" id="ICPlatform" style="stroke:#A80036;stroke-width:1.5;" width="90" x="175" y="742.6406"/><ellipse cx="190" cy="758.6406" fill="#ADD1B2" rx="11" ry="11" style="stroke:#A80036;stroke-width:1.0;"/><path d="M192.7656,754.5156 Q192.9219,754.2969 193.1094,754.1875 Q193.2969,754.0781 193.5156,754.0781 Q193.8906,754.0781 194.125,754.3359 Q194.3594,754.5938 194.3594,755.2031 L194.3594,756.6563 Q194.3594,757.2656 194.125,757.5313 Q193.8906,757.7969 193.5156,757.7969 Q193.1719,757.7969 192.9688,757.5938 Q192.7656,757.4063 192.6563,756.8906 Q192.6094,756.5313 192.4219,756.3438 Q192.0938,755.9688 191.4844,755.75 Q190.875,755.5313 190.25,755.5313 Q189.4844,755.5313 188.8516,755.8594 Q188.2188,756.1875 187.7266,756.9375 Q187.2344,757.6875 187.2344,758.7188 L187.2344,759.8125 Q187.2344,761.0469 188.125,761.8672 Q189.0156,762.6875 190.6094,762.6875 Q191.5469,762.6875 192.2031,762.4375 Q192.5938,762.2813 193.0156,761.8438 Q193.2813,761.5781 193.4297,761.5 Q193.5781,761.4219 193.7813,761.4219 Q194.1094,761.4219 194.3672,761.6797 Q194.625,761.9375 194.625,762.2813 Q194.625,762.625 194.2813,763.0313 Q193.7813,763.6094 192.9844,763.9375 Q191.9063,764.3906 190.6094,764.3906 Q189.0938,764.3906 187.8906,763.7656 Q186.9063,763.2656 186.2188,762.1953 Q185.5313,761.125 185.5313,759.8438 L185.5313,758.6875 Q185.5313,757.3594 186.1484,756.2109 Q186.7656,755.0625 187.8594,754.4453 Q188.9531,753.8281 190.1875,753.8281 Q190.9219,753.8281 191.5703,753.9922 Q192.2188,754.1563 192.7656,754.5156 Z " fill="#000000"/><text fill="#000000" font-family="sans-serif" font-size="12" lengthAdjust="spacing" textLength="58" x="204" y="763.5508">ICPlatform</text><line style="stroke:#A80036;stroke-width:1.5;" x1="176" x2="264" y1="774.6406" y2="774.6406"/><line style="stroke:#A80036;stroke-width:1.5;" x1="176" x2="264" y1="782.6406" y2="782.6406"/><!--MD5=[99b8db98afdc2c8404e39242ef4c1e65]
class Platform--><rect codeLine="93" fill="#FEFECE" filter="url(#f20dlb0oq89wn)" height="48" id="Platform" style="stroke:#A80036;stroke-width:1.5;" width="166" x="137" y="842.6406"/><ellipse cx="152" cy="858.6406" fill="#FFFFE0" rx="11" ry="11" style="stroke:#A80036;stroke-width:1.0;"/><path d="M152.0938,858.3125 L152.0938,862.4375 L154.5156,862.4375 Q155.125,862.4375 155.3906,862.6719 Q155.6563,862.9063 155.6563,863.2969 Q155.6563,863.6719 155.3906,863.9063 Q155.125,864.1406 154.5156,864.1406 L149.375,864.1406 Q148.7656,864.1406 148.5,863.9063 Q148.2344,863.6719 148.2344,863.2813 Q148.2344,862.9063 148.5,862.6719 Q148.7656,862.4375 149.375,862.4375 L150.3906,862.4375 L150.3906,858.3125 L149.5781,858.3125 Q148.9531,858.3125 148.6953,858.0703 Q148.4375,857.8281 148.4375,857.4531 Q148.4375,857.0781 148.6953,856.8438 Q148.9531,856.6094 149.5781,856.6094 L150.3906,856.6094 L150.3906,855.9531 Q150.3906,854.8438 151.2266,854.1094 Q152.0625,853.375 153.6406,853.375 Q154.3438,853.375 155.2734,853.5 Q156.2031,853.625 156.4609,853.8594 Q156.7188,854.0938 156.7188,854.4688 Q156.7188,854.8594 156.4844,855.1016 Q156.25,855.3438 155.9219,855.3438 Q155.75,855.3438 155.4375,855.2813 Q154.3906,855.0781 153.5781,855.0781 Q152.7344,855.0781 152.4141,855.3281 Q152.0938,855.5781 152.0938,855.9531 L152.0938,856.6094 L154.7188,856.6094 Q155.3281,856.6094 155.5859,856.8438 Q155.8438,857.0781 155.8438,857.4531 Q155.8438,857.8281 155.5859,858.0703 Q155.3281,858.3125 154.7188,858.3125 L152.0938,858.3125 Z " fill="#000000"/><text fill="#000000" font-family="sans-serif" font-size="12" lengthAdjust="spacing" textLength="134" x="166" y="863.5508">Platform(name, runcard)</text><line style="stroke:#A80036;stroke-width:1.5;" x1="138" x2="302" y1="874.6406" y2="874.6406"/><line style="stroke:#A80036;stroke-width:1.5;" x1="138" x2="302" y1="882.6406" y2="882.6406"/><path d="M746.5134,104.9462 C739.5771,140.9762 726.3319,209.7779 719.4301,245.6288 " fill="none" style="stroke:#A80036;stroke-width:1.0;"/><polygon fill="#FFFFFF" points="746.5134,104.9462,737.5969,119.5235,749.3805,121.792,746.5134,104.9462" style="stroke:#A80036;stroke-width:1.0;"/><path d="M683.4866,104.9462 C690.4229,140.9762 703.6681,209.7779 710.5699,245.6288 " fill="none" style="stroke:#A80036;stroke-width:1.0;"/><polygon fill="#A80036" points="683.4866,104.9462,681.2601,114.5401,684.4318,109.856,689.1159,113.0278,683.4866,104.9462" style="stroke:#A80036;stroke-width:1.0;"/><path d="M596.9379,293.7888 C580.1137,348.9346 537.8203,487.5629 521.0293,542.6 " fill="none" style="stroke:#A80036;stroke-width:1.0;"/><polygon fill="#A80036" points="596.9379,293.7888,590.4857,301.2298,595.4788,298.5712,598.1375,303.5643,596.9379,293.7888" style="stroke:#A80036;stroke-width:1.0;"/><path d="M504.7847,293.7888 C506.654,348.9346 511.3533,487.5629 513.219,542.6 " fill="none" style="stroke:#A80036;stroke-width:1.0;"/><polygon fill="#A80036" points="504.7847,293.7888,501.0919,302.9191,504.9541,298.7859,509.0873,302.6481,504.7847,293.7888" style="stroke:#A80036;stroke-width:1.0;"/><path d="M1205.1728,362.767 C1220.3087,425.6556 1239.2258,504.2548 1248.4394,542.5367 " fill="none" style="stroke:#A80036;stroke-width:1.0;"/><polygon fill="#FFFFFF" points="1205.1728,362.767,1203.0833,379.7268,1214.7502,376.9188,1205.1728,362.767" style="stroke:#A80036;stroke-width:1.0;"/><path d="M1245.136,591.1004 C1234.0019,619.4253 1213.4854,668.0632 1190,706.6406 C1182.4355,719.0661 1172.6853,731.9123 1164.1097,742.4327 " fill="none" style="stroke:#A80036;stroke-width:1.0;"/><polygon fill="#FFFFFF" points="1245.136,591.1004,1233.6986,603.7962,1244.8667,608.1863,1245.136,591.1004" style="stroke:#A80036;stroke-width:1.0;"/><path d="M1254.35,590.7412 C1254.9265,628.7918 1256.0695,704.2267 1256.6476,742.3811 " fill="none" style="stroke:#A80036;stroke-width:1.0;"/><polygon fill="#FFFFFF" points="1254.35,590.7412,1248.5931,606.8303,1260.5917,606.6485,1254.35,590.7412" style="stroke:#A80036;stroke-width:1.0;"/><path d="M1166.7608,362.767 C1155.6753,425.6556 1141.8206,504.2548 1135.0726,542.5367 " fill="none" style="stroke:#A80036;stroke-width:1.0;"/><polygon fill="#FFFFFF" points="1166.7608,362.767,1158.0743,377.4825,1169.8922,379.5657,1166.7608,362.767" style="stroke:#A80036;stroke-width:1.0;"/><path d="M1115.4906,361.4604 C1111.4608,364.7767 1107.2932,367.8627 1103,370.6406 C1091.0536,378.3706 1082.3011,368.8245 1072,378.6406 C1025.738,422.725 1016.1435,502.9108 1014.3106,542.399 " fill="none" style="stroke:#A80036;stroke-width:1.0;"/><polygon fill="#FFFFFF" points="1115.4906,361.4604,1099.3235,366.9944,1106.9487,376.2603,1115.4906,361.4604" style="stroke:#A80036;stroke-width:1.0;"/><path d="M310.809,698.8829 C322.3143,715.5109 332.8769,730.7766 340.9889,742.5005 " fill="none" style="stroke:#A80036;stroke-width:1.0;"/><polygon fill="#FFFFFF" points="310.809,698.8829,314.9789,715.4543,324.847,708.6264,310.809,698.8829" style="stroke:#A80036;stroke-width:1.0;"/><path d="M1128.5388,590.6903 C1123.7776,622.6459 1110.1407,679.5281 1072,706.6406 C1061.1085,714.3829 965.3243,713.6255 952,714.6406 C759.2004,729.3288 531.5285,749.6833 422.1198,759.6526 " fill="none" style="stroke:#A80036;stroke-width:1.0;"/><polygon fill="#A80036" points="1128.5388,590.6903,1123.2561,599.0026,1127.8019,595.6357,1131.1688,600.1815,1128.5388,590.6903" style="stroke:#A80036;stroke-width:1.0;"/><path d="M1010.5212,590.8451 C1004.4077,622.7141 988.5088,679.1933 950,706.6406 C907.7172,736.7778 567.0909,755.9304 422.0323,762.7937 " fill="none" style="stroke:#A80036;stroke-width:1.0;"/><polygon fill="#A80036" points="1010.5212,590.8451,1004.8972,598.9303,1009.5792,595.7555,1012.754,600.4375,1010.5212,590.8451" style="stroke:#A80036;stroke-width:1.0;"/><path d="M991.837,294.014 C978.9078,315.197 961.0248,347.7382 952,378.6406 C931.4699,448.9391 971.5992,654.6706 920,706.6406 C885.4646,741.4243 562.8439,757.8253 422.1193,763.3704 " fill="none" style="stroke:#A80036;stroke-width:1.0;"/><polygon fill="#A80036" points="991.837,294.014,983.7339,299.6122,989.2321,298.2818,990.5624,303.78,991.837,294.014" style="stroke:#A80036;stroke-width:1.0;"/><path d="M495.6828,590.7412 C465.5115,628.7918 405.6969,704.2267 375.4432,742.3811 " fill="none" style="stroke:#A80036;stroke-width:1.0;"/><polygon fill="#A80036" points="495.6828,590.7412,486.9568,595.3081,492.5763,594.6591,493.2253,600.2786,495.6828,590.7412" style="stroke:#A80036;stroke-width:1.0;"/><path d="M850.0395,590.6682 C843.2919,622.327 826.373,678.5582 788,706.6406 C731.0909,748.2884 527.8508,760.5701 422.0591,764.1671 " fill="none" style="stroke:#A80036;stroke-width:1.0;"/><polygon fill="#A80036" points="850.0395,590.6682,844.2513,598.6366,848.9972,595.5583,852.0755,600.3043,850.0395,590.6682" style="stroke:#A80036;stroke-width:1.0;"/><path d="M136.4822,698.8829 C125.9008,715.5109 116.1862,730.7766 108.7255,742.5005 " fill="none" style="stroke:#A80036;stroke-width:1.0;"/><polygon fill="#FFFFFF" points="136.4822,698.8829,122.8302,709.1602,132.9542,715.6027,136.4822,698.8829" style="stroke:#A80036;stroke-width:1.0;"/><path d="M220,698.8829 C220,715.5109 220,730.7766 220,742.5005 " fill="none" style="stroke:#A80036;stroke-width:1.0;"/><polygon fill="#FFFFFF" points="220,698.8829,214,714.8829,226,714.8829,220,698.8829" style="stroke:#A80036;stroke-width:1.0;"/><path d="M324.5329,790.8653 C302.694,806.4872 274.0241,826.9956 252.234,842.5827 " fill="none" style="stroke:#A80036;stroke-width:1.0;"/><polygon fill="#A80036" points="324.5329,790.8653,314.8857,792.8481,320.4663,793.7743,319.5401,799.3548,324.5329,790.8653" style="stroke:#A80036;stroke-width:1.0;"/><path d="M123.8602,790.8653 C143.9457,806.4872 170.3136,826.9956 190.3541,842.5827 " fill="none" style="stroke:#A80036;stroke-width:1.0;"/><polygon fill="#A80036" points="123.8602,790.8653,128.5086,799.5481,127.807,793.935,133.4202,793.2333,123.8602,790.8653" style="stroke:#A80036;stroke-width:1.0;"/><path d="M220,790.8653 C220,806.4872 220,826.9956 220,842.5827 " fill="none" style="stroke:#A80036;stroke-width:1.0;"/><polygon fill="#A80036" points="220,790.8653,216,799.8653,220,795.8653,224,799.8653,220,790.8653" style="stroke:#A80036;stroke-width:1.0;"/><!--MD5=[be55558cb4a23f8ca7209972b69c3422]
@startuml multiqubit
!pragma layout smetana
title qibolab

package circuit.py {
    class PulseSequence {
    }
    class HardwareCircuit extends qibo.Circuit {
    }
    qibo.K <- - HardwareCircuit
    Pulse <- - PulseSequence
    PulseShape <- - PulseSequence
}


package runcards {
    entity multiqubit.yml  <<(y, orchid)>> 
}
package instruments {
    package instruments/abstract.py{
        class AbstractInstrument{
            name
            ip
            is_connected
            signature
            device
            - -
            {abstract} connect
            {abstract} setup
            {abstract} start
            {abstract} stop
            {abstract} disconnect
        }
    }
    package qblox.py{
        abstract class GenericPulsar extends AbstractInstrument{
        }
        class PulsarQRM extends GenericPulsar {
        }
        class PulsarQCM extends GenericPulsar {
        }
        class ClusterQRM extends AbstractInstrument {
        }
        class ClusterQCM extends AbstractInstrument {
        }
    }
    package rohde_schwarz.py {
        class SGS100A{
        }
    }
}

package platforms {
    package platforms/abstract.py {
        abstract class AbstractPlatform {
            name
            runcard
            settings
            is_connected
            - -
            __init__(name, runcard)
            __call__(sequence, nshots=None)
            _check_connected()
            reload_settings()
            ..
            {abstract} run_calibration(runcard)
            {abstract} connect()
            {abstract} setup()
            {abstract} start()
            {abstract} stop()
            {abstract} disconnect()
            {abstract} execute_pulse_sequence(sequence, nshots=None)
        }
    }
    package multiqubit.py {
        class MultiqubitPlatform extends AbstractPlatform {
        }
        ClusterQRM <- - MultiqubitPlatform
        ClusterQCM <- - MultiqubitPlatform
        SGS100A <- - MultiqubitPlatform
        PulseSequence <- - MultiqubitPlatform
        multiqubit.yml <- - MultiqubitPlatform
    }
    package qbloxplatform.py {
        class QBloxPlatform extends AbstractPlatform 

    }
    package ictplatform.py {
        class ICPlatform extends AbstractPlatform 
    }
}

package platform.py {
    entity "Platform(name, runcard)" as Platform  <<(f, LightYellow)>>
    MultiqubitPlatform <- - Platform
    QBloxPlatform <- - Platform
    ICPlatform <- - Platform
}

'hide members

@enduml

@startuml multiqubit
!pragma layout smetana
title qibolab

package circuit.py {
    class PulseSequence {
    }
    class HardwareCircuit extends qibo.Circuit {
    }
    qibo.K <- - HardwareCircuit
    Pulse <- - PulseSequence
    PulseShape <- - PulseSequence
}


package runcards {
    entity multiqubit.yml  <<(y, orchid)>> 
}
package instruments {
    package instruments/abstract.py{
        class AbstractInstrument{
            name
            ip
            is_connected
            signature
            device
            - -
            {abstract} connect
            {abstract} setup
            {abstract} start
            {abstract} stop
            {abstract} disconnect
        }
    }
    package qblox.py{
        abstract class GenericPulsar extends AbstractInstrument{
        }
        class PulsarQRM extends GenericPulsar {
        }
        class PulsarQCM extends GenericPulsar {
        }
        class ClusterQRM extends AbstractInstrument {
        }
        class ClusterQCM extends AbstractInstrument {
        }
    }
    package rohde_schwarz.py {
        class SGS100A{
        }
    }
}

package platforms {
    package platforms/abstract.py {
        abstract class AbstractPlatform {
            name
            runcard
            settings
            is_connected
            - -
            __init__(name, runcard)
            __call__(sequence, nshots=None)
            _check_connected()
            reload_settings()
            ..
            {abstract} run_calibration(runcard)
            {abstract} connect()
            {abstract} setup()
            {abstract} start()
            {abstract} stop()
            {abstract} disconnect()
            {abstract} execute_pulse_sequence(sequence, nshots=None)
        }
    }
    package multiqubit.py {
        class MultiqubitPlatform extends AbstractPlatform {
        }
        ClusterQRM <- - MultiqubitPlatform
        ClusterQCM <- - MultiqubitPlatform
        SGS100A <- - MultiqubitPlatform
        PulseSequence <- - MultiqubitPlatform
        multiqubit.yml <- - MultiqubitPlatform
    }
    package qbloxplatform.py {
        class QBloxPlatform extends AbstractPlatform 

    }
    package ictplatform.py {
        class ICPlatform extends AbstractPlatform 
    }
}

package platform.py {
    entity "Platform(name, runcard)" as Platform  <<(f, LightYellow)>>
    MultiqubitPlatform <- - Platform
    QBloxPlatform <- - Platform
    ICPlatform <- - Platform
}


@enduml

PlantUML version 1.2022.0(Tue Jan 11 20:16:42 GST 2022)
(GPL source distribution)
Java Runtime: Java(TM) SE Runtime Environment
JVM: Java HotSpot(TM) 64-Bit Server VM
Default Encoding: Cp1252
Language: en
Country: GB
--></g></svg>