<?xml version="1.0" encoding="UTF-8" standalone="no"?><svg xmlns="http://www.w3.org/2000/svg" xmlns:xlink="http://www.w3.org/1999/xlink" contentScriptType="application/ecmascript" contentStyleType="text/css" height="551px" preserveAspectRatio="none" style="width:2456px;height:551px;background:#FFFFFF;" version="1.1" viewBox="0 0 2456 551" width="2456px" zoomAndPan="magnify"><defs><filter height="300%" id="f12b7ymcz7zdce" width="300%" x="-1" y="-1"><feGaussianBlur result="blurOut" stdDeviation="2.0"/><feColorMatrix in="blurOut" result="blurOut2" type="matrix" values="0 0 0 0 0 0 0 0 0 0 0 0 0 0 0 0 0 0 .4 0"/><feOffset dx="4.0" dy="4.0" in="blurOut2" result="blurOut3"/><feBlend in="SourceGraphic" in2="blurOut3" mode="normal"/></filter></defs><g><text fill="#000000" font-family="sans-serif" font-size="18" lengthAdjust="spacing" textLength="122" x="1160.5" y="18.6855">Pulse Changes</text><!--MD5=[33cd32c3f1a57c0f8084b879be3d942d]
cluster platforms--><polygon fill="#FFFFFF" filter="url(#f12b7ymcz7zdce)" points="16,28.6406,88,28.6406,95,52.25,2439,52.25,2439,544.6406,16,544.6406,16,28.6406" style="stroke:#000000;stroke-width:1.5;"/><line style="stroke:#000000;stroke-width:1.5;" x1="16" x2="95" y1="52.25" y2="52.25"/><text fill="#000000" font-family="sans-serif" font-size="14" font-weight="bold" lengthAdjust="spacing" textLength="66" x="20" y="45.1738">platforms</text><!--MD5=[4fc98eee36412b2c46585db3bf9db47f]
cluster pulses.py--><polygon fill="#FFFFFF" filter="url(#f12b7ymcz7zdce)" points="1300,56.6406,1373,56.6406,1380,80.25,2431,80.25,2431,502.1406,1300,502.1406,1300,56.6406" style="stroke:#000000;stroke-width:1.5;"/><line style="stroke:#000000;stroke-width:1.5;" x1="1300" x2="1380" y1="80.25" y2="80.25"/><text fill="#000000" font-family="sans-serif" font-size="14" font-weight="bold" lengthAdjust="spacing" textLength="67" x="1304" y="73.1738">pulses.py</text><!--MD5=[5ce592a793cc3057f14dc2e5e36c3396]
cluster pulse_shapes.py--><polygon fill="#FFFFFF" filter="url(#f12b7ymcz7zdce)" points="393,143.6406,517,143.6406,524,167.25,1292,167.25,1292,536.6406,393,536.6406,393,143.6406" style="stroke:#000000;stroke-width:1.5;"/><line style="stroke:#000000;stroke-width:1.5;" x1="393" x2="524" y1="167.25" y2="167.25"/><text fill="#000000" font-family="sans-serif" font-size="14" font-weight="bold" lengthAdjust="spacing" textLength="118" x="397" y="160.1738">pulse_shapes.py</text><!--MD5=[1600dc1a246361dc3a8d79d886d2f5aa]
cluster circuit.py--><polygon fill="#FFFFFF" filter="url(#f12b7ymcz7zdce)" points="24,95.1406,94,95.1406,101,118.75,385,118.75,385,331.1406,24,331.1406,24,95.1406" style="stroke:#000000;stroke-width:1.5;"/><line style="stroke:#000000;stroke-width:1.5;" x1="24" x2="101" y1="118.75" y2="118.75"/><text fill="#000000" font-family="sans-serif" font-size="14" font-weight="bold" lengthAdjust="spacing" textLength="64" x="28" y="111.6738">circuit.py</text><!--MD5=[00d87270394aac614af8e53f95568f2d]
class Pulse_New--><rect codeLine="5" fill="#FEFECE" filter="url(#f12b7ymcz7zdce)" height="277.375" id="Pulse_New" style="stroke:#A80036;stroke-width:1.5;" width="557" x="1865.5" y="84.6406"/><ellipse cx="2107.75" cy="100.6406" fill="#ADD1B2" rx="11" ry="11" style="stroke:#A80036;stroke-width:1.0;"/><path d="M2110.5156,96.5156 Q2110.6719,96.2969 2110.8594,96.1875 Q2111.0469,96.0781 2111.2656,96.0781 Q2111.6406,96.0781 2111.875,96.3359 Q2112.1094,96.5938 2112.1094,97.2031 L2112.1094,98.6563 Q2112.1094,99.2656 2111.875,99.5313 Q2111.6406,99.7969 2111.2656,99.7969 Q2110.9219,99.7969 2110.7188,99.5938 Q2110.5156,99.4063 2110.4063,98.8906 Q2110.3594,98.5313 2110.1719,98.3438 Q2109.8438,97.9688 2109.2344,97.75 Q2108.625,97.5313 2108,97.5313 Q2107.2344,97.5313 2106.6016,97.8594 Q2105.9688,98.1875 2105.4766,98.9375 Q2104.9844,99.6875 2104.9844,100.7188 L2104.9844,101.8125 Q2104.9844,103.0469 2105.875,103.8672 Q2106.7656,104.6875 2108.3594,104.6875 Q2109.2969,104.6875 2109.9531,104.4375 Q2110.3438,104.2813 2110.7656,103.8438 Q2111.0313,103.5781 2111.1797,103.5 Q2111.3281,103.4219 2111.5313,103.4219 Q2111.8594,103.4219 2112.1172,103.6797 Q2112.375,103.9375 2112.375,104.2813 Q2112.375,104.625 2112.0313,105.0313 Q2111.5313,105.6094 2110.7344,105.9375 Q2109.6563,106.3906 2108.3594,106.3906 Q2106.8438,106.3906 2105.6406,105.7656 Q2104.6563,105.2656 2103.9688,104.1953 Q2103.2813,103.125 2103.2813,101.8438 L2103.2813,100.6875 Q2103.2813,99.3594 2103.8984,98.2109 Q2104.5156,97.0625 2105.6094,96.4453 Q2106.7031,95.8281 2107.9375,95.8281 Q2108.6719,95.8281 2109.3203,95.9922 Q2109.9688,96.1563 2110.5156,96.5156 Z " fill="#000000"/><text fill="#000000" font-family="sans-serif" font-size="12" lengthAdjust="spacing" textLength="64" x="2128.25" y="105.5508">Pulse_New</text><line style="stroke:#A80036;stroke-width:1.5;" x1="1866.5" x2="2421.5" y1="116.6406" y2="116.6406"/><text fill="#000000" font-family="sans-serif" font-size="11" lengthAdjust="spacing" textLength="22" x="1871.5" y="132.0596">start</text><text fill="#000000" font-family="sans-serif" font-size="11" lengthAdjust="spacing" textLength="39" x="1871.5" y="145.8955">duration</text><text fill="#000000" font-family="sans-serif" font-size="11" lengthAdjust="spacing" textLength="45" x="1871.5" y="159.7314">amplitude</text><text fill="#000000" font-family="sans-serif" font-size="11" lengthAdjust="spacing" textLength="50" x="1871.5" y="173.5674">frequency</text><text fill="#000000" font-family="sans-serif" font-size="11" lengthAdjust="spacing" textLength="30" x="1871.5" y="187.4033">phase</text><text fill="#000000" font-family="sans-serif" font-size="11" lengthAdjust="spacing" textLength="30" x="1871.5" y="201.2393">shape</text><text fill="#000000" font-family="sans-serif" font-size="11" lengthAdjust="spacing" textLength="38" x="1871.5" y="215.0752">channel</text><text fill="#000000" font-family="sans-serif" font-size="11" lengthAdjust="spacing" textLength="37" x="1871.5" y="228.9111">offset_i</text><text fill="#000000" font-family="sans-serif" font-size="11" lengthAdjust="spacing" textLength="41" x="1871.5" y="242.7471">offset_q</text><text fill="#000000" font-family="sans-serif" font-size="11" lengthAdjust="spacing" textLength="23" x="1871.5" y="256.583">qubit</text><text fill="#000000" font-family="sans-serif" font-size="11" lengthAdjust="spacing" textLength="21" x="1871.5" y="270.4189">type</text><line style="stroke:#A80036;stroke-width:1.0;" x1="1866.5" x2="2421.5" y1="276.8359" y2="276.8359"/><text fill="#000000" font-family="sans-serif" font-size="11" lengthAdjust="spacing" textLength="26" x="1871.5" y="292.2549">serial</text><text fill="#000000" font-family="sans-serif" font-size="11" lengthAdjust="spacing" textLength="52" x="1871.5" y="306.0908">envelope_i</text><text fill="#000000" font-family="sans-serif" font-size="11" lengthAdjust="spacing" textLength="56" x="1871.5" y="319.9268">envelope_q</text><line style="stroke:#A80036;stroke-width:1.0;" x1="1866.5" x2="2421.5" y1="326.3438" y2="326.3438"/><text fill="#000000" font-family="sans-serif" font-size="11" lengthAdjust="spacing" textLength="545" x="1871.5" y="341.7627">__init__(start, duration, amplitude, frequency, phase, shape, channel, type = 'qd', offset_i=0, offset_q=0, qubit=0)</text><text fill="#000000" font-family="sans-serif" font-size="11" lengthAdjust="spacing" textLength="52" x="1871.5" y="355.5986">__repr__()</text><!--MD5=[64c3ac28001079e80a26f1069f4f7177]
class Pulse_Old--><rect codeLine="25" fill="#FEFECE" filter="url(#f12b7ymcz7zdce)" height="241.7031" id="Pulse_Old" style="stroke:#A80036;stroke-width:1.5;" width="539" x="1308.5" y="102.1406"/><ellipse cx="1544.75" cy="118.1406" fill="#ADD1B2" rx="11" ry="11" style="stroke:#A80036;stroke-width:1.0;"/><path d="M1547.5156,114.0156 Q1547.6719,113.7969 1547.8594,113.6875 Q1548.0469,113.5781 1548.2656,113.5781 Q1548.6406,113.5781 1548.875,113.8359 Q1549.1094,114.0938 1549.1094,114.7031 L1549.1094,116.1563 Q1549.1094,116.7656 1548.875,117.0313 Q1548.6406,117.2969 1548.2656,117.2969 Q1547.9219,117.2969 1547.7188,117.0938 Q1547.5156,116.9063 1547.4063,116.3906 Q1547.3594,116.0313 1547.1719,115.8438 Q1546.8438,115.4688 1546.2344,115.25 Q1545.625,115.0313 1545,115.0313 Q1544.2344,115.0313 1543.6016,115.3594 Q1542.9688,115.6875 1542.4766,116.4375 Q1541.9844,117.1875 1541.9844,118.2188 L1541.9844,119.3125 Q1541.9844,120.5469 1542.875,121.3672 Q1543.7656,122.1875 1545.3594,122.1875 Q1546.2969,122.1875 1546.9531,121.9375 Q1547.3438,121.7813 1547.7656,121.3438 Q1548.0313,121.0781 1548.1797,121 Q1548.3281,120.9219 1548.5313,120.9219 Q1548.8594,120.9219 1549.1172,121.1797 Q1549.375,121.4375 1549.375,121.7813 Q1549.375,122.125 1549.0313,122.5313 Q1548.5313,123.1094 1547.7344,123.4375 Q1546.6563,123.8906 1545.3594,123.8906 Q1543.8438,123.8906 1542.6406,123.2656 Q1541.6563,122.7656 1540.9688,121.6953 Q1540.2813,120.625 1540.2813,119.3438 L1540.2813,118.1875 Q1540.2813,116.8594 1540.8984,115.7109 Q1541.5156,114.5625 1542.6094,113.9453 Q1543.7031,113.3281 1544.9375,113.3281 Q1545.6719,113.3281 1546.3203,113.4922 Q1546.9688,113.6563 1547.5156,114.0156 Z " fill="#000000"/><text fill="#000000" font-family="sans-serif" font-size="12" lengthAdjust="spacing" textLength="58" x="1565.25" y="123.0508">Pulse_Old</text><line style="stroke:#A80036;stroke-width:1.5;" x1="1309.5" x2="1846.5" y1="134.1406" y2="134.1406"/><text fill="#000000" font-family="sans-serif" font-size="11" lengthAdjust="spacing" textLength="22" x="1314.5" y="149.5596">start</text><text fill="#000000" font-family="sans-serif" font-size="11" lengthAdjust="spacing" textLength="39" x="1314.5" y="163.3955">duration</text><text fill="#000000" font-family="sans-serif" font-size="11" lengthAdjust="spacing" textLength="45" x="1314.5" y="177.2314">amplitude</text><text fill="#000000" font-family="sans-serif" font-size="11" lengthAdjust="spacing" textLength="50" x="1314.5" y="191.0674">frequency</text><text fill="#000000" font-family="sans-serif" font-size="11" lengthAdjust="spacing" textLength="30" x="1314.5" y="204.9033">phase</text><text fill="#000000" font-family="sans-serif" font-size="11" lengthAdjust="spacing" textLength="30" x="1314.5" y="218.7393">shape</text><text fill="#000000" font-family="sans-serif" font-size="11" lengthAdjust="spacing" textLength="38" x="1314.5" y="232.5752">channel</text><text fill="#000000" font-family="sans-serif" font-size="11" lengthAdjust="spacing" textLength="37" x="1314.5" y="246.4111">offset_i</text><text fill="#000000" font-family="sans-serif" font-size="11" lengthAdjust="spacing" textLength="41" x="1314.5" y="260.2471">offset_q</text><text fill="#000000" font-family="sans-serif" font-size="11" lengthAdjust="spacing" textLength="23" x="1314.5" y="274.083">qubit</text><line style="stroke:#A80036;stroke-width:1.0;" x1="1309.5" x2="1846.5" y1="280.5" y2="280.5"/><text fill="#000000" font-family="sans-serif" font-size="11" lengthAdjust="spacing" textLength="527" x="1314.5" y="295.9189">__init__(start, duration, amplitude, frequency, phase, shape, offset_i=0, offset_q=0, channel="qcm", qubit=0):</text><text fill="#000000" font-family="sans-serif" font-size="11" lengthAdjust="spacing" textLength="52" x="1314.5" y="309.7549">__repr__()</text><text fill="#000000" font-family="sans-serif" font-size="11" lengthAdjust="spacing" textLength="34" x="1314.5" y="323.5908">serial()</text><text fill="#000000" font-family="sans-serif" font-size="11" lengthAdjust="spacing" textLength="44" x="1314.5" y="337.4268">compile()</text><!--MD5=[11de6b34cac49542f9ec26b8037b893e]
class ReadoutPulse_New--><rect codeLine="42" fill="#FEFECE" filter="url(#f12b7ymcz7zdce)" height="61.8359" id="ReadoutPulse_New" style="stroke:#A80036;stroke-width:1.5;" width="555" x="1866.5" y="432.1406"/><ellipse cx="2084.25" cy="448.1406" fill="#ADD1B2" rx="11" ry="11" style="stroke:#A80036;stroke-width:1.0;"/><path d="M2087.0156,444.0156 Q2087.1719,443.7969 2087.3594,443.6875 Q2087.5469,443.5781 2087.7656,443.5781 Q2088.1406,443.5781 2088.375,443.8359 Q2088.6094,444.0938 2088.6094,444.7031 L2088.6094,446.1563 Q2088.6094,446.7656 2088.375,447.0313 Q2088.1406,447.2969 2087.7656,447.2969 Q2087.4219,447.2969 2087.2188,447.0938 Q2087.0156,446.9063 2086.9063,446.3906 Q2086.8594,446.0313 2086.6719,445.8438 Q2086.3438,445.4688 2085.7344,445.25 Q2085.125,445.0313 2084.5,445.0313 Q2083.7344,445.0313 2083.1016,445.3594 Q2082.4688,445.6875 2081.9766,446.4375 Q2081.4844,447.1875 2081.4844,448.2188 L2081.4844,449.3125 Q2081.4844,450.5469 2082.375,451.3672 Q2083.2656,452.1875 2084.8594,452.1875 Q2085.7969,452.1875 2086.4531,451.9375 Q2086.8438,451.7813 2087.2656,451.3438 Q2087.5313,451.0781 2087.6797,451 Q2087.8281,450.9219 2088.0313,450.9219 Q2088.3594,450.9219 2088.6172,451.1797 Q2088.875,451.4375 2088.875,451.7813 Q2088.875,452.125 2088.5313,452.5313 Q2088.0313,453.1094 2087.2344,453.4375 Q2086.1563,453.8906 2084.8594,453.8906 Q2083.3438,453.8906 2082.1406,453.2656 Q2081.1563,452.7656 2080.4688,451.6953 Q2079.7813,450.625 2079.7813,449.3438 L2079.7813,448.1875 Q2079.7813,446.8594 2080.3984,445.7109 Q2081.0156,444.5625 2082.1094,443.9453 Q2083.2031,443.3281 2084.4375,443.3281 Q2085.1719,443.3281 2085.8203,443.4922 Q2086.4688,443.6563 2087.0156,444.0156 Z " fill="#000000"/><text fill="#000000" font-family="sans-serif" font-size="12" lengthAdjust="spacing" textLength="111" x="2104.75" y="453.0508">ReadoutPulse_New</text><line style="stroke:#A80036;stroke-width:1.5;" x1="1867.5" x2="2420.5" y1="464.1406" y2="464.1406"/><line style="stroke:#A80036;stroke-width:1.5;" x1="1867.5" x2="2420.5" y1="472.1406" y2="472.1406"/><text fill="#000000" font-family="sans-serif" font-size="11" lengthAdjust="spacing" textLength="543" x="1872.5" y="487.5596">__init__(start, duration, amplitude, frequency, phase, shape, channel, type = 'ro', offset_i=0, offset_q=0, qubit=0)</text><!--MD5=[bcbbf8042d2a1c756bd27902be30fa24]
class ReadoutPulse_Old--><rect codeLine="45" fill="#FEFECE" filter="url(#f12b7ymcz7zdce)" height="61.8359" id="ReadoutPulse_Old" style="stroke:#A80036;stroke-width:1.5;" width="534" x="1311" y="432.1406"/><ellipse cx="1521.25" cy="448.1406" fill="#ADD1B2" rx="11" ry="11" style="stroke:#A80036;stroke-width:1.0;"/><path d="M1524.0156,444.0156 Q1524.1719,443.7969 1524.3594,443.6875 Q1524.5469,443.5781 1524.7656,443.5781 Q1525.1406,443.5781 1525.375,443.8359 Q1525.6094,444.0938 1525.6094,444.7031 L1525.6094,446.1563 Q1525.6094,446.7656 1525.375,447.0313 Q1525.1406,447.2969 1524.7656,447.2969 Q1524.4219,447.2969 1524.2188,447.0938 Q1524.0156,446.9063 1523.9063,446.3906 Q1523.8594,446.0313 1523.6719,445.8438 Q1523.3438,445.4688 1522.7344,445.25 Q1522.125,445.0313 1521.5,445.0313 Q1520.7344,445.0313 1520.1016,445.3594 Q1519.4688,445.6875 1518.9766,446.4375 Q1518.4844,447.1875 1518.4844,448.2188 L1518.4844,449.3125 Q1518.4844,450.5469 1519.375,451.3672 Q1520.2656,452.1875 1521.8594,452.1875 Q1522.7969,452.1875 1523.4531,451.9375 Q1523.8438,451.7813 1524.2656,451.3438 Q1524.5313,451.0781 1524.6797,451 Q1524.8281,450.9219 1525.0313,450.9219 Q1525.3594,450.9219 1525.6172,451.1797 Q1525.875,451.4375 1525.875,451.7813 Q1525.875,452.125 1525.5313,452.5313 Q1525.0313,453.1094 1524.2344,453.4375 Q1523.1563,453.8906 1521.8594,453.8906 Q1520.3438,453.8906 1519.1406,453.2656 Q1518.1563,452.7656 1517.4688,451.6953 Q1516.7813,450.625 1516.7813,449.3438 L1516.7813,448.1875 Q1516.7813,446.8594 1517.3984,445.7109 Q1518.0156,444.5625 1519.1094,443.9453 Q1520.2031,443.3281 1521.4375,443.3281 Q1522.1719,443.3281 1522.8203,443.4922 Q1523.4688,443.6563 1524.0156,444.0156 Z " fill="#000000"/><text fill="#000000" font-family="sans-serif" font-size="12" lengthAdjust="spacing" textLength="105" x="1541.75" y="453.0508">ReadoutPulse_Old</text><line style="stroke:#A80036;stroke-width:1.5;" x1="1312" x2="1844" y1="464.1406" y2="464.1406"/><line style="stroke:#A80036;stroke-width:1.5;" x1="1312" x2="1844" y1="472.1406" y2="472.1406"/><text fill="#000000" font-family="sans-serif" font-size="11" lengthAdjust="spacing" textLength="522" x="1317" y="487.5596">__init__(start, duration, amplitude, frequency, phase, shape, offset_i=0, offset_q=0, channel="qrm", qubit=0)</text><!--MD5=[966b1a8699486fa5c17f207b2102cb8b]
class PulseShape_Old--><rect codeLine="50" fill="#FEFECE" filter="url(#f12b7ymcz7zdce)" height="103.3438" id="PulseShape_Old" style="stroke:#A80036;stroke-width:1.5;" width="217" x="733.5" y="171.6406"/><ellipse cx="791.25" cy="187.6406" fill="#A9DCDF" rx="11" ry="11" style="stroke:#A80036;stroke-width:1.0;"/><path d="M793.4375,189.4063 L789.2969,189.4063 L788.875,190.4375 L789.2969,190.4375 Q789.9063,190.4375 790.1719,190.6719 Q790.4375,190.9063 790.4375,191.2969 Q790.4375,191.6719 790.1719,191.9063 Q789.9063,192.1406 789.2969,192.1406 L787,192.1406 Q786.3906,192.1406 786.1328,191.9063 Q785.875,191.6719 785.875,191.2813 Q785.875,190.9063 786.1484,190.6641 Q786.4219,190.4219 787.0469,190.4375 L789.7188,183.7813 L788.6094,183.7813 Q788,183.7813 787.7344,183.5469 Q787.4688,183.3125 787.4688,182.9219 Q787.4688,182.5469 787.7344,182.3125 Q788,182.0781 788.6094,182.0781 L792.2813,182.0781 L795.6719,190.4375 Q796.2656,190.4375 796.4531,190.5781 Q796.8438,190.8438 796.8438,191.2969 Q796.8438,191.6719 796.5859,191.9063 Q796.3281,192.1406 795.7188,192.1406 L793.4219,192.1406 Q792.8125,192.1406 792.5469,191.9063 Q792.2813,191.6719 792.2813,191.2813 Q792.2813,190.9063 792.5469,190.6719 Q792.8125,190.4375 793.4219,190.4375 L793.8438,190.4375 L793.4375,189.4063 Z M792.7188,187.7031 L791.3594,184.3281 L789.9844,187.7031 L792.7188,187.7031 Z " fill="#000000"/><text fill="#000000" font-family="sans-serif" font-size="12" font-style="italic" lengthAdjust="spacing" textLength="93" x="811.75" y="192.5508">PulseShape_Old</text><line style="stroke:#A80036;stroke-width:1.5;" x1="734.5" x2="949.5" y1="203.6406" y2="203.6406"/><text fill="#000000" font-family="sans-serif" font-size="11" lengthAdjust="spacing" textLength="26" x="739.5" y="219.0596">name</text><line style="stroke:#A80036;stroke-width:1.5;" x1="734.5" x2="949.5" y1="225.4766" y2="225.4766"/><text fill="#000000" font-family="sans-serif" font-size="11" lengthAdjust="spacing" textLength="45" x="739.5" y="240.8955">__init__()</text><text fill="#000000" font-family="sans-serif" font-size="11" lengthAdjust="spacing" textLength="52" x="739.5" y="254.7314">__repr__()</text><text fill="#000000" font-family="sans-serif" font-size="11" font-style="italic" lengthAdjust="spacing" textLength="205" x="739.5" y="268.5674">envelope(time, start, duration, amplitude))</text><!--MD5=[9f9f792ef21042bc48f30edee7303c98]
class Rectangular_Old--><rect codeLine="56" fill="#FEFECE" filter="url(#f12b7ymcz7zdce)" height="103.3438" id="Rectangular_Old" style="stroke:#A80036;stroke-width:1.5;" width="207" x="401.5" y="411.6406"/><ellipse cx="454.25" cy="427.6406" fill="#ADD1B2" rx="11" ry="11" style="stroke:#A80036;stroke-width:1.0;"/><path d="M457.0156,423.5156 Q457.1719,423.2969 457.3594,423.1875 Q457.5469,423.0781 457.7656,423.0781 Q458.1406,423.0781 458.375,423.3359 Q458.6094,423.5938 458.6094,424.2031 L458.6094,425.6563 Q458.6094,426.2656 458.375,426.5313 Q458.1406,426.7969 457.7656,426.7969 Q457.4219,426.7969 457.2188,426.5938 Q457.0156,426.4063 456.9063,425.8906 Q456.8594,425.5313 456.6719,425.3438 Q456.3438,424.9688 455.7344,424.75 Q455.125,424.5313 454.5,424.5313 Q453.7344,424.5313 453.1016,424.8594 Q452.4688,425.1875 451.9766,425.9375 Q451.4844,426.6875 451.4844,427.7188 L451.4844,428.8125 Q451.4844,430.0469 452.375,430.8672 Q453.2656,431.6875 454.8594,431.6875 Q455.7969,431.6875 456.4531,431.4375 Q456.8438,431.2813 457.2656,430.8438 Q457.5313,430.5781 457.6797,430.5 Q457.8281,430.4219 458.0313,430.4219 Q458.3594,430.4219 458.6172,430.6797 Q458.875,430.9375 458.875,431.2813 Q458.875,431.625 458.5313,432.0313 Q458.0313,432.6094 457.2344,432.9375 Q456.1563,433.3906 454.8594,433.3906 Q453.3438,433.3906 452.1406,432.7656 Q451.1563,432.2656 450.4688,431.1953 Q449.7813,430.125 449.7813,428.8438 L449.7813,427.6875 Q449.7813,426.3594 450.3984,425.2109 Q451.0156,424.0625 452.1094,423.4453 Q453.2031,422.8281 454.4375,422.8281 Q455.1719,422.8281 455.8203,422.9922 Q456.4688,423.1563 457.0156,423.5156 Z " fill="#000000"/><text fill="#000000" font-family="sans-serif" font-size="12" lengthAdjust="spacing" textLength="93" x="474.75" y="432.5508">Rectangular_Old</text><line style="stroke:#A80036;stroke-width:1.5;" x1="402.5" x2="607.5" y1="443.6406" y2="443.6406"/><text fill="#000000" font-family="sans-serif" font-size="11" lengthAdjust="spacing" textLength="26" x="407.5" y="459.0596">name</text><line style="stroke:#A80036;stroke-width:1.5;" x1="402.5" x2="607.5" y1="465.4766" y2="465.4766"/><text fill="#000000" font-family="sans-serif" font-size="11" lengthAdjust="spacing" textLength="45" x="407.5" y="480.8955">__init__()</text><text fill="#000000" font-family="sans-serif" font-size="11" lengthAdjust="spacing" textLength="52" x="407.5" y="494.7314">__repr__()</text><text fill="#000000" font-family="sans-serif" font-size="11" lengthAdjust="spacing" textLength="195" x="407.5" y="508.5674">envelope(time, start, duration, amplitude)</text><!--MD5=[d5534982adf2b2cc3c6c6c08e73484df]
class Gaussian_Old--><rect codeLine="62" fill="#FEFECE" filter="url(#f12b7ymcz7zdce)" height="117.1797" id="Gaussian_Old" style="stroke:#A80036;stroke-width:1.5;" width="207" x="626.5" y="404.6406"/><ellipse cx="685.75" cy="420.6406" fill="#ADD1B2" rx="11" ry="11" style="stroke:#A80036;stroke-width:1.0;"/><path d="M688.5156,416.5156 Q688.6719,416.2969 688.8594,416.1875 Q689.0469,416.0781 689.2656,416.0781 Q689.6406,416.0781 689.875,416.3359 Q690.1094,416.5938 690.1094,417.2031 L690.1094,418.6563 Q690.1094,419.2656 689.875,419.5313 Q689.6406,419.7969 689.2656,419.7969 Q688.9219,419.7969 688.7188,419.5938 Q688.5156,419.4063 688.4063,418.8906 Q688.3594,418.5313 688.1719,418.3438 Q687.8438,417.9688 687.2344,417.75 Q686.625,417.5313 686,417.5313 Q685.2344,417.5313 684.6016,417.8594 Q683.9688,418.1875 683.4766,418.9375 Q682.9844,419.6875 682.9844,420.7188 L682.9844,421.8125 Q682.9844,423.0469 683.875,423.8672 Q684.7656,424.6875 686.3594,424.6875 Q687.2969,424.6875 687.9531,424.4375 Q688.3438,424.2813 688.7656,423.8438 Q689.0313,423.5781 689.1797,423.5 Q689.3281,423.4219 689.5313,423.4219 Q689.8594,423.4219 690.1172,423.6797 Q690.375,423.9375 690.375,424.2813 Q690.375,424.625 690.0313,425.0313 Q689.5313,425.6094 688.7344,425.9375 Q687.6563,426.3906 686.3594,426.3906 Q684.8438,426.3906 683.6406,425.7656 Q682.6563,425.2656 681.9688,424.1953 Q681.2813,423.125 681.2813,421.8438 L681.2813,420.6875 Q681.2813,419.3594 681.8984,418.2109 Q682.5156,417.0625 683.6094,416.4453 Q684.7031,415.8281 685.9375,415.8281 Q686.6719,415.8281 687.3203,415.9922 Q687.9688,416.1563 688.5156,416.5156 Z " fill="#000000"/><text fill="#000000" font-family="sans-serif" font-size="12" lengthAdjust="spacing" textLength="80" x="706.25" y="425.5508">Gaussian_Old</text><line style="stroke:#A80036;stroke-width:1.5;" x1="627.5" x2="832.5" y1="436.6406" y2="436.6406"/><text fill="#000000" font-family="sans-serif" font-size="11" lengthAdjust="spacing" textLength="26" x="632.5" y="452.0596">name</text><text fill="#000000" font-family="sans-serif" font-size="11" lengthAdjust="spacing" textLength="46" x="632.5" y="465.8955">rel_sigma</text><line style="stroke:#A80036;stroke-width:1.5;" x1="627.5" x2="832.5" y1="472.3125" y2="472.3125"/><text fill="#000000" font-family="sans-serif" font-size="11" lengthAdjust="spacing" textLength="91" x="632.5" y="487.7314">__init__(rel_sigma)</text><text fill="#000000" font-family="sans-serif" font-size="11" lengthAdjust="spacing" textLength="52" x="632.5" y="501.5674">__repr__()</text><text fill="#000000" font-family="sans-serif" font-size="11" lengthAdjust="spacing" textLength="195" x="632.5" y="515.4033">envelope(time, start, duration, amplitude)</text><!--MD5=[f7123081e2cf99ee88149d6b923b6d76]
class Drag_Old--><rect codeLine="69" fill="#FEFECE" filter="url(#f12b7ymcz7zdce)" height="131.0156" id="Drag_Old" style="stroke:#A80036;stroke-width:1.5;" width="207" x="851.5" y="397.6406"/><ellipse cx="924.25" cy="413.6406" fill="#ADD1B2" rx="11" ry="11" style="stroke:#A80036;stroke-width:1.0;"/><path d="M927.0156,409.5156 Q927.1719,409.2969 927.3594,409.1875 Q927.5469,409.0781 927.7656,409.0781 Q928.1406,409.0781 928.375,409.3359 Q928.6094,409.5938 928.6094,410.2031 L928.6094,411.6563 Q928.6094,412.2656 928.375,412.5313 Q928.1406,412.7969 927.7656,412.7969 Q927.4219,412.7969 927.2188,412.5938 Q927.0156,412.4063 926.9063,411.8906 Q926.8594,411.5313 926.6719,411.3438 Q926.3438,410.9688 925.7344,410.75 Q925.125,410.5313 924.5,410.5313 Q923.7344,410.5313 923.1016,410.8594 Q922.4688,411.1875 921.9766,411.9375 Q921.4844,412.6875 921.4844,413.7188 L921.4844,414.8125 Q921.4844,416.0469 922.375,416.8672 Q923.2656,417.6875 924.8594,417.6875 Q925.7969,417.6875 926.4531,417.4375 Q926.8438,417.2813 927.2656,416.8438 Q927.5313,416.5781 927.6797,416.5 Q927.8281,416.4219 928.0313,416.4219 Q928.3594,416.4219 928.6172,416.6797 Q928.875,416.9375 928.875,417.2813 Q928.875,417.625 928.5313,418.0313 Q928.0313,418.6094 927.2344,418.9375 Q926.1563,419.3906 924.8594,419.3906 Q923.3438,419.3906 922.1406,418.7656 Q921.1563,418.2656 920.4688,417.1953 Q919.7813,416.125 919.7813,414.8438 L919.7813,413.6875 Q919.7813,412.3594 920.3984,411.2109 Q921.0156,410.0625 922.1094,409.4453 Q923.2031,408.8281 924.4375,408.8281 Q925.1719,408.8281 925.8203,408.9922 Q926.4688,409.1563 927.0156,409.5156 Z " fill="#000000"/><text fill="#000000" font-family="sans-serif" font-size="12" lengthAdjust="spacing" textLength="53" x="944.75" y="418.5508">Drag_Old</text><line style="stroke:#A80036;stroke-width:1.5;" x1="852.5" x2="1057.5" y1="429.6406" y2="429.6406"/><text fill="#000000" font-family="sans-serif" font-size="11" lengthAdjust="spacing" textLength="26" x="857.5" y="445.0596">name</text><text fill="#000000" font-family="sans-serif" font-size="11" lengthAdjust="spacing" textLength="28" x="857.5" y="458.8955">sigma</text><text fill="#000000" font-family="sans-serif" font-size="11" lengthAdjust="spacing" textLength="21" x="857.5" y="472.7314">beta</text><line style="stroke:#A80036;stroke-width:1.5;" x1="852.5" x2="1057.5" y1="479.1484" y2="479.1484"/><text fill="#000000" font-family="sans-serif" font-size="11" lengthAdjust="spacing" textLength="100" x="857.5" y="494.5674">__init__(sigma, beta)</text><text fill="#000000" font-family="sans-serif" font-size="11" lengthAdjust="spacing" textLength="52" x="857.5" y="508.4033">__repr__()</text><text fill="#000000" font-family="sans-serif" font-size="11" lengthAdjust="spacing" textLength="195" x="857.5" y="522.2393">envelope(time, start, duration, amplitude)</text><!--MD5=[d6c1f144a882bdf2462a1cc1a4a7d234]
class SWIPHT_Old--><rect codeLine="77" fill="#FEFECE" filter="url(#f12b7ymcz7zdce)" height="117.1797" id="SWIPHT_Old" style="stroke:#A80036;stroke-width:1.5;" width="207" x="1076.5" y="404.6406"/><ellipse cx="1139.75" cy="420.6406" fill="#ADD1B2" rx="11" ry="11" style="stroke:#A80036;stroke-width:1.0;"/><path d="M1142.5156,416.5156 Q1142.6719,416.2969 1142.8594,416.1875 Q1143.0469,416.0781 1143.2656,416.0781 Q1143.6406,416.0781 1143.875,416.3359 Q1144.1094,416.5938 1144.1094,417.2031 L1144.1094,418.6563 Q1144.1094,419.2656 1143.875,419.5313 Q1143.6406,419.7969 1143.2656,419.7969 Q1142.9219,419.7969 1142.7188,419.5938 Q1142.5156,419.4063 1142.4063,418.8906 Q1142.3594,418.5313 1142.1719,418.3438 Q1141.8438,417.9688 1141.2344,417.75 Q1140.625,417.5313 1140,417.5313 Q1139.2344,417.5313 1138.6016,417.8594 Q1137.9688,418.1875 1137.4766,418.9375 Q1136.9844,419.6875 1136.9844,420.7188 L1136.9844,421.8125 Q1136.9844,423.0469 1137.875,423.8672 Q1138.7656,424.6875 1140.3594,424.6875 Q1141.2969,424.6875 1141.9531,424.4375 Q1142.3438,424.2813 1142.7656,423.8438 Q1143.0313,423.5781 1143.1797,423.5 Q1143.3281,423.4219 1143.5313,423.4219 Q1143.8594,423.4219 1144.1172,423.6797 Q1144.375,423.9375 1144.375,424.2813 Q1144.375,424.625 1144.0313,425.0313 Q1143.5313,425.6094 1142.7344,425.9375 Q1141.6563,426.3906 1140.3594,426.3906 Q1138.8438,426.3906 1137.6406,425.7656 Q1136.6563,425.2656 1135.9688,424.1953 Q1135.2813,423.125 1135.2813,421.8438 L1135.2813,420.6875 Q1135.2813,419.3594 1135.8984,418.2109 Q1136.5156,417.0625 1137.6094,416.4453 Q1138.7031,415.8281 1139.9375,415.8281 Q1140.6719,415.8281 1141.3203,415.9922 Q1141.9688,416.1563 1142.5156,416.5156 Z " fill="#000000"/><text fill="#000000" font-family="sans-serif" font-size="12" lengthAdjust="spacing" textLength="72" x="1160.25" y="425.5508">SWIPHT_Old</text><line style="stroke:#A80036;stroke-width:1.5;" x1="1077.5" x2="1282.5" y1="436.6406" y2="436.6406"/><text fill="#000000" font-family="sans-serif" font-size="11" lengthAdjust="spacing" textLength="26" x="1082.5" y="452.0596">name</text><text fill="#000000" font-family="sans-serif" font-size="11" lengthAdjust="spacing" textLength="6" x="1082.5" y="465.8955">g</text><line style="stroke:#A80036;stroke-width:1.5;" x1="1077.5" x2="1282.5" y1="472.3125" y2="472.3125"/><text fill="#000000" font-family="sans-serif" font-size="11" lengthAdjust="spacing" textLength="51" x="1082.5" y="487.7314">__init__(g)</text><text fill="#000000" font-family="sans-serif" font-size="11" lengthAdjust="spacing" textLength="52" x="1082.5" y="501.5674">__repr__()</text><text fill="#000000" font-family="sans-serif" font-size="11" lengthAdjust="spacing" textLength="195" x="1082.5" y="515.4033">envelope(time, start, duration, amplitude)</text><!--MD5=[d84818a09859d496c9437729653e6f4b]
class PulseSequence_New--><rect codeLine="86" fill="#FEFECE" filter="url(#f12b7ymcz7zdce)" height="200.1953" id="PulseSequence_New" style="stroke:#A80036;stroke-width:1.5;" width="163" x="213.5" y="123.1406"/><ellipse cx="234.35" cy="139.1406" fill="#A9DCDF" rx="11" ry="11" style="stroke:#A80036;stroke-width:1.0;"/><path d="M236.5375,140.9063 L232.3969,140.9063 L231.975,141.9375 L232.3969,141.9375 Q233.0063,141.9375 233.2719,142.1719 Q233.5375,142.4063 233.5375,142.7969 Q233.5375,143.1719 233.2719,143.4063 Q233.0063,143.6406 232.3969,143.6406 L230.1,143.6406 Q229.4906,143.6406 229.2328,143.4063 Q228.975,143.1719 228.975,142.7813 Q228.975,142.4063 229.2484,142.1641 Q229.5219,141.9219 230.1469,141.9375 L232.8188,135.2813 L231.7094,135.2813 Q231.1,135.2813 230.8344,135.0469 Q230.5688,134.8125 230.5688,134.4219 Q230.5688,134.0469 230.8344,133.8125 Q231.1,133.5781 231.7094,133.5781 L235.3813,133.5781 L238.7719,141.9375 Q239.3656,141.9375 239.5531,142.0781 Q239.9438,142.3438 239.9438,142.7969 Q239.9438,143.1719 239.6859,143.4063 Q239.4281,143.6406 238.8188,143.6406 L236.5219,143.6406 Q235.9125,143.6406 235.6469,143.4063 Q235.3813,143.1719 235.3813,142.7813 Q235.3813,142.4063 235.6469,142.1719 Q235.9125,141.9375 236.5219,141.9375 L236.9438,141.9375 L236.5375,140.9063 Z M235.8188,139.2031 L234.4594,135.8281 L233.0844,139.2031 L235.8188,139.2031 Z " fill="#000000"/><text fill="#000000" font-family="sans-serif" font-size="12" font-style="italic" lengthAdjust="spacing" textLength="118" x="249.65" y="144.0508">PulseSequence_New</text><line style="stroke:#A80036;stroke-width:1.5;" x1="214.5" x2="375.5" y1="155.1406" y2="155.1406"/><text fill="#000000" font-family="sans-serif" font-size="11" lengthAdjust="spacing" textLength="58" x="219.5" y="170.5596">qcm_pulses</text><text fill="#000000" font-family="sans-serif" font-size="11" lengthAdjust="spacing" textLength="56" x="219.5" y="184.3955">qrm_pulses</text><text fill="#000000" font-family="sans-serif" font-size="11" lengthAdjust="spacing" textLength="19" x="219.5" y="198.2314">time</text><text fill="#000000" font-family="sans-serif" font-size="11" lengthAdjust="spacing" textLength="30" x="219.5" y="212.0674">phase</text><text fill="#000000" font-family="sans-serif" font-size="11" lengthAdjust="spacing" textLength="32" x="219.5" y="225.9033">pulses</text><text fill="#000000" font-family="sans-serif" font-size="11" lengthAdjust="spacing" textLength="26" x="219.5" y="239.7393">serial</text><line style="stroke:#A80036;stroke-width:1.5;" x1="214.5" x2="375.5" y1="246.1563" y2="246.1563"/><text fill="#000000" font-family="sans-serif" font-size="11" lengthAdjust="spacing" textLength="45" x="219.5" y="261.5752">__init__()</text><text fill="#000000" font-family="sans-serif" font-size="11" lengthAdjust="spacing" textLength="46" x="219.5" y="275.4111">__len__()</text><text fill="#000000" font-family="sans-serif" font-size="11" lengthAdjust="spacing" textLength="52" x="219.5" y="289.2471">add(pulse)</text><text fill="#000000" font-family="sans-serif" font-size="11" lengthAdjust="spacing" textLength="151" x="219.5" y="303.083">add_u3(theta, phi, lam, qubit=0)</text><text fill="#000000" font-family="sans-serif" font-size="11" lengthAdjust="spacing" textLength="132" x="219.5" y="316.9189">add_measurement(qubit=0)</text><!--MD5=[0a7586c3b6029e45326a9354e3b06619]
class PulseSequence_Old--><rect codeLine="99" fill="#FEFECE" filter="url(#f12b7ymcz7zdce)" height="200.1953" id="PulseSequence_Old" style="stroke:#A80036;stroke-width:1.5;" width="163" x="32.5" y="123.1406"/><ellipse cx="55.6" cy="139.1406" fill="#A9DCDF" rx="11" ry="11" style="stroke:#A80036;stroke-width:1.0;"/><path d="M57.7875,140.9063 L53.6469,140.9063 L53.225,141.9375 L53.6469,141.9375 Q54.2563,141.9375 54.5219,142.1719 Q54.7875,142.4063 54.7875,142.7969 Q54.7875,143.1719 54.5219,143.4063 Q54.2563,143.6406 53.6469,143.6406 L51.35,143.6406 Q50.7406,143.6406 50.4828,143.4063 Q50.225,143.1719 50.225,142.7813 Q50.225,142.4063 50.4984,142.1641 Q50.7719,141.9219 51.3969,141.9375 L54.0688,135.2813 L52.9594,135.2813 Q52.35,135.2813 52.0844,135.0469 Q51.8188,134.8125 51.8188,134.4219 Q51.8188,134.0469 52.0844,133.8125 Q52.35,133.5781 52.9594,133.5781 L56.6313,133.5781 L60.0219,141.9375 Q60.6156,141.9375 60.8031,142.0781 Q61.1938,142.3438 61.1938,142.7969 Q61.1938,143.1719 60.9359,143.4063 Q60.6781,143.6406 60.0688,143.6406 L57.7719,143.6406 Q57.1625,143.6406 56.8969,143.4063 Q56.6313,143.1719 56.6313,142.7813 Q56.6313,142.4063 56.8969,142.1719 Q57.1625,141.9375 57.7719,141.9375 L58.1938,141.9375 L57.7875,140.9063 Z M57.0688,139.2031 L55.7094,135.8281 L54.3344,139.2031 L57.0688,139.2031 Z " fill="#000000"/><text fill="#000000" font-family="sans-serif" font-size="12" font-style="italic" lengthAdjust="spacing" textLength="113" x="71.4" y="144.0508">PulseSequence_Old</text><line style="stroke:#A80036;stroke-width:1.5;" x1="33.5" x2="194.5" y1="155.1406" y2="155.1406"/><text fill="#000000" font-family="sans-serif" font-size="11" lengthAdjust="spacing" textLength="58" x="38.5" y="170.5596">qcm_pulses</text><text fill="#000000" font-family="sans-serif" font-size="11" lengthAdjust="spacing" textLength="56" x="38.5" y="184.3955">qrm_pulses</text><text fill="#000000" font-family="sans-serif" font-size="11" lengthAdjust="spacing" textLength="32" x="38.5" y="198.2314">pulses</text><text fill="#000000" font-family="sans-serif" font-size="11" lengthAdjust="spacing" textLength="19" x="38.5" y="212.0674">time</text><text fill="#000000" font-family="sans-serif" font-size="11" lengthAdjust="spacing" textLength="30" x="38.5" y="225.9033">phase</text><line style="stroke:#A80036;stroke-width:1.5;" x1="33.5" x2="194.5" y1="232.3203" y2="232.3203"/><text fill="#000000" font-family="sans-serif" font-size="11" lengthAdjust="spacing" textLength="45" x="38.5" y="247.7393">__init__()</text><text fill="#000000" font-family="sans-serif" font-size="11" lengthAdjust="spacing" textLength="46" x="38.5" y="261.5752">__len__()</text><text fill="#000000" font-family="sans-serif" font-size="11" lengthAdjust="spacing" textLength="34" x="38.5" y="275.4111">serial()</text><text fill="#000000" font-family="sans-serif" font-size="11" lengthAdjust="spacing" textLength="52" x="38.5" y="289.2471">add(pulse)</text><text fill="#000000" font-family="sans-serif" font-size="11" lengthAdjust="spacing" textLength="151" x="38.5" y="303.083">add_u3(theta, phi, lam, qubit=0)</text><text fill="#000000" font-family="sans-serif" font-size="11" lengthAdjust="spacing" textLength="132" x="38.5" y="316.9189">add_measurement(qubit=0)</text><path d="M2144,361.897 C2144,388.2133 2144,413.2742 2144,431.756 " fill="none" style="stroke:#A80036;stroke-width:1.0;"/><polygon fill="#FFFFFF" points="2144,361.897,2138,377.897,2150,377.897,2144,361.897" style="stroke:#A80036;stroke-width:1.0;"/><path d="M1578,344.1865 C1578,376.7649 1578,409.2387 1578,431.8401 " fill="none" style="stroke:#A80036;stroke-width:1.0;"/><polygon fill="#FFFFFF" points="1578,344.1865,1572,360.1865,1584,360.1865,1578,344.1865" style="stroke:#A80036;stroke-width:1.0;"/><path d="M770.1184,274.9057 C713.0928,315.1789 633.7679,371.2007 576.7711,411.4536 " fill="none" style="stroke:#A80036;stroke-width:1.0;"/><polygon fill="#FFFFFF" points="770.1184,274.9057,753.5878,279.2346,760.5103,289.0367,770.1184,274.9057" style="stroke:#A80036;stroke-width:1.0;"/><path d="M818.1106,274.9057 C800.2506,312.8581 775.8091,364.7962 757.1986,404.3435 " fill="none" style="stroke:#A80036;stroke-width:1.0;"/><polygon fill="#FFFFFF" points="818.1106,274.9057,805.8689,286.828,816.7267,291.9376,818.1106,274.9057" style="stroke:#A80036;stroke-width:1.0;"/><path d="M866.1027,274.9057 C883.0851,310.6738 905.9653,358.8641 924.2604,397.3971 " fill="none" style="stroke:#A80036;stroke-width:1.0;"/><polygon fill="#FFFFFF" points="866.1027,274.9057,867.5451,291.9327,878.3853,286.7859,866.1027,274.9057" style="stroke:#A80036;stroke-width:1.0;"/><path d="M914.0949,274.9057 C968.0907,312.9264 1042.02,364.9831 1098.2213,404.5568 " fill="none" style="stroke:#A80036;stroke-width:1.0;"/><polygon fill="#FFFFFF" points="914.0949,274.9057,923.7227,289.0232,930.6315,279.2116,914.0949,274.9057" style="stroke:#A80036;stroke-width:1.0;"/><!--MD5=[0abc4cf789b20453cb5b7877e606fee9]
@startuml Pulse_changes
!pragma layout smetana
title Pulse Changes
package platforms {
    package pulses.py {
        class Pulse_New {
            start
            duration
            amplitude
            frequency
            phase
            shape
            channel
            offset_i
            offset_q
            qubit
            type
            - -
            serial
            envelope_i
            envelope_q
            - -
            __init__(start, duration, amplitude, frequency, phase, shape, channel, type = 'qd', offset_i=0, offset_q=0, qubit=0)
            __repr__()
        }
        class Pulse_Old {
            start
            duration
            amplitude
            frequency
            phase
            shape
            channel
            offset_i
            offset_q
            qubit
            - -
            __init__(start, duration, amplitude, frequency, phase, shape, offset_i=0, offset_q=0, channel="qcm", qubit=0):
            __repr__()
            serial()
            compile()
        }
        class ReadoutPulse_New extends Pulse_New {
            __init__(start, duration, amplitude, frequency, phase, shape, channel, type = 'ro', offset_i=0, offset_q=0, qubit=0)
        }
        class ReadoutPulse_Old extends Pulse_Old {
            __init__(start, duration, amplitude, frequency, phase, shape, offset_i=0, offset_q=0, channel="qrm", qubit=0)
        }
    }
    package pulse_shapes.py {
        abstract class PulseShape_Old {
            name
            __init__()
            __repr__()
            {abstract} envelope(time, start, duration, amplitude))
        }
        class Rectangular_Old extends PulseShape_Old{
            name
            __init__()
            __repr__()
            envelope(time, start, duration, amplitude)
        }
        class Gaussian_Old extends PulseShape_Old{
            name
            rel_sigma
            __init__(rel_sigma)
            __repr__()
            envelope(time, start, duration, amplitude)
        }
        class Drag_Old extends PulseShape_Old{
            name
            sigma
            beta
            __init__(sigma, beta)
            __repr__()
            envelope(time, start, duration, amplitude)
        }
        class SWIPHT_Old extends PulseShape_Old{
            name
            g
            __init__(g)
            __repr__()
            envelope(time, start, duration, amplitude)
        }
    }
    package circuit.py {
        abstract class PulseSequence_New {
            qcm_pulses
            qrm_pulses
            time
            phase
            pulses
            serial
            __init__()
            __len__()
            add(pulse)
            add_u3(theta, phi, lam, qubit=0)
            add_measurement(qubit=0)
        }
        abstract class PulseSequence_Old {
            qcm_pulses
            qrm_pulses
            pulses
            time
            phase
            __init__()
            __len__()
            serial()
            add(pulse)
            add_u3(theta, phi, lam, qubit=0)
            add_measurement(qubit=0)
        }
    }


}


'hide members

@enduml

@startuml Pulse_changes
!pragma layout smetana
title Pulse Changes
package platforms {
    package pulses.py {
        class Pulse_New {
            start
            duration
            amplitude
            frequency
            phase
            shape
            channel
            offset_i
            offset_q
            qubit
            type
            - -
            serial
            envelope_i
            envelope_q
            - -
            __init__(start, duration, amplitude, frequency, phase, shape, channel, type = 'qd', offset_i=0, offset_q=0, qubit=0)
            __repr__()
        }
        class Pulse_Old {
            start
            duration
            amplitude
            frequency
            phase
            shape
            channel
            offset_i
            offset_q
            qubit
            - -
            __init__(start, duration, amplitude, frequency, phase, shape, offset_i=0, offset_q=0, channel="qcm", qubit=0):
            __repr__()
            serial()
            compile()
        }
        class ReadoutPulse_New extends Pulse_New {
            __init__(start, duration, amplitude, frequency, phase, shape, channel, type = 'ro', offset_i=0, offset_q=0, qubit=0)
        }
        class ReadoutPulse_Old extends Pulse_Old {
            __init__(start, duration, amplitude, frequency, phase, shape, offset_i=0, offset_q=0, channel="qrm", qubit=0)
        }
    }
    package pulse_shapes.py {
        abstract class PulseShape_Old {
            name
            __init__()
            __repr__()
            {abstract} envelope(time, start, duration, amplitude))
        }
        class Rectangular_Old extends PulseShape_Old{
            name
            __init__()
            __repr__()
            envelope(time, start, duration, amplitude)
        }
        class Gaussian_Old extends PulseShape_Old{
            name
            rel_sigma
            __init__(rel_sigma)
            __repr__()
            envelope(time, start, duration, amplitude)
        }
        class Drag_Old extends PulseShape_Old{
            name
            sigma
            beta
            __init__(sigma, beta)
            __repr__()
            envelope(time, start, duration, amplitude)
        }
        class SWIPHT_Old extends PulseShape_Old{
            name
            g
            __init__(g)
            __repr__()
            envelope(time, start, duration, amplitude)
        }
    }
    package circuit.py {
        abstract class PulseSequence_New {
            qcm_pulses
            qrm_pulses
            time
            phase
            pulses
            serial
            __init__()
            __len__()
            add(pulse)
            add_u3(theta, phi, lam, qubit=0)
            add_measurement(qubit=0)
        }
        abstract class PulseSequence_Old {
            qcm_pulses
            qrm_pulses
            pulses
            time
            phase
            __init__()
            __len__()
            serial()
            add(pulse)
            add_u3(theta, phi, lam, qubit=0)
            add_measurement(qubit=0)
        }
    }


}



@enduml

PlantUML version 1.2022.0(Tue Jan 11 20:16:42 GST 2022)
(GPL source distribution)
Java Runtime: Java(TM) SE Runtime Environment
JVM: Java HotSpot(TM) 64-Bit Server VM
Default Encoding: Cp1252
Language: en
Country: GB
--></g></svg>
