<?xml version="1.0" encoding="UTF-8" standalone="no"?>
<svg
   width="460.8pt"
   height="345.6pt"
   viewBox="0 0 460.8 345.6"
   version="1.1"
   id="svg123"
   sodipodi:docname="qubit_spectroscopy_dark.svg"
   inkscape:version="1.3 (1:1.3+202307231459+0e150ed6c4)"
   xmlns:inkscape="http://www.inkscape.org/namespaces/inkscape"
   xmlns:sodipodi="http://sodipodi.sourceforge.net/DTD/sodipodi-0.dtd"
   xmlns:xlink="http://www.w3.org/1999/xlink"
   xmlns="http://www.w3.org/2000/svg"
   xmlns:svg="http://www.w3.org/2000/svg"
   xmlns:rdf="http://www.w3.org/1999/02/22-rdf-syntax-ns#"
   xmlns:cc="http://creativecommons.org/ns#"
   xmlns:dc="http://purl.org/dc/elements/1.1/">
  <sodipodi:namedview
     id="namedview123"
     pagecolor="#000000"
     bordercolor="#000000"
     borderopacity="1"
     inkscape:showpageshadow="2"
     inkscape:pageopacity="0.0"
     inkscape:pagecheckerboard="0"
     inkscape:deskcolor="#d1d1d1"
     inkscape:document-units="pt"
     inkscape:zoom="0.86914058"
     inkscape:cx="166.83147"
     inkscape:cy="329.63597"
     inkscape:window-width="1920"
     inkscape:window-height="1043"
     inkscape:window-x="1680"
     inkscape:window-y="0"
     inkscape:window-maximized="1"
     inkscape:current-layer="svg123"
     inkscape:export-bgcolor="#00000000" />
  <metadata
     id="metadata1">
    <rdf:RDF>
      <cc:Work>
        <dc:type
           rdf:resource="http://purl.org/dc/dcmitype/StillImage" />
        <dc:date>2023-08-06T12:14:14.034542</dc:date>
        <dc:format>image/svg+xml</dc:format>
        <dc:creator>
          <cc:Agent>
            <dc:title>Matplotlib v3.7.2, https://matplotlib.org/</dc:title>
          </cc:Agent>
        </dc:creator>
      </cc:Work>
    </rdf:RDF>
  </metadata>
  <defs
     id="defs1">
    <linearGradient
       id="linearGradient6"
       inkscape:collect="always">
      <stop
         style="stop-color:#ffffff;stop-opacity:1;"
         offset="0"
         id="stop6" />
      <stop
         style="stop-color:#ffffff;stop-opacity:0;"
         offset="1"
         id="stop7" />
    </linearGradient>
    <linearGradient
       id="linearGradient1"
       inkscape:collect="always">
      <stop
         style="stop-color:#ffffff;stop-opacity:1;"
         offset="0"
         id="stop1" />
      <stop
         style="stop-color:#ffffff;stop-opacity:0;"
         offset="1"
         id="stop2" />
    </linearGradient>
    <linearGradient
       id="linearGradient128"
       inkscape:collect="always">
      <stop
         style="stop-color:#ffffff;stop-opacity:1;"
         offset="0"
         id="stop128" />
      <stop
         style="stop-color:#ffffff;stop-opacity:0;"
         offset="1"
         id="stop129" />
    </linearGradient>
    <style
       type="text/css"
       id="style1">*{stroke-linejoin: round; stroke-linecap: butt}</style>
    <linearGradient
       inkscape:collect="always"
       xlink:href="#linearGradient128"
       id="linearGradient129"
       x1="65.40983"
       y1="309.33401"
       x2="66.20983"
       y2="309.33401"
       gradientUnits="userSpaceOnUse" />
    <linearGradient
       inkscape:collect="always"
       xlink:href="#linearGradient1"
       id="linearGradient2"
       x1="54.099998"
       y1="279.20026"
       x2="57.599998"
       y2="279.20026"
       gradientUnits="userSpaceOnUse" />
    <linearGradient
       inkscape:collect="always"
       xlink:href="#linearGradient6"
       id="linearGradient7"
       x1="54.099998"
       y1="279.20026"
       x2="57.599998"
       y2="279.20026"
       gradientUnits="userSpaceOnUse" />
  </defs>
  <g
     id="line2d_1"
     style="stroke:#ffffff;stroke-opacity:1;fill:none;fill-opacity:1">
    <defs
       id="defs2"
       style="stroke:url(#linearGradient129)">
      <path
         id="m64b0ff85d4"
         d="M 0,0 V 3.5"
         style="stroke:url(#linearGradient129);stroke-width:0.8" />
    </defs>
    <g
       id="g2"
       style="stroke:#ffffff;stroke-opacity:1;fill:none;fill-opacity:1">
      <use
         xlink:href="#m64b0ff85d4"
         x="65.80983"
         y="307.58401"
         style="stroke:#ffffff;stroke-width:0.8;stroke-opacity:1;fill:none;fill-opacity:1"
         id="use2" />
    </g>
  </g>
  <g
     id="text_1"
     style="fill:#ffffff;fill-opacity:1">
    <!-- 5.30 -->
    <g
       transform="matrix(0.1,0,0,-0.1,54.677017,322.18244)"
       id="g6"
       style="fill:#ffffff;fill-opacity:1">
      <defs
         id="defs3">
        <path
           id="DejaVuSans-35"
           d="M 691,4666 H 3169 V 4134 H 1269 V 2991 q 137,47 274,70 138,23 276,23 781,0 1237,-428 457,-428 457,-1159 Q 3513,744 3044,326 2575,-91 1722,-91 1428,-91 1123,-41 819,9 494,109 v 635 q 281,-153 581,-228 300,-75 634,-75 541,0 856,284 316,284 316,772 0,487 -316,771 -315,285 -856,285 -253,0 -505,-56 -251,-56 -513,-175 z"
           transform="scale(0.015625)" />
        <path
           id="DejaVuSans-2e"
           d="m 684,794 h 660 V 0 H 684 Z"
           transform="scale(0.015625)" />
        <path
           id="DejaVuSans-33"
           d="m 2597,2516 q 453,-97 707,-404 255,-306 255,-756 0,-690 -475,-1069 -475,-378 -1350,-378 -293,0 -604,58 -311,58 -642,174 v 609 q 262,-153 574,-231 313,-78 654,-78 593,0 904,234 311,234 311,681 0,413 -289,645 -289,233 -804,233 h -544 v 519 h 569 q 465,0 712,186 247,186 247,536 0,359 -255,551 -254,193 -729,193 -260,0 -557,-57 -297,-56 -653,-174 v 562 q 360,100 674,150 314,50 592,50 719,0 1137,-327 419,-326 419,-882 0,-388 -222,-655 -222,-267 -631,-370 z"
           transform="scale(0.015625)" />
        <path
           id="DejaVuSans-30"
           d="m 2034,4250 q -487,0 -733,-480 -245,-479 -245,-1442 0,-959 245,-1439 246,-480 733,-480 491,0 736,480 246,480 246,1439 0,963 -246,1442 -245,480 -736,480 z m 0,500 q 785,0 1199,-621 414,-620 414,-1801 0,-1178 -414,-1799 -414,-620 -1199,-620 -784,0 -1198,620 -414,621 -414,1799 0,1181 414,1801 414,621 1198,621 z"
           transform="scale(0.015625)" />
      </defs>
      <use
         xlink:href="#DejaVuSans-35"
         id="use3"
         style="fill:#ffffff;fill-opacity:1" />
      <use
         xlink:href="#DejaVuSans-2e"
         x="63.623047"
         id="use4"
         style="fill:#ffffff;fill-opacity:1" />
      <use
         xlink:href="#DejaVuSans-33"
         x="95.410156"
         id="use5"
         style="fill:#ffffff;fill-opacity:1" />
      <use
         xlink:href="#DejaVuSans-30"
         x="159.0332"
         id="use6"
         style="fill:#ffffff;fill-opacity:1" />
    </g>
  </g>
  <g
     id="line2d_2"
     style="stroke:#ffffff;stroke-opacity:1;fill:none;fill-opacity:1">
    <g
       id="g7"
       style="stroke:#ffffff;stroke-opacity:1;fill:none;fill-opacity:1">
      <use
         xlink:href="#m64b0ff85d4"
         x="106.49335"
         y="307.58401"
         style="stroke:#ffffff;stroke-width:0.8;stroke-opacity:1;fill:none;fill-opacity:1"
         id="use7" />
    </g>
  </g>
  <g
     id="text_2"
     style="fill:#ffffff;fill-opacity:1">
    <!-- 5.35 -->
    <g
       transform="matrix(0.1,0,0,-0.1,95.360544,322.18244)"
       id="g11"
       style="fill:#ffffff;fill-opacity:1">
      <use
         xlink:href="#DejaVuSans-35"
         id="use8"
         style="fill:#ffffff;fill-opacity:1" />
      <use
         xlink:href="#DejaVuSans-2e"
         x="63.623047"
         id="use9"
         style="fill:#ffffff;fill-opacity:1" />
      <use
         xlink:href="#DejaVuSans-33"
         x="95.410156"
         id="use10"
         style="fill:#ffffff;fill-opacity:1" />
      <use
         xlink:href="#DejaVuSans-35"
         x="159.0332"
         id="use11"
         style="fill:#ffffff;fill-opacity:1" />
    </g>
  </g>
  <g
     id="line2d_3"
     style="stroke:#ffffff;stroke-opacity:1;fill:none;fill-opacity:1">
    <g
       id="g12"
       style="stroke:#ffffff;stroke-opacity:1;fill:none;fill-opacity:1">
      <use
         xlink:href="#m64b0ff85d4"
         x="147.17688"
         y="307.58401"
         style="stroke:#ffffff;stroke-width:0.8;stroke-opacity:1;fill:none;fill-opacity:1"
         id="use12" />
    </g>
  </g>
  <g
     id="text_3"
     style="fill:#ffffff;fill-opacity:1">
    <!-- 5.40 -->
    <g
       transform="matrix(0.1,0,0,-0.1,136.04407,322.18244)"
       id="g16"
       style="fill:#ffffff;fill-opacity:1">
      <defs
         id="defs12">
        <path
           id="DejaVuSans-34"
           d="M 2419,4116 825,1625 h 1594 z m -166,550 h 794 V 1625 h 666 V 1100 H 3047 V 0 H 2419 V 1100 H 313 v 609 z"
           transform="scale(0.015625)" />
      </defs>
      <use
         xlink:href="#DejaVuSans-35"
         id="use13"
         style="fill:#ffffff;fill-opacity:1" />
      <use
         xlink:href="#DejaVuSans-2e"
         x="63.623047"
         id="use14"
         style="fill:#ffffff;fill-opacity:1" />
      <use
         xlink:href="#DejaVuSans-34"
         x="95.410156"
         id="use15"
         style="fill:#ffffff;fill-opacity:1" />
      <use
         xlink:href="#DejaVuSans-30"
         x="159.0332"
         id="use16"
         style="fill:#ffffff;fill-opacity:1" />
    </g>
  </g>
  <g
     id="line2d_4"
     style="stroke:#ffffff;stroke-opacity:1;fill:none;fill-opacity:1">
    <g
       id="g17"
       style="stroke:#ffffff;stroke-opacity:1;fill:none;fill-opacity:1">
      <use
         xlink:href="#m64b0ff85d4"
         x="187.86041"
         y="307.58401"
         style="stroke:#ffffff;stroke-width:0.8;stroke-opacity:1;fill:none;fill-opacity:1"
         id="use17" />
    </g>
  </g>
  <g
     id="text_4"
     style="fill:#ffffff;fill-opacity:1">
    <!-- 5.45 -->
    <g
       transform="matrix(0.1,0,0,-0.1,176.7276,322.18244)"
       id="g21"
       style="fill:#ffffff;fill-opacity:1">
      <use
         xlink:href="#DejaVuSans-35"
         id="use18"
         style="fill:#ffffff;fill-opacity:1" />
      <use
         xlink:href="#DejaVuSans-2e"
         x="63.623047"
         id="use19"
         style="fill:#ffffff;fill-opacity:1" />
      <use
         xlink:href="#DejaVuSans-34"
         x="95.410156"
         id="use20"
         style="fill:#ffffff;fill-opacity:1" />
      <use
         xlink:href="#DejaVuSans-35"
         x="159.0332"
         id="use21"
         style="fill:#ffffff;fill-opacity:1" />
    </g>
  </g>
  <g
     id="line2d_5"
     style="stroke:#ffffff;stroke-opacity:1;fill:none;fill-opacity:1">
    <g
       id="g22"
       style="stroke:#ffffff;stroke-opacity:1;fill:none;fill-opacity:1">
      <use
         xlink:href="#m64b0ff85d4"
         x="228.54393"
         y="307.58401"
         style="stroke:#ffffff;stroke-width:0.8;stroke-opacity:1;fill:none;fill-opacity:1"
         id="use22" />
    </g>
  </g>
  <g
     id="text_5"
     style="fill:#ffffff;fill-opacity:1">
    <!-- 5.50 -->
    <g
       transform="matrix(0.1,0,0,-0.1,217.41112,322.18244)"
       id="g26"
       style="fill:#ffffff;fill-opacity:1">
      <use
         xlink:href="#DejaVuSans-35"
         id="use23"
         style="fill:#ffffff;fill-opacity:1" />
      <use
         xlink:href="#DejaVuSans-2e"
         x="63.623047"
         id="use24"
         style="fill:#ffffff;fill-opacity:1" />
      <use
         xlink:href="#DejaVuSans-35"
         x="95.410156"
         id="use25"
         style="fill:#ffffff;fill-opacity:1" />
      <use
         xlink:href="#DejaVuSans-30"
         x="159.0332"
         id="use26"
         style="fill:#ffffff;fill-opacity:1" />
    </g>
  </g>
  <g
     id="line2d_6"
     style="stroke:#ffffff;stroke-opacity:1;fill:none;fill-opacity:1">
    <g
       id="g27"
       style="stroke:#ffffff;stroke-opacity:1;fill:none;fill-opacity:1">
      <use
         xlink:href="#m64b0ff85d4"
         x="269.22748"
         y="307.58401"
         style="stroke:#ffffff;stroke-width:0.8;stroke-opacity:1;fill:none;fill-opacity:1"
         id="use27" />
    </g>
  </g>
  <g
     id="text_6"
     style="fill:#ffffff;fill-opacity:1">
    <!-- 5.55 -->
    <g
       transform="matrix(0.1,0,0,-0.1,258.09465,322.18244)"
       id="g31"
       style="fill:#ffffff;fill-opacity:1">
      <use
         xlink:href="#DejaVuSans-35"
         id="use28"
         style="fill:#ffffff;fill-opacity:1" />
      <use
         xlink:href="#DejaVuSans-2e"
         x="63.623047"
         id="use29"
         style="fill:#ffffff;fill-opacity:1" />
      <use
         xlink:href="#DejaVuSans-35"
         x="95.410156"
         id="use30"
         style="fill:#ffffff;fill-opacity:1" />
      <use
         xlink:href="#DejaVuSans-35"
         x="159.0332"
         id="use31"
         style="fill:#ffffff;fill-opacity:1" />
    </g>
  </g>
  <g
     id="line2d_7"
     style="stroke:#ffffff;stroke-opacity:1;fill:none;fill-opacity:1">
    <g
       id="g32"
       style="stroke:#ffffff;stroke-opacity:1;fill:none;fill-opacity:1">
      <use
         xlink:href="#m64b0ff85d4"
         x="309.91098"
         y="307.58401"
         style="stroke:#ffffff;stroke-width:0.8;stroke-opacity:1;fill:none;fill-opacity:1"
         id="use32" />
    </g>
  </g>
  <g
     id="text_7"
     style="fill:#ffffff;fill-opacity:1">
    <!-- 5.60 -->
    <g
       transform="matrix(0.1,0,0,-0.1,298.77818,322.18244)"
       id="g36"
       style="fill:#ffffff;fill-opacity:1">
      <defs
         id="defs32">
        <path
           id="DejaVuSans-36"
           d="m 2113,2584 q -425,0 -674,-291 -248,-290 -248,-796 0,-503 248,-796 249,-292 674,-292 425,0 673,292 248,293 248,796 0,506 -248,796 -248,291 -673,291 z m 1253,1979 v -575 q -238,112 -480,171 -242,60 -480,60 -625,0 -955,-422 -329,-422 -376,-1275 184,272 462,417 279,145 613,145 703,0 1111,-427 408,-426 408,-1160 0,-719 -425,-1154 -425,-434 -1131,-434 -810,0 -1238,620 -428,621 -428,1799 0,1106 525,1764 525,658 1409,658 238,0 480,-47 242,-47 505,-140 z"
           transform="scale(0.015625)" />
      </defs>
      <use
         xlink:href="#DejaVuSans-35"
         id="use33"
         style="fill:#ffffff;fill-opacity:1" />
      <use
         xlink:href="#DejaVuSans-2e"
         x="63.623047"
         id="use34"
         style="fill:#ffffff;fill-opacity:1" />
      <use
         xlink:href="#DejaVuSans-36"
         x="95.410156"
         id="use35"
         style="fill:#ffffff;fill-opacity:1" />
      <use
         xlink:href="#DejaVuSans-30"
         x="159.0332"
         id="use36"
         style="fill:#ffffff;fill-opacity:1" />
    </g>
  </g>
  <g
     id="line2d_8"
     style="stroke:#ffffff;stroke-opacity:1;fill:none;fill-opacity:1">
    <g
       id="g37"
       style="stroke:#ffffff;stroke-opacity:1;fill:none;fill-opacity:1">
      <use
         xlink:href="#m64b0ff85d4"
         x="350.59451"
         y="307.58401"
         style="stroke:#ffffff;stroke-width:0.8;stroke-opacity:1;fill:none;fill-opacity:1"
         id="use37" />
    </g>
  </g>
  <g
     id="text_8"
     style="fill:#ffffff;fill-opacity:1">
    <!-- 5.65 -->
    <g
       transform="matrix(0.1,0,0,-0.1,339.46171,322.18244)"
       id="g41"
       style="fill:#ffffff;fill-opacity:1">
      <use
         xlink:href="#DejaVuSans-35"
         id="use38"
         style="fill:#ffffff;fill-opacity:1" />
      <use
         xlink:href="#DejaVuSans-2e"
         x="63.623047"
         id="use39"
         style="fill:#ffffff;fill-opacity:1" />
      <use
         xlink:href="#DejaVuSans-36"
         x="95.410156"
         id="use40"
         style="fill:#ffffff;fill-opacity:1" />
      <use
         xlink:href="#DejaVuSans-35"
         x="159.0332"
         id="use41"
         style="fill:#ffffff;fill-opacity:1" />
    </g>
  </g>
  <g
     id="line2d_9"
     style="stroke:#ffffff;stroke-opacity:1;fill:none;fill-opacity:1">
    <g
       id="g42"
       style="stroke:#ffffff;stroke-opacity:1;fill:none;fill-opacity:1">
      <use
         xlink:href="#m64b0ff85d4"
         x="391.27805"
         y="307.58401"
         style="stroke:#ffffff;stroke-width:0.8;stroke-opacity:1;fill:none;fill-opacity:1"
         id="use42" />
    </g>
  </g>
  <g
     id="text_9"
     style="fill:#ffffff;fill-opacity:1">
    <!-- 5.70 -->
    <g
       transform="matrix(0.1,0,0,-0.1,380.14523,322.18244)"
       id="g46"
       style="fill:#ffffff;fill-opacity:1">
      <defs
         id="defs42">
        <path
           id="DejaVuSans-37"
           d="M 525,4666 H 3525 V 4397 L 1831,0 H 1172 L 2766,4134 H 525 Z"
           transform="scale(0.015625)" />
      </defs>
      <use
         xlink:href="#DejaVuSans-35"
         id="use43"
         style="fill:#ffffff;fill-opacity:1" />
      <use
         xlink:href="#DejaVuSans-2e"
         x="63.623047"
         id="use44"
         style="fill:#ffffff;fill-opacity:1" />
      <use
         xlink:href="#DejaVuSans-37"
         x="95.410156"
         id="use45"
         style="fill:#ffffff;fill-opacity:1" />
      <use
         xlink:href="#DejaVuSans-30"
         x="159.0332"
         id="use46"
         style="fill:#ffffff;fill-opacity:1" />
    </g>
  </g>
  <g
     transform="matrix(0.1,0,0,-0.1,194.34438,335.86056)"
     id="g62"
     style="fill:#ffffff;fill-opacity:1">
    <defs
       id="defs46">
      <path
         id="DejaVuSans-46"
         d="M 628,4666 H 3309 V 4134 H 1259 V 2759 H 3109 V 2228 H 1259 V 0 H 628 Z"
         transform="scale(0.015625)" />
      <path
         id="DejaVuSans-72"
         d="m 2631,2963 q -97,56 -211,82 -114,27 -251,27 -488,0 -749,-317 -261,-317 -261,-911 V 0 H 581 v 3500 h 578 v -544 q 182,319 472,473 291,155 707,155 59,0 131,-8 72,-7 159,-23 z"
         transform="scale(0.015625)" />
      <path
         id="DejaVuSans-65"
         d="M 3597,1894 V 1613 H 953 q 38,-594 358,-905 320,-311 892,-311 331,0 642,81 311,81 618,244 V 178 Q 3153,47 2828,-22 2503,-91 2169,-91 1331,-91 842,396 353,884 353,1716 q 0,859 464,1363 464,505 1252,505 706,0 1117,-455 411,-454 411,-1235 z m -575,169 q -6,471 -264,752 -258,282 -683,282 -481,0 -770,-272 -289,-272 -333,-766 z"
         transform="scale(0.015625)" />
      <path
         id="DejaVuSans-71"
         d="m 947,1747 q 0,-634 261,-995 261,-361 717,-361 456,0 718,361 263,361 263,995 0,634 -263,995 -262,361 -718,361 -456,0 -717,-361 Q 947,2381 947,1747 Z M 2906,525 Q 2725,213 2448,61 2172,-91 1784,-91 1150,-91 751,415 353,922 353,1747 q 0,825 398,1331 399,506 1033,506 388,0 664,-152 277,-151 458,-463 v 531 h 575 v -4831 h -575 z"
         transform="scale(0.015625)" />
      <path
         id="DejaVuSans-75"
         d="m 544,1381 v 2119 h 575 V 1403 q 0,-497 193,-746 194,-248 582,-248 465,0 735,297 271,297 271,810 v 1984 h 575 V 0 H 2900 V 538 Q 2691,219 2414,64 2138,-91 1772,-91 1169,-91 856,284 544,659 544,1381 Z m 1447,2203 z"
         transform="scale(0.015625)" />
      <path
         id="DejaVuSans-6e"
         d="M 3513,2113 V 0 h -575 v 2094 q 0,497 -194,743 -194,247 -581,247 -466,0 -735,-297 -269,-296 -269,-809 V 0 H 581 v 3500 h 578 v -544 q 207,316 486,472 280,156 646,156 603,0 912,-373 310,-373 310,-1098 z"
         transform="scale(0.015625)" />
      <path
         id="DejaVuSans-63"
         d="m 3122,3366 v -538 q -244,135 -489,202 -245,67 -495,67 -560,0 -870,-355 -309,-354 -309,-995 0,-641 309,-996 310,-354 870,-354 250,0 495,67 245,67 489,202 V 134 Q 2881,22 2623,-34 2366,-91 2075,-91 1284,-91 818,406 353,903 353,1747 q 0,856 470,1346 471,491 1290,491 265,0 518,-55 253,-54 491,-163 z"
         transform="scale(0.015625)" />
      <path
         id="DejaVuSans-69"
         d="m 603,3500 h 575 V 0 H 603 Z m 0,1363 h 575 V 4134 H 603 Z"
         transform="scale(0.015625)" />
      <path
         id="DejaVuSans-73"
         d="m 2834,3397 v -544 q -243,125 -506,187 -262,63 -544,63 -428,0 -642,-131 -214,-131 -214,-394 0,-200 153,-314 153,-114 616,-217 l 197,-44 q 612,-131 870,-370 258,-239 258,-667 0,-488 -386,-773 Q 2250,-91 1575,-91 1294,-91 989,-36 684,19 347,128 v 594 q 319,-166 628,-249 309,-82 613,-82 406,0 624,139 219,139 219,392 0,234 -158,359 -157,125 -692,241 l -200,47 q -534,112 -772,345 -237,233 -237,639 0,494 350,762 350,269 994,269 318,0 599,-47 282,-46 519,-140 z"
         transform="scale(0.015625)" />
      <path
         id="DejaVuSans-20"
         transform="scale(0.015625)"
         d="" />
      <path
         id="DejaVuSans-5b"
         d="M 550,4863 H 1875 V 4416 H 1125 V -397 h 750 V -844 H 550 Z"
         transform="scale(0.015625)" />
      <path
         id="DejaVuSans-48"
         d="m 628,4666 h 631 V 2753 h 2294 v 1913 h 631 V 0 H 3553 V 2222 H 1259 V 0 H 628 Z"
         transform="scale(0.015625)" />
      <path
         id="DejaVuSans-7a"
         d="M 353,3500 H 3084 V 2975 L 922,459 H 3084 V 0 H 275 V 525 L 2438,3041 H 353 Z"
         transform="scale(0.015625)" />
      <path
         id="DejaVuSans-5d"
         d="M 1947,4863 V -844 H 622 v 447 h 747 V 4416 H 622 v 447 z"
         transform="scale(0.015625)" />
    </defs>
    <use
       xlink:href="#DejaVuSans-46"
       id="use47"
       style="fill:#ffffff;fill-opacity:1" />
    <use
       xlink:href="#DejaVuSans-72"
       x="50.269531"
       id="use48"
       style="fill:#ffffff;fill-opacity:1" />
    <use
       xlink:href="#DejaVuSans-65"
       x="89.132812"
       id="use49"
       style="fill:#ffffff;fill-opacity:1" />
    <use
       xlink:href="#DejaVuSans-71"
       x="150.65625"
       id="use50"
       style="fill:#ffffff;fill-opacity:1" />
    <use
       xlink:href="#DejaVuSans-75"
       x="214.13281"
       id="use51"
       style="fill:#ffffff;fill-opacity:1" />
    <use
       xlink:href="#DejaVuSans-65"
       x="277.51172"
       id="use52"
       style="fill:#ffffff;fill-opacity:1" />
    <use
       xlink:href="#DejaVuSans-6e"
       x="339.03516"
       id="use53"
       style="fill:#ffffff;fill-opacity:1" />
    <use
       xlink:href="#DejaVuSans-63"
       x="402.41406"
       id="use54"
       style="fill:#ffffff;fill-opacity:1" />
    <use
       xlink:href="#DejaVuSans-69"
       x="457.39453"
       id="use55"
       style="fill:#ffffff;fill-opacity:1" />
    <use
       xlink:href="#DejaVuSans-65"
       x="485.17773"
       id="use56"
       style="fill:#ffffff;fill-opacity:1" />
    <use
       xlink:href="#DejaVuSans-73"
       x="546.70117"
       id="use57"
       style="fill:#ffffff;fill-opacity:1" />
    <use
       xlink:href="#DejaVuSans-20"
       x="598.80078"
       id="use58"
       style="fill:#ffffff;fill-opacity:1" />
    <use
       xlink:href="#DejaVuSans-5b"
       x="630.58789"
       id="use59"
       style="fill:#ffffff;fill-opacity:1" />
    <use
       xlink:href="#DejaVuSans-48"
       x="669.60156"
       id="use60"
       style="fill:#ffffff;fill-opacity:1" />
    <use
       xlink:href="#DejaVuSans-7a"
       x="744.79688"
       id="use61"
       style="fill:#ffffff;fill-opacity:1" />
    <use
       xlink:href="#DejaVuSans-5d"
       x="797.28711"
       id="use62"
       style="fill:#ffffff;fill-opacity:1" />
  </g>
  <g
     transform="matrix(0.1,0,0,-0.1,395.84188,334.86056)"
     id="g65"
     style="fill:#ffffff;fill-opacity:1">
    <defs
       id="defs62">
      <path
         id="DejaVuSans-31"
         d="M 794,531 H 1825 V 4091 L 703,3866 v 575 l 1116,225 h 631 V 531 H 3481 V 0 H 794 Z"
         transform="scale(0.015625)" />
      <path
         id="DejaVuSans-39"
         d="m 703,97 v 575 q 238,-113 481,-172 244,-59 479,-59 625,0 954,420 330,420 377,1277 -181,-269 -460,-413 -278,-144 -615,-144 -700,0 -1108,423 -408,424 -408,1159 0,718 425,1152 425,435 1131,435 810,0 1236,-621 427,-620 427,-1801 Q 3622,1225 3098,567 2575,-91 1691,-91 1453,-91 1209,-44 966,3 703,97 Z m 1256,1978 q 425,0 673,290 249,291 249,798 0,503 -249,795 -248,292 -673,292 -425,0 -673,-292 -248,-292 -248,-795 0,-507 248,-798 248,-290 673,-290 z"
         transform="scale(0.015625)" />
    </defs>
    <use
       xlink:href="#DejaVuSans-31"
       id="use63"
       style="fill:#ffffff;fill-opacity:1" />
    <use
       xlink:href="#DejaVuSans-65"
       x="63.623047"
       id="use64"
       style="fill:#ffffff;fill-opacity:1" />
    <use
       xlink:href="#DejaVuSans-39"
       x="125.14648"
       id="use65"
       style="fill:#ffffff;fill-opacity:1" />
  </g>
  <g
     id="line2d_10"
     style="stroke:#ffffff;stroke-opacity:1;fill:#ffffff;fill-opacity:1">
    <defs
       id="defs65"
       style="stroke:url(#linearGradient7);fill:url(#linearGradient2)">
      <path
         id="me39d21f9e8"
         d="M 0,0 H -3.5"
         style="stroke:url(#linearGradient7);stroke-width:0.8;fill:url(#linearGradient2)" />
    </defs>
    <g
       id="g66"
       style="stroke:#ffffff;stroke-opacity:1;fill:#ffffff;fill-opacity:1">
      <use
         xlink:href="#me39d21f9e8"
         x="57.599998"
         y="279.20026"
         style="stroke:#ffffff;stroke-width:0.8;stroke-opacity:1;fill:#ffffff;fill-opacity:1"
         id="use66" />
    </g>
  </g>
  <g
     id="text_12"
     style="fill:#ffffff;fill-opacity:1">
    <!-- 0.8 -->
    <g
       transform="matrix(0.1,0,0,-0.1,34.696875,282.99948)"
       id="g69"
       style="fill:#ffffff;fill-opacity:1">
      <defs
         id="defs66">
        <path
           id="DejaVuSans-38"
           d="m 2034,2216 q -450,0 -708,-241 -257,-241 -257,-662 0,-422 257,-663 258,-241 708,-241 450,0 709,242 260,243 260,662 0,421 -258,662 -257,241 -711,241 z m -631,268 q -406,100 -633,378 -226,279 -226,679 0,559 398,884 399,325 1092,325 697,0 1094,-325 397,-325 397,-884 0,-400 -227,-679 -226,-278 -629,-378 456,-106 710,-416 255,-309 255,-755 Q 3634,634 3220,271 2806,-91 2034,-91 1263,-91 848,271 434,634 434,1313 q 0,446 256,755 257,310 713,416 z m -231,997 q 0,-362 226,-565 227,-203 636,-203 407,0 636,203 230,203 230,565 0,363 -230,566 -229,203 -636,203 -409,0 -636,-203 -226,-203 -226,-566 z"
           transform="scale(0.015625)" />
      </defs>
      <use
         xlink:href="#DejaVuSans-30"
         id="use67"
         style="fill:#ffffff;fill-opacity:1" />
      <use
         xlink:href="#DejaVuSans-2e"
         x="63.623047"
         id="use68"
         style="fill:#ffffff;fill-opacity:1" />
      <use
         xlink:href="#DejaVuSans-38"
         x="95.410156"
         id="use69"
         style="fill:#ffffff;fill-opacity:1" />
    </g>
  </g>
  <g
     id="line2d_11"
     style="stroke:#ffffff;stroke-opacity:1;fill:#ffffff;fill-opacity:1">
    <g
       id="g70"
       style="stroke:#ffffff;stroke-opacity:1;fill:#ffffff;fill-opacity:1">
      <use
         xlink:href="#me39d21f9e8"
         x="57.599998"
         y="226.18298"
         style="stroke:#ffffff;stroke-width:0.8;stroke-opacity:1;fill:#ffffff;fill-opacity:1"
         id="use70" />
    </g>
  </g>
  <g
     id="text_13"
     style="fill:#ffffff;fill-opacity:1">
    <!-- 1.0 -->
    <g
       transform="matrix(0.1,0,0,-0.1,34.696875,229.98221)"
       id="g73"
       style="fill:#ffffff;fill-opacity:1">
      <use
         xlink:href="#DejaVuSans-31"
         id="use71"
         style="fill:#ffffff;fill-opacity:1" />
      <use
         xlink:href="#DejaVuSans-2e"
         x="63.623047"
         id="use72"
         style="fill:#ffffff;fill-opacity:1" />
      <use
         xlink:href="#DejaVuSans-30"
         x="95.410156"
         id="use73"
         style="fill:#ffffff;fill-opacity:1" />
    </g>
  </g>
  <g
     id="line2d_12"
     style="stroke:#ffffff;stroke-opacity:1;fill:#ffffff;fill-opacity:1">
    <g
       id="g74"
       style="stroke:#ffffff;stroke-opacity:1;fill:#ffffff;fill-opacity:1">
      <use
         xlink:href="#me39d21f9e8"
         x="57.599998"
         y="173.16573"
         style="stroke:#ffffff;stroke-width:0.8;stroke-opacity:1;fill:#ffffff;fill-opacity:1"
         id="use74" />
    </g>
  </g>
  <g
     id="text_14"
     style="fill:#ffffff;fill-opacity:1">
    <!-- 1.2 -->
    <g
       transform="matrix(0.1,0,0,-0.1,34.696875,176.96494)"
       id="g77"
       style="fill:#ffffff;fill-opacity:1">
      <defs
         id="defs74">
        <path
           id="DejaVuSans-32"
           d="M 1228,531 H 3431 V 0 H 469 v 531 q 359,372 979,998 621,627 780,809 303,340 423,576 121,236 121,464 0,372 -261,606 -261,235 -680,235 -297,0 -627,-103 -329,-103 -704,-313 v 638 q 381,153 712,231 332,78 607,78 725,0 1156,-363 431,-362 431,-968 0,-288 -108,-546 -107,-257 -392,-607 -78,-91 -497,-524 Q 1991,1309 1228,531 Z"
           transform="scale(0.015625)" />
      </defs>
      <use
         xlink:href="#DejaVuSans-31"
         id="use75"
         style="fill:#ffffff;fill-opacity:1" />
      <use
         xlink:href="#DejaVuSans-2e"
         x="63.623047"
         id="use76"
         style="fill:#ffffff;fill-opacity:1" />
      <use
         xlink:href="#DejaVuSans-32"
         x="95.410156"
         id="use77"
         style="fill:#ffffff;fill-opacity:1" />
    </g>
  </g>
  <g
     id="line2d_13"
     style="stroke:#ffffff;stroke-opacity:1;fill:#ffffff;fill-opacity:1">
    <g
       id="g78"
       style="stroke:#ffffff;stroke-opacity:1;fill:#ffffff;fill-opacity:1">
      <use
         xlink:href="#me39d21f9e8"
         x="57.599998"
         y="120.14846"
         style="stroke:#ffffff;stroke-width:0.8;stroke-opacity:1;fill:#ffffff;fill-opacity:1"
         id="use78" />
    </g>
  </g>
  <g
     id="text_15"
     style="fill:#ffffff;fill-opacity:1">
    <!-- 1.4 -->
    <g
       transform="matrix(0.1,0,0,-0.1,34.696875,123.94768)"
       id="g81"
       style="fill:#ffffff;fill-opacity:1">
      <use
         xlink:href="#DejaVuSans-31"
         id="use79"
         style="fill:#ffffff;fill-opacity:1" />
      <use
         xlink:href="#DejaVuSans-2e"
         x="63.623047"
         id="use80"
         style="fill:#ffffff;fill-opacity:1" />
      <use
         xlink:href="#DejaVuSans-34"
         x="95.410156"
         id="use81"
         style="fill:#ffffff;fill-opacity:1" />
    </g>
  </g>
  <g
     id="line2d_14"
     style="stroke:#ffffff;stroke-opacity:1;fill:#ffffff;fill-opacity:1">
    <g
       id="g82"
       style="stroke:#ffffff;stroke-opacity:1;fill:#ffffff;fill-opacity:1">
      <use
         xlink:href="#me39d21f9e8"
         x="57.599998"
         y="67.131195"
         style="stroke:#ffffff;stroke-width:0.8;stroke-opacity:1;fill:#ffffff;fill-opacity:1"
         id="use82" />
    </g>
  </g>
  <g
     id="text_16"
     style="fill:#ffffff;fill-opacity:1">
    <!-- 1.6 -->
    <g
       transform="matrix(0.1,0,0,-0.1,34.696875,70.930411)"
       id="g85"
       style="fill:#ffffff;fill-opacity:1">
      <use
         xlink:href="#DejaVuSans-31"
         id="use83"
         style="fill:#ffffff;fill-opacity:1" />
      <use
         xlink:href="#DejaVuSans-2e"
         x="63.623047"
         id="use84"
         style="fill:#ffffff;fill-opacity:1" />
      <use
         xlink:href="#DejaVuSans-36"
         x="95.410156"
         id="use85"
         style="fill:#ffffff;fill-opacity:1" />
    </g>
  </g>
  <g
     transform="matrix(0,-0.1,-0.1,0,28.617187,217.65691)"
     id="g102"
     style="fill:#ffffff;fill-opacity:1">
    <defs
       id="defs85">
      <path
         id="DejaVuSans-41"
         d="M 2188,4044 1331,1722 h 1716 z m -357,622 h 716 L 4325,0 H 3669 L 3244,1197 H 1141 L 716,0 H 50 Z"
         transform="scale(0.015625)" />
      <path
         id="DejaVuSans-6d"
         d="m 3328,2828 q 216,388 516,572 300,184 706,184 547,0 844,-383 297,-382 297,-1088 V 0 h -578 v 2094 q 0,503 -179,746 -178,244 -543,244 -447,0 -707,-297 -259,-296 -259,-809 V 0 h -578 v 2094 q 0,506 -178,748 -178,242 -550,242 -441,0 -701,-298 -259,-298 -259,-808 V 0 H 581 v 3500 h 578 v -544 q 197,322 472,475 275,153 653,153 382,0 649,-194 267,-193 395,-562 z"
         transform="scale(0.015625)" />
      <path
         id="DejaVuSans-70"
         d="M 1159,525 V -1331 H 581 v 4831 h 578 v -531 q 182,312 458,463 277,152 661,152 638,0 1036,-506 399,-506 399,-1331 0,-825 -399,-1332 -398,-506 -1036,-506 -384,0 -661,152 -276,152 -458,464 z m 1957,1222 q 0,634 -261,995 -261,361 -717,361 -457,0 -718,-361 -261,-361 -261,-995 0,-634 261,-995 261,-361 718,-361 456,0 717,361 261,361 261,995 z"
         transform="scale(0.015625)" />
      <path
         id="DejaVuSans-6c"
         d="m 603,4863 h 575 V 0 H 603 Z"
         transform="scale(0.015625)" />
      <path
         id="DejaVuSans-74"
         d="M 1172,4494 V 3500 H 2356 V 3053 H 1172 V 1153 q 0,-428 117,-550 117,-122 477,-122 h 590 V 0 H 1766 Q 1100,0 847,248 594,497 594,1153 V 3053 H 172 v 447 h 422 v 994 z"
         transform="scale(0.015625)" />
      <path
         id="DejaVuSans-64"
         d="m 2906,2969 v 1894 h 575 V 0 H 2906 V 525 Q 2725,213 2448,61 2172,-91 1784,-91 1150,-91 751,415 353,922 353,1747 q 0,825 398,1331 399,506 1033,506 388,0 664,-152 277,-151 458,-463 z M 947,1747 q 0,-634 261,-995 261,-361 717,-361 456,0 718,361 263,361 263,995 0,634 -263,995 -262,361 -718,361 -456,0 -717,-361 -261,-361 -261,-995 z"
         transform="scale(0.015625)" />
      <path
         id="DejaVuSans-61"
         d="m 2194,1759 q -697,0 -966,-159 -269,-159 -269,-544 0,-306 202,-486 202,-179 548,-179 479,0 768,339 289,339 289,901 v 128 z m 1147,238 V 0 H 2766 V 531 Q 2569,213 2275,61 1981,-91 1556,-91 q -537,0 -855,302 -317,302 -317,808 0,590 395,890 396,300 1180,300 h 807 v 57 q 0,397 -261,614 -261,217 -733,217 -300,0 -585,-72 -284,-72 -546,-216 v 532 q 315,122 612,182 297,61 578,61 760,0 1135,-394 375,-393 375,-1193 z"
         transform="scale(0.015625)" />
    </defs>
    <use
       xlink:href="#DejaVuSans-41"
       id="use86"
       style="fill:#ffffff;fill-opacity:1" />
    <use
       xlink:href="#DejaVuSans-6d"
       x="68.408203"
       id="use87"
       style="fill:#ffffff;fill-opacity:1" />
    <use
       xlink:href="#DejaVuSans-70"
       x="165.82031"
       id="use88"
       style="fill:#ffffff;fill-opacity:1" />
    <use
       xlink:href="#DejaVuSans-6c"
       x="229.29688"
       id="use89"
       style="fill:#ffffff;fill-opacity:1" />
    <use
       xlink:href="#DejaVuSans-69"
       x="257.08008"
       id="use90"
       style="fill:#ffffff;fill-opacity:1" />
    <use
       xlink:href="#DejaVuSans-74"
       x="284.86328"
       id="use91"
       style="fill:#ffffff;fill-opacity:1" />
    <use
       xlink:href="#DejaVuSans-75"
       x="324.07227"
       id="use92"
       style="fill:#ffffff;fill-opacity:1" />
    <use
       xlink:href="#DejaVuSans-64"
       x="387.45117"
       id="use93"
       style="fill:#ffffff;fill-opacity:1" />
    <use
       xlink:href="#DejaVuSans-65"
       x="450.92773"
       id="use94"
       style="fill:#ffffff;fill-opacity:1" />
    <use
       xlink:href="#DejaVuSans-73"
       x="512.45117"
       id="use95"
       style="fill:#ffffff;fill-opacity:1" />
    <use
       xlink:href="#DejaVuSans-20"
       x="564.55078"
       id="use96"
       style="fill:#ffffff;fill-opacity:1" />
    <use
       xlink:href="#DejaVuSans-5b"
       x="596.33789"
       id="use97"
       style="fill:#ffffff;fill-opacity:1" />
    <use
       xlink:href="#DejaVuSans-61"
       x="635.35156"
       id="use98"
       style="fill:#ffffff;fill-opacity:1" />
    <use
       xlink:href="#DejaVuSans-2e"
       x="696.63086"
       id="use99"
       style="fill:#ffffff;fill-opacity:1" />
    <use
       xlink:href="#DejaVuSans-75"
       x="728.41797"
       id="use100"
       style="fill:#ffffff;fill-opacity:1" />
    <use
       xlink:href="#DejaVuSans-2e"
       x="791.79688"
       id="use101"
       style="fill:#ffffff;fill-opacity:1" />
    <use
       xlink:href="#DejaVuSans-5d"
       x="823.58398"
       id="use102"
       style="fill:#ffffff;fill-opacity:1" />
  </g>
  <path
     d="m 73.832727,72.01877 0.813671,-2.695763 0.81367,-4.571228 0.813671,-5.900005 0.81367,9.447529 0.813671,-4.361166 0.813671,-0.54271 0.81367,0.2034 0.813671,-2.261196 0.81367,-0.100131 0.813671,0.274757 0.81367,6.069856 0.813671,-3.851747 0.81367,2.464412 0.813671,-6.721014 0.81367,0.94171 0.813671,1.219091 0.81367,6.691971 0.813671,-0.601696 0.813671,0.04471 0.81367,-0.327908 0.813671,5.275781 0.81367,-0.808133 0.813671,-2.761032 0.81367,-7.308613 0.813671,3.575729 0.81367,0.04369 0.813671,-4.679548 0.81367,4.096489 0.813671,2.123592 0.81367,-6.576456 0.813671,5.093896 0.813671,-2.089456 0.813665,1.3049 0.81368,-0.606659 0.81367,-2.537171 0.81367,4.367828 0.81367,-1.07577 0.81367,-7.433817 0.81367,8.626984 0.81367,-1.591616 0.81367,0.829022 0.81367,-4.377842 0.81367,0.384459 0.81367,-0.240221 0.81367,12.404576 0.81367,-12.25167 0.81367,4.00623 0.81367,-3.99558 0.81367,4.884207 0.81367,-0.266815 0.81368,-1.085432 0.81367,-3.16702 0.81367,3.686922 0.81367,-3.445189 0.81367,2.300361 0.81367,1.952471 0.81367,3.69066 0.81367,-6.617374 0.81367,-0.189323 0.81367,-1.596495 0.81367,-2.197754 0.81367,5.52743 0.81367,1.082929 0.81367,-2.455303 0.81367,4.371453 0.81367,-4.824713 0.81367,4.486802 0.81367,-4.397665 0.81367,2.383769 0.81368,-5.567143 1.62734,6.17426 0.81367,0.857092 0.81367,-1.779863 0.81367,-1.069676 0.81367,8.708148 0.81367,-8.587372 0.81367,0.285859 0.81367,5.223281 0.81367,-7.315358 0.81367,3.643409 1.62734,-3.769099 0.81367,6.679653 1.62734,-5.997517 0.81367,0.784314 0.81367,-4.448804 0.81367,2.144203 0.81368,6.66404 0.81367,1.533504 0.81367,-4.912644 0.81367,4.708106 0.81367,-5.888132 0.81367,-2.584071 0.81367,5.549692 0.81367,0.327971 0.81367,0.827261 0.81367,2.526731 0.81367,-4.346519 0.81367,-0.851836 1.62734,4.128193 0.81367,-10.8236 0.81367,1.263059 0.81367,5.861856 0.81367,0.904898 0.81368,-0.912293 0.81367,-3.108217 0.81367,5.5244 0.81367,-3.690267 0.81367,-1.281322 0.81367,-0.229756 0.81367,2.424769 0.81367,-4.163786 0.81367,-0.492286 0.81367,5.378579 0.81367,0.865807 0.81367,-2.00774 0.81367,-0.351091 0.81367,-4.637544 0.81367,2.944557 0.81367,-2.680266 0.81367,8.308285 0.81368,-2.600698 0.81366,2.55136 0.81368,-14.493538 0.81367,12.726393 0.81367,-2.273955 0.81367,1.777552 0.81367,-1.586921 0.81367,1.791886 0.81367,5.151393 0.81367,-3.461792 0.81367,-2.479083 0.81367,1.230265 0.81367,-2.652413 0.81367,-0.941245 0.81367,4.987962 0.81367,-6.575888 0.81367,2.242826 0.81367,2.579454 0.81367,-5.133916 0.81367,-2.880317 0.81368,0.180787 0.81367,6.924061 0.81367,-2.43082 0.81367,6.460333 0.81367,-2.15094 0.81367,-4.831234 0.81367,4.32314 0.81367,0.79418 0.81367,4.848443 0.81367,-8.928063 0.81367,6.621084 0.81367,-1.272096 0.81367,-3.839075 0.81367,2.10345 0.81367,-0.479333 0.81367,4.372337 0.81367,-1.707373 0.81367,-0.312025 0.81367,5.232704 0.81368,-6.320562 0.81367,-4.315683 0.81367,-3.304074 0.81367,6.683164 0.81367,3.309461 0.81367,-7.916873 0.81367,2.107947 0.81367,-1.932273 0.81367,-2.851452 0.81367,6.505006 0.81367,5.155394 0.81367,-8.809717 0.81367,1.009387 0.81367,7.596214 0.81367,-13.047195 0.81367,5.51611 0.81367,0.409013 0.81367,2.379083 0.81368,1.999838 0.81367,-3.460449 0.81367,3.73751 0.81367,-3.752474 0.81367,-0.649565 0.81367,-3.380858 1.62734,1.589947 0.81367,5.692401 0.81367,-0.03939 0.81367,1.173678 0.81367,1.878533 0.81367,0.263948 0.81367,5.787015 0.81367,1.32173 0.81367,2.767608 0.81367,15.230274 0.81367,8.843869 0.81367,190.33167 0.81368,-69.62231 1.62734,-73.30386 1.62734,-34.03712 0.81367,-9.76942 1.62734,-21.816984 0.81367,-0.06898 0.81367,-11.995323 0.81367,-0.497718 0.81367,1.267824 0.81367,-2.753411 0.81367,-4.737014 0.81367,3.028703 0.81367,-6.204082 0.81367,6.474504 0.81367,3.299089 0.81368,-1.961335 0.81367,6.075699 0.81367,-8.581024 0.81367,0.70744 0.81367,-3.273995 0.81367,-0.552032 0.81367,0.292626 0.81367,2.049272 0.81367,0.104308 0.81367,-7.521214 0.81367,4.301885 0.81367,2.584518 0.81367,-3.389777 0.81367,-4.080868 0.81367,6.05719 0.81367,0.46991 0.81367,-3.772462 0.81367,-2.762613 0.81367,9.051225 0.81368,0.84103 0.81367,-8.901568 0.81367,-1.579197 0.81367,-0.231708 0.81367,0.729576 0.81367,5.960799 0.81367,-3.089243 0.81367,1.408057 0.81367,3.298846 0.81367,-4.125029 0.81367,0.300553 0.81367,-5.579641 0.81367,0.720727 0.81367,-0.01209 0.81367,-0.769832 0.81367,5.927071 0.81367,-4.523377 0.81367,0.760339 0.81368,3.743986 0.81367,-4.986586 0.81367,3.156864 0.81367,-2.002382 0.81367,5.945154 0.81367,-2.680239 0.81367,2.378943 0.81367,4.348654 0.81367,-2.060298 0.81367,-0.785757 0.81367,0.417118 0.81367,-1.013472 0.81367,-0.448033 0.81367,-7.051561 0.81367,6.55634 0.81367,-12.236568 0.81367,6.161941 0.81367,2.033735 0.81367,1.54624 0.81368,-5.072577 0.81367,2.210698 0.81367,-6.316436 0.81367,8.467874 0.81367,3.46061 0.81367,1.042648 0.81367,-5.443706 0.81367,2.641268 0.81367,-1.898206 0.81367,2.500121 0.81367,-4.562385 0.81367,3.027081 0.81367,0.407676 0.81367,-3.165679 0.81367,4.804403 0.81367,-5.932315 0.81367,2.195862 0.81368,0.223399 0.81367,2.817934 0.81367,-0.315396 0.81367,-4.388533 0.81367,7.011268 0.81367,-3.647704 0.81367,2.469513 0.81367,4.533071 0.81367,-9.612222 0.81367,1.904332 0.81367,5.108143 0.81367,-0.881721 0.81367,-3.706217 0.81367,-5.697259 0.81367,2.238631 0.81367,5.148176 0.81367,-4.334059 0.81367,1.2301 0.81368,5.69742 0.81367,-8.736745 0.81367,1.796827 0.81367,-1.677953 0.81367,4.81707 0.81367,2.635012 0.81367,-3.090577 0.81367,-1.478626 0.81367,5.195286 0.81367,-7.729512 0.81367,6.58131 0.81367,-8.909283 0.81367,11.763143 0.81367,-2.015668 0.81367,1.540829 0.81367,-3.721086 0.81367,-0.802662 0.81367,1.361994 0.81367,-4.876604 0.81367,-0.571158 0.81367,1.457667 0.81368,0.408879 0.81367,-1.125972 0.81367,2.284689 0.81367,0.232518 0.81367,-3.616325 0.81367,4.460816 0.81367,-4.757801 0.81367,-0.480499 0.81367,1.103251 0.81367,5.112449 0.81367,-1.044987 0.81367,-3.312794 0.81367,8.548717 0.81367,-5.971241 0.81367,-0.627628 0.81367,-1.884605 0.81367,6.472773 0.81367,-3.031948 0.81368,8.737166 1.62734,-7.75355 0.81367,4.36218 0.81367,-4.046557 0.81367,-2.547986 0.81367,5.789028 0.81367,0.432474 0.81367,-9.006038 0.81367,-1.542573 0.81367,4.543043 0.81367,5.227251 0.81367,-5.962888 0.81367,2.398008 0.81367,3.908701 0.81367,-6.11553 0.81367,-1.7116 0.81367,0.178008 0.81367,-2.361003 0.81368,0.532798 0.81367,-1.680614 0.81367,5.115874 0.81367,0.725881 0.81367,1.820395 0.81367,4.779101 0.81367,-9.601737 0.81367,2.013132 0.81367,3.577087 0.81367,-0.355952 0.81367,0.260462 0.81367,-3.574352 0.81367,-0.846739 0.81367,-0.129498 0.81367,1.017762 0.81367,4.739925 0.81367,-4.013101 0.81367,-2.513815 0.81368,5.784354 0.81367,-0.245212 0.81367,-7.240017 0.81367,0.587717 0.81367,6.137794 0.81367,2.947452 0.81367,-6.463909 0.81367,4.034143 0.81367,-2.825747 0.81367,1.293217 0.81367,2.27203 0.81367,-5.112676 0.81367,3.242507 0.81367,-3.010418 v 0"
     clip-path="url(#p7da280b547)"
     style="fill:none;stroke:#12c12f;stroke-width:1.5;stroke-linecap:square;stroke-opacity:1"
     id="path102" />
  <g
     id="patch_3"
     style="stroke:#ffffff;stroke-opacity:1"
     sodipodi:insensitive="true">
    <path
       d="M 57.6,307.584 V 41.472"
       style="fill:none;stroke:#ffffff;stroke-width:0.8;stroke-linecap:square;stroke-linejoin:miter;stroke-opacity:1"
       id="path103" />
  </g>
  <g
     id="patch_4"
     style="stroke:#ffffff;stroke-opacity:1">
    <path
       d="M 414.72,307.584 V 41.472"
       style="fill:none;stroke:#ffffff;stroke-width:0.8;stroke-linecap:square;stroke-linejoin:miter;stroke-opacity:1"
       id="path104" />
  </g>
  <g
     id="patch_5"
     style="stroke:#ffffff;stroke-opacity:1"
     sodipodi:insensitive="true">
    <path
       d="M 57.6,307.584 H 414.72"
       style="fill:none;stroke:#ffffff;stroke-width:0.8;stroke-linecap:square;stroke-linejoin:miter;stroke-opacity:1"
       id="path105" />
  </g>
  <g
     id="patch_6"
     style="stroke:#ffffff;stroke-opacity:1">
    <path
       d="M 57.6,41.472 H 414.72"
       style="fill:none;stroke:#ffffff;stroke-width:0.8;stroke-linecap:square;stroke-linejoin:miter;stroke-opacity:1"
       id="path106" />
  </g>
  <g
     id="text_18"
     style="fill:#ffffff;fill-opacity:1">
    <!-- Qubit Spectroscopy -->
    <g
       transform="matrix(0.12,0,0,-0.12,177.47906,35.472)"
       id="g123"
       style="fill:#ffffff;fill-opacity:1">
      <defs
         id="defs106">
        <path
           id="DejaVuSans-51"
           d="m 2522,4238 q -688,0 -1093,-513 -404,-512 -404,-1397 0,-881 404,-1394 405,-512 1093,-512 687,0 1089,512 402,513 402,1394 0,885 -402,1397 -402,513 -1089,513 z M 3406,84 4238,-825 h -763 l -691,747 q -103,-6 -158,-9 -54,-4 -104,-4 -984,0 -1574,658 -589,658 -589,1761 0,1106 589,1764 590,658 1574,658 981,0 1568,-658 588,-658 588,-1764 0,-812 -327,-1391 Q 4025,359 3406,84 Z"
           transform="scale(0.015625)" />
        <path
           id="DejaVuSans-62"
           d="m 3116,1747 q 0,634 -261,995 -261,361 -717,361 -457,0 -718,-361 -261,-361 -261,-995 0,-634 261,-995 261,-361 718,-361 456,0 717,361 261,361 261,995 z M 1159,2969 q 182,312 458,463 277,152 661,152 638,0 1036,-506 399,-506 399,-1331 Q 3713,922 3314,415 2916,-91 2278,-91 1894,-91 1617,61 1341,213 1159,525 V 0 H 581 v 4863 h 578 z"
           transform="scale(0.015625)" />
        <path
           id="DejaVuSans-53"
           d="m 3425,4513 v -616 q -359,172 -678,256 -319,85 -616,85 -515,0 -795,-200 -280,-200 -280,-569 0,-310 186,-468 186,-157 705,-254 l 381,-78 q 706,-135 1042,-474 336,-339 336,-907 0,-679 -455,-1029 -454,-350 -1332,-350 -331,0 -705,75 -373,75 -773,222 v 650 q 384,-215 753,-325 369,-109 725,-109 540,0 834,212 294,213 294,607 0,343 -211,537 -211,194 -692,291 l -385,75 q -706,140 -1022,440 -315,300 -315,835 0,619 436,975 436,356 1201,356 329,0 669,-60 341,-59 697,-177 z"
           transform="scale(0.015625)" />
        <path
           id="DejaVuSans-6f"
           d="m 1959,3097 q -462,0 -731,-361 -269,-361 -269,-989 0,-628 267,-989 268,-361 733,-361 460,0 728,362 269,363 269,988 0,622 -269,986 -268,364 -728,364 z m 0,487 q 750,0 1178,-488 429,-487 429,-1349 Q 3566,888 3137,398 2709,-91 1959,-91 1206,-91 779,398 353,888 353,1747 q 0,862 426,1349 427,488 1180,488 z"
           transform="scale(0.015625)" />
        <path
           id="DejaVuSans-79"
           d="m 2059,-325 q -243,-625 -475,-815 -231,-191 -618,-191 H 506 v 481 h 338 q 237,0 368,113 132,112 291,531 L 1606,56 191,3500 H 800 L 1894,763 2988,3500 h 609 z"
           transform="scale(0.015625)" />
      </defs>
      <use
         xlink:href="#DejaVuSans-51"
         id="use106"
         style="fill:#ffffff;fill-opacity:1" />
      <use
         xlink:href="#DejaVuSans-75"
         x="78.710938"
         id="use107"
         style="fill:#ffffff;fill-opacity:1" />
      <use
         xlink:href="#DejaVuSans-62"
         x="142.08984"
         id="use108"
         style="fill:#ffffff;fill-opacity:1" />
      <use
         xlink:href="#DejaVuSans-69"
         x="205.56641"
         id="use109"
         style="fill:#ffffff;fill-opacity:1" />
      <use
         xlink:href="#DejaVuSans-74"
         x="233.34961"
         id="use110"
         style="fill:#ffffff;fill-opacity:1" />
      <use
         xlink:href="#DejaVuSans-20"
         x="272.55859"
         id="use111"
         style="fill:#ffffff;fill-opacity:1" />
      <use
         xlink:href="#DejaVuSans-53"
         x="304.3457"
         id="use112"
         style="fill:#ffffff;fill-opacity:1" />
      <use
         xlink:href="#DejaVuSans-70"
         x="367.82227"
         id="use113"
         style="fill:#ffffff;fill-opacity:1" />
      <use
         xlink:href="#DejaVuSans-65"
         x="431.29883"
         id="use114"
         style="fill:#ffffff;fill-opacity:1" />
      <use
         xlink:href="#DejaVuSans-63"
         x="492.82227"
         id="use115"
         style="fill:#ffffff;fill-opacity:1" />
      <use
         xlink:href="#DejaVuSans-74"
         x="547.80273"
         id="use116"
         style="fill:#ffffff;fill-opacity:1" />
      <use
         xlink:href="#DejaVuSans-72"
         x="587.01172"
         id="use117"
         style="fill:#ffffff;fill-opacity:1" />
      <use
         xlink:href="#DejaVuSans-6f"
         x="625.875"
         id="use118"
         style="fill:#ffffff;fill-opacity:1" />
      <use
         xlink:href="#DejaVuSans-73"
         x="687.05664"
         id="use119"
         style="fill:#ffffff;fill-opacity:1" />
      <use
         xlink:href="#DejaVuSans-63"
         x="739.15625"
         id="use120"
         style="fill:#ffffff;fill-opacity:1" />
      <use
         xlink:href="#DejaVuSans-6f"
         x="794.13672"
         id="use121"
         style="fill:#ffffff;fill-opacity:1" />
      <use
         xlink:href="#DejaVuSans-70"
         x="855.31836"
         id="use122"
         style="fill:#ffffff;fill-opacity:1" />
      <use
         xlink:href="#DejaVuSans-79"
         x="918.79492"
         id="use123"
         style="fill:#ffffff;fill-opacity:1" />
    </g>
  </g>
  <defs
     id="defs123">
    <clipPath
       id="p7da280b547">
      <rect
         x="57.6"
         y="41.472"
         width="357.12"
         height="266.112"
         id="rect123" />
    </clipPath>
  </defs>
</svg>
