<?xml version="1.0" encoding="UTF-8" standalone="no"?>
<svg
   width="460.8pt"
   height="345.6pt"
   viewBox="0 0 460.8 345.6"
   version="1.1"
   id="svg84"
   sodipodi:docname="rotation_dark.svg"
   inkscape:version="1.3 (1:1.3+202307231459+0e150ed6c4)"
   xmlns:inkscape="http://www.inkscape.org/namespaces/inkscape"
   xmlns:sodipodi="http://sodipodi.sourceforge.net/DTD/sodipodi-0.dtd"
   xmlns:xlink="http://www.w3.org/1999/xlink"
   xmlns="http://www.w3.org/2000/svg"
   xmlns:svg="http://www.w3.org/2000/svg"
   xmlns:rdf="http://www.w3.org/1999/02/22-rdf-syntax-ns#"
   xmlns:cc="http://creativecommons.org/ns#"
   xmlns:dc="http://purl.org/dc/elements/1.1/">
  <sodipodi:namedview
     id="namedview84"
     pagecolor="#000000"
     bordercolor="#000000"
     borderopacity="0.25"
     inkscape:showpageshadow="2"
     inkscape:pageopacity="0.0"
     inkscape:pagecheckerboard="0"
     inkscape:deskcolor="#d1d1d1"
     inkscape:document-units="pt"
     inkscape:zoom="0.89518228"
     inkscape:cx="304.96582"
     inkscape:cy="255.25528"
     inkscape:window-width="1920"
     inkscape:window-height="1043"
     inkscape:window-x="1680"
     inkscape:window-y="0"
     inkscape:window-maximized="1"
     inkscape:current-layer="svg84" />
  <metadata
     id="metadata1">
    <rdf:RDF>
      <cc:Work>
        <dc:type
           rdf:resource="http://purl.org/dc/dcmitype/StillImage" />
        <dc:date>2023-08-06T12:20:12.796568</dc:date>
        <dc:format>image/svg+xml</dc:format>
        <dc:creator>
          <cc:Agent>
            <dc:title>Matplotlib v3.7.2, https://matplotlib.org/</dc:title>
          </cc:Agent>
        </dc:creator>
      </cc:Work>
    </rdf:RDF>
  </metadata>
  <defs
     id="defs1">
    <linearGradient
       id="linearGradient91"
       inkscape:collect="always">
      <stop
         style="stop-color:#ffffff;stop-opacity:1;"
         offset="0"
         id="stop91" />
      <stop
         style="stop-color:#ffffff;stop-opacity:0;"
         offset="1"
         id="stop92" />
    </linearGradient>
    <linearGradient
       id="linearGradient84"
       inkscape:collect="always">
      <stop
         style="stop-color:#ffffff;stop-opacity:1;"
         offset="0"
         id="stop84" />
      <stop
         style="stop-color:#ffffff;stop-opacity:0;"
         offset="1"
         id="stop85" />
    </linearGradient>
    <style
       type="text/css"
       id="style1">*{stroke-linejoin: round; stroke-linecap: butt}</style>
    <linearGradient
       inkscape:collect="always"
       xlink:href="#linearGradient84"
       id="linearGradient85"
       x1="73.432726"
       y1="309.33401"
       x2="74.232726"
       y2="309.33401"
       gradientUnits="userSpaceOnUse" />
    <linearGradient
       inkscape:collect="always"
       xlink:href="#linearGradient91"
       id="linearGradient92"
       x1="54.099998"
       y1="295.48801"
       x2="57.599998"
       y2="295.48801"
       gradientUnits="userSpaceOnUse" />
  </defs>
  <g
     id="line2d_1"
     style="stroke:#ffffff;stroke-opacity:1;fill:#ffffff;fill-opacity:1">
    <defs
       id="defs2"
       style="stroke:url(#linearGradient85)">
      <path
         id="m4d4eb9c0b2"
         d="M 0,0 V 3.5"
         style="stroke:url(#linearGradient85);stroke-width:0.8" />
    </defs>
    <g
       id="g2"
       style="stroke:#ffffff;stroke-opacity:1;fill:#ffffff;fill-opacity:1">
      <use
         xlink:href="#m4d4eb9c0b2"
         x="73.832726"
         y="307.58401"
         style="stroke:#ffffff;stroke-width:0.8;stroke-opacity:1;fill:#ffffff;fill-opacity:1"
         id="use2" />
    </g>
  </g>
  <g
     id="text_1"
     style="fill:#ffffff;fill-opacity:1">
    <!-- 0 -->
    <g
       transform="matrix(0.1,0,0,-0.1,70.651477,322.18244)"
       id="g3"
       style="fill:#ffffff;fill-opacity:1">
      <defs
         id="defs3">
        <path
           id="DejaVuSans-30"
           d="m 2034,4250 q -487,0 -733,-480 -245,-479 -245,-1442 0,-959 245,-1439 246,-480 733,-480 491,0 736,480 246,480 246,1439 0,963 -246,1442 -245,480 -736,480 z m 0,500 q 785,0 1199,-621 414,-620 414,-1801 0,-1178 -414,-1799 -414,-620 -1199,-620 -784,0 -1198,620 -414,621 -414,1799 0,1181 414,1801 414,621 1198,621 z"
           transform="scale(0.015625)" />
      </defs>
      <use
         xlink:href="#DejaVuSans-30"
         id="use3"
         style="fill:#ffffff;fill-opacity:1" />
    </g>
  </g>
  <g
     id="line2d_2"
     style="stroke:#ffffff;stroke-opacity:1;fill:#ffffff;fill-opacity:1">
    <g
       id="g4"
       style="stroke:#ffffff;stroke-opacity:1;fill:#ffffff;fill-opacity:1">
      <use
         xlink:href="#m4d4eb9c0b2"
         x="127.16989"
         y="307.58401"
         style="stroke:#ffffff;stroke-width:0.8;stroke-opacity:1;fill:#ffffff;fill-opacity:1"
         id="use4" />
    </g>
  </g>
  <g
     id="text_2"
     style="fill:#ffffff;fill-opacity:1">
    <!-- 1 -->
    <g
       transform="matrix(0.1,0,0,-0.1,123.98864,322.18244)"
       id="g5"
       style="fill:#ffffff;fill-opacity:1">
      <defs
         id="defs4">
        <path
           id="DejaVuSans-31"
           d="M 794,531 H 1825 V 4091 L 703,3866 v 575 l 1116,225 h 631 V 531 H 3481 V 0 H 794 Z"
           transform="scale(0.015625)" />
      </defs>
      <use
         xlink:href="#DejaVuSans-31"
         id="use5"
         style="fill:#ffffff;fill-opacity:1" />
    </g>
  </g>
  <g
     id="line2d_3"
     style="stroke:#ffffff;stroke-opacity:1;fill:#ffffff;fill-opacity:1">
    <g
       id="g6"
       style="stroke:#ffffff;stroke-opacity:1;fill:#ffffff;fill-opacity:1">
      <use
         xlink:href="#m4d4eb9c0b2"
         x="180.50705"
         y="307.58401"
         style="stroke:#ffffff;stroke-width:0.8;stroke-opacity:1;fill:#ffffff;fill-opacity:1"
         id="use6" />
    </g>
  </g>
  <g
     id="text_3"
     style="fill:#ffffff;fill-opacity:1">
    <!-- 2 -->
    <g
       transform="matrix(0.1,0,0,-0.1,177.3258,322.18244)"
       id="g7"
       style="fill:#ffffff;fill-opacity:1">
      <defs
         id="defs6">
        <path
           id="DejaVuSans-32"
           d="M 1228,531 H 3431 V 0 H 469 v 531 q 359,372 979,998 621,627 780,809 303,340 423,576 121,236 121,464 0,372 -261,606 -261,235 -680,235 -297,0 -627,-103 -329,-103 -704,-313 v 638 q 381,153 712,231 332,78 607,78 725,0 1156,-363 431,-362 431,-968 0,-288 -108,-546 -107,-257 -392,-607 -78,-91 -497,-524 Q 1991,1309 1228,531 Z"
           transform="scale(0.015625)" />
      </defs>
      <use
         xlink:href="#DejaVuSans-32"
         id="use7"
         style="fill:#ffffff;fill-opacity:1" />
    </g>
  </g>
  <g
     id="line2d_4"
     style="stroke:#ffffff;stroke-opacity:1;fill:#ffffff;fill-opacity:1">
    <g
       id="g8"
       style="stroke:#ffffff;stroke-opacity:1;fill:#ffffff;fill-opacity:1">
      <use
         xlink:href="#m4d4eb9c0b2"
         x="233.84421"
         y="307.58401"
         style="stroke:#ffffff;stroke-width:0.8;stroke-opacity:1;fill:#ffffff;fill-opacity:1"
         id="use8" />
    </g>
  </g>
  <g
     id="text_4"
     style="fill:#ffffff;fill-opacity:1">
    <!-- 3 -->
    <g
       transform="matrix(0.1,0,0,-0.1,230.66296,322.18244)"
       id="g9"
       style="fill:#ffffff;fill-opacity:1">
      <defs
         id="defs8">
        <path
           id="DejaVuSans-33"
           d="m 2597,2516 q 453,-97 707,-404 255,-306 255,-756 0,-690 -475,-1069 -475,-378 -1350,-378 -293,0 -604,58 -311,58 -642,174 v 609 q 262,-153 574,-231 313,-78 654,-78 593,0 904,234 311,234 311,681 0,413 -289,645 -289,233 -804,233 h -544 v 519 h 569 q 465,0 712,186 247,186 247,536 0,359 -255,551 -254,193 -729,193 -260,0 -557,-57 -297,-56 -653,-174 v 562 q 360,100 674,150 314,50 592,50 719,0 1137,-327 419,-326 419,-882 0,-388 -222,-655 -222,-267 -631,-370 z"
           transform="scale(0.015625)" />
      </defs>
      <use
         xlink:href="#DejaVuSans-33"
         id="use9"
         style="fill:#ffffff;fill-opacity:1" />
    </g>
  </g>
  <g
     id="line2d_5"
     style="stroke:#ffffff;stroke-opacity:1;fill:#ffffff;fill-opacity:1">
    <g
       id="g10"
       style="stroke:#ffffff;stroke-opacity:1;fill:#ffffff;fill-opacity:1">
      <use
         xlink:href="#m4d4eb9c0b2"
         x="287.18137"
         y="307.58401"
         style="stroke:#ffffff;stroke-width:0.8;stroke-opacity:1;fill:#ffffff;fill-opacity:1"
         id="use10" />
    </g>
  </g>
  <g
     id="text_5"
     style="fill:#ffffff;fill-opacity:1">
    <!-- 4 -->
    <g
       transform="matrix(0.1,0,0,-0.1,284.00013,322.18244)"
       id="g11"
       style="fill:#ffffff;fill-opacity:1">
      <defs
         id="defs10">
        <path
           id="DejaVuSans-34"
           d="M 2419,4116 825,1625 h 1594 z m -166,550 h 794 V 1625 h 666 V 1100 H 3047 V 0 H 2419 V 1100 H 313 v 609 z"
           transform="scale(0.015625)" />
      </defs>
      <use
         xlink:href="#DejaVuSans-34"
         id="use11"
         style="fill:#ffffff;fill-opacity:1" />
    </g>
  </g>
  <g
     id="line2d_6"
     style="stroke:#ffffff;stroke-opacity:1;fill:#ffffff;fill-opacity:1">
    <g
       id="g12"
       style="stroke:#ffffff;stroke-opacity:1;fill:#ffffff;fill-opacity:1">
      <use
         xlink:href="#m4d4eb9c0b2"
         x="340.51852"
         y="307.58401"
         style="stroke:#ffffff;stroke-width:0.8;stroke-opacity:1;fill:#ffffff;fill-opacity:1"
         id="use12" />
    </g>
  </g>
  <g
     id="text_6"
     style="fill:#ffffff;fill-opacity:1">
    <!-- 5 -->
    <g
       transform="matrix(0.1,0,0,-0.1,337.33729,322.18244)"
       id="g13"
       style="fill:#ffffff;fill-opacity:1">
      <defs
         id="defs12">
        <path
           id="DejaVuSans-35"
           d="M 691,4666 H 3169 V 4134 H 1269 V 2991 q 137,47 274,70 138,23 276,23 781,0 1237,-428 457,-428 457,-1159 Q 3513,744 3044,326 2575,-91 1722,-91 1428,-91 1123,-41 819,9 494,109 v 635 q 281,-153 581,-228 300,-75 634,-75 541,0 856,284 316,284 316,772 0,487 -316,771 -315,285 -856,285 -253,0 -505,-56 -251,-56 -513,-175 z"
           transform="scale(0.015625)" />
      </defs>
      <use
         xlink:href="#DejaVuSans-35"
         id="use13"
         style="fill:#ffffff;fill-opacity:1" />
    </g>
  </g>
  <g
     id="line2d_7"
     style="stroke:#ffffff;stroke-opacity:1;fill:#ffffff;fill-opacity:1">
    <g
       id="g14"
       style="stroke:#ffffff;stroke-opacity:1;fill:#ffffff;fill-opacity:1">
      <use
         xlink:href="#m4d4eb9c0b2"
         x="393.85571"
         y="307.58401"
         style="stroke:#ffffff;stroke-width:0.8;stroke-opacity:1;fill:#ffffff;fill-opacity:1"
         id="use14" />
    </g>
  </g>
  <g
     id="text_7"
     style="fill:#ffffff;fill-opacity:1">
    <!-- 6 -->
    <g
       transform="matrix(0.1,0,0,-0.1,390.67445,322.18244)"
       id="g15"
       style="fill:#ffffff;fill-opacity:1">
      <defs
         id="defs14">
        <path
           id="DejaVuSans-36"
           d="m 2113,2584 q -425,0 -674,-291 -248,-290 -248,-796 0,-503 248,-796 249,-292 674,-292 425,0 673,292 248,293 248,796 0,506 -248,796 -248,291 -673,291 z m 1253,1979 v -575 q -238,112 -480,171 -242,60 -480,60 -625,0 -955,-422 -329,-422 -376,-1275 184,272 462,417 279,145 613,145 703,0 1111,-427 408,-426 408,-1160 0,-719 -425,-1154 -425,-434 -1131,-434 -810,0 -1238,620 -428,621 -428,1799 0,1106 525,1764 525,658 1409,658 238,0 480,-47 242,-47 505,-140 z"
           transform="scale(0.015625)" />
      </defs>
      <use
         xlink:href="#DejaVuSans-36"
         id="use15"
         style="fill:#ffffff;fill-opacity:1" />
    </g>
  </g>
  <g
     transform="matrix(0.1,0,0,-0.1,201.46547,335.86056)"
     id="g29"
     style="fill:#ffffff;fill-opacity:1">
    <defs
       id="defs15">
      <path
         id="DejaVuSans-52"
         d="m 2841,2188 q 203,-69 395,-294 192,-225 386,-619 L 4263,0 h -679 l -596,1197 q -232,469 -449,622 -217,153 -592,153 H 1259 V 0 H 628 v 4666 h 1425 q 800,0 1194,-335 394,-334 394,-1009 0,-441 -205,-732 -205,-290 -595,-402 z M 1259,4147 V 2491 h 794 q 456,0 689,211 233,211 233,620 0,409 -233,617 -233,208 -689,208 z"
         transform="scale(0.015625)" />
      <path
         id="DejaVuSans-6f"
         d="m 1959,3097 q -462,0 -731,-361 -269,-361 -269,-989 0,-628 267,-989 268,-361 733,-361 460,0 728,362 269,363 269,988 0,622 -269,986 -268,364 -728,364 z m 0,487 q 750,0 1178,-488 429,-487 429,-1349 Q 3566,888 3137,398 2709,-91 1959,-91 1206,-91 779,398 353,888 353,1747 q 0,862 426,1349 427,488 1180,488 z"
         transform="scale(0.015625)" />
      <path
         id="DejaVuSans-74"
         d="M 1172,4494 V 3500 H 2356 V 3053 H 1172 V 1153 q 0,-428 117,-550 117,-122 477,-122 h 590 V 0 H 1766 Q 1100,0 847,248 594,497 594,1153 V 3053 H 172 v 447 h 422 v 994 z"
         transform="scale(0.015625)" />
      <path
         id="DejaVuSans-61"
         d="m 2194,1759 q -697,0 -966,-159 -269,-159 -269,-544 0,-306 202,-486 202,-179 548,-179 479,0 768,339 289,339 289,901 v 128 z m 1147,238 V 0 H 2766 V 531 Q 2569,213 2275,61 1981,-91 1556,-91 q -537,0 -855,302 -317,302 -317,808 0,590 395,890 396,300 1180,300 h 807 v 57 q 0,397 -261,614 -261,217 -733,217 -300,0 -585,-72 -284,-72 -546,-216 v 532 q 315,122 612,182 297,61 578,61 760,0 1135,-394 375,-393 375,-1193 z"
         transform="scale(0.015625)" />
      <path
         id="DejaVuSans-69"
         d="m 603,3500 h 575 V 0 H 603 Z m 0,1363 h 575 V 4134 H 603 Z"
         transform="scale(0.015625)" />
      <path
         id="DejaVuSans-6e"
         d="M 3513,2113 V 0 h -575 v 2094 q 0,497 -194,743 -194,247 -581,247 -466,0 -735,-297 -269,-296 -269,-809 V 0 H 581 v 3500 h 578 v -544 q 207,316 486,472 280,156 646,156 603,0 912,-373 310,-373 310,-1098 z"
         transform="scale(0.015625)" />
      <path
         id="DejaVuSans-20"
         transform="scale(0.015625)"
         d="" />
      <path
         id="DejaVuSans-5b"
         d="M 550,4863 H 1875 V 4416 H 1125 V -397 h 750 V -844 H 550 Z"
         transform="scale(0.015625)" />
      <path
         id="DejaVuSans-72"
         d="m 2631,2963 q -97,56 -211,82 -114,27 -251,27 -488,0 -749,-317 -261,-317 -261,-911 V 0 H 581 v 3500 h 578 v -544 q 182,319 472,473 291,155 707,155 59,0 131,-8 72,-7 159,-23 z"
         transform="scale(0.015625)" />
      <path
         id="DejaVuSans-64"
         d="m 2906,2969 v 1894 h 575 V 0 H 2906 V 525 Q 2725,213 2448,61 2172,-91 1784,-91 1150,-91 751,415 353,922 353,1747 q 0,825 398,1331 399,506 1033,506 388,0 664,-152 277,-151 458,-463 z M 947,1747 q 0,-634 261,-995 261,-361 717,-361 456,0 718,361 263,361 263,995 0,634 -263,995 -262,361 -718,361 -456,0 -717,-361 -261,-361 -261,-995 z"
         transform="scale(0.015625)" />
      <path
         id="DejaVuSans-5d"
         d="M 1947,4863 V -844 H 622 v 447 h 747 V 4416 H 622 v 447 z"
         transform="scale(0.015625)" />
    </defs>
    <use
       xlink:href="#DejaVuSans-52"
       id="use16"
       style="fill:#ffffff;fill-opacity:1" />
    <use
       xlink:href="#DejaVuSans-6f"
       x="64.982422"
       id="use17"
       style="fill:#ffffff;fill-opacity:1" />
    <use
       xlink:href="#DejaVuSans-74"
       x="126.16406"
       id="use18"
       style="fill:#ffffff;fill-opacity:1" />
    <use
       xlink:href="#DejaVuSans-61"
       x="165.37305"
       id="use19"
       style="fill:#ffffff;fill-opacity:1" />
    <use
       xlink:href="#DejaVuSans-74"
       x="226.65234"
       id="use20"
       style="fill:#ffffff;fill-opacity:1" />
    <use
       xlink:href="#DejaVuSans-69"
       x="265.86133"
       id="use21"
       style="fill:#ffffff;fill-opacity:1" />
    <use
       xlink:href="#DejaVuSans-6f"
       x="293.64453"
       id="use22"
       style="fill:#ffffff;fill-opacity:1" />
    <use
       xlink:href="#DejaVuSans-6e"
       x="354.82617"
       id="use23"
       style="fill:#ffffff;fill-opacity:1" />
    <use
       xlink:href="#DejaVuSans-20"
       x="418.20508"
       id="use24"
       style="fill:#ffffff;fill-opacity:1" />
    <use
       xlink:href="#DejaVuSans-5b"
       x="449.99219"
       id="use25"
       style="fill:#ffffff;fill-opacity:1" />
    <use
       xlink:href="#DejaVuSans-72"
       x="489.00586"
       id="use26"
       style="fill:#ffffff;fill-opacity:1" />
    <use
       xlink:href="#DejaVuSans-61"
       x="530.11914"
       id="use27"
       style="fill:#ffffff;fill-opacity:1" />
    <use
       xlink:href="#DejaVuSans-64"
       x="591.39844"
       id="use28"
       style="fill:#ffffff;fill-opacity:1" />
    <use
       xlink:href="#DejaVuSans-5d"
       x="654.875"
       id="use29"
       style="fill:#ffffff;fill-opacity:1" />
  </g>
  <g
     id="line2d_8"
     style="stroke:#fafafa;stroke-opacity:1;fill:#ffffff;fill-opacity:1">
    <defs
       id="defs29"
       style="stroke:url(#linearGradient92)">
      <path
         id="mf162075961"
         d="M 0,0 H -3.5"
         style="stroke:url(#linearGradient92);stroke-width:0.8" />
    </defs>
    <g
       id="g30"
       style="stroke:#fafafa;stroke-opacity:1;fill:#ffffff;fill-opacity:1">
      <use
         xlink:href="#mf162075961"
         x="57.599998"
         y="295.48801"
         style="stroke:#fafafa;stroke-width:0.8;stroke-opacity:1;fill:#ffffff;fill-opacity:1"
         id="use30" />
    </g>
  </g>
  <g
     id="text_9"
     style="fill:#ffffff;fill-opacity:1;stroke:#fafafa;stroke-opacity:1">
    <!-- 0.0 -->
    <g
       transform="matrix(0.1,0,0,-0.1,34.696875,299.28722)"
       id="g33"
       style="fill:#ffffff;fill-opacity:1;stroke:#fafafa;stroke-opacity:1">
      <defs
         id="defs30">
        <path
           id="DejaVuSans-2e"
           d="m 684,794 h 660 V 0 H 684 Z"
           transform="scale(0.015625)" />
      </defs>
      <use
         xlink:href="#DejaVuSans-30"
         id="use31"
         style="fill:#ffffff;fill-opacity:1;stroke:#fafafa;stroke-opacity:1" />
      <use
         xlink:href="#DejaVuSans-2e"
         x="63.623047"
         id="use32"
         style="fill:#ffffff;fill-opacity:1;stroke:#fafafa;stroke-opacity:1" />
      <use
         xlink:href="#DejaVuSans-30"
         x="95.410156"
         id="use33"
         style="fill:#ffffff;fill-opacity:1;stroke:#fafafa;stroke-opacity:1" />
    </g>
  </g>
  <g
     id="line2d_9"
     style="stroke:#fafafa;stroke-opacity:1;fill:#ffffff;fill-opacity:1">
    <g
       id="g34"
       style="stroke:#fafafa;stroke-opacity:1;fill:#ffffff;fill-opacity:1">
      <use
         xlink:href="#mf162075961"
         x="57.599998"
         y="247.104"
         style="stroke:#fafafa;stroke-width:0.8;stroke-opacity:1;fill:#ffffff;fill-opacity:1"
         id="use34" />
    </g>
  </g>
  <g
     id="text_10"
     style="fill:#ffffff;fill-opacity:1;stroke:#fafafa;stroke-opacity:1">
    <!-- 0.2 -->
    <g
       transform="matrix(0.1,0,0,-0.1,34.696875,250.90322)"
       id="g37"
       style="fill:#ffffff;fill-opacity:1;stroke:#fafafa;stroke-opacity:1">
      <use
         xlink:href="#DejaVuSans-30"
         id="use35"
         style="fill:#ffffff;fill-opacity:1;stroke:#fafafa;stroke-opacity:1" />
      <use
         xlink:href="#DejaVuSans-2e"
         x="63.623047"
         id="use36"
         style="fill:#ffffff;fill-opacity:1;stroke:#fafafa;stroke-opacity:1" />
      <use
         xlink:href="#DejaVuSans-32"
         x="95.410156"
         id="use37"
         style="fill:#ffffff;fill-opacity:1;stroke:#fafafa;stroke-opacity:1" />
    </g>
  </g>
  <g
     id="line2d_10"
     style="stroke:#fafafa;stroke-opacity:1;fill:#ffffff;fill-opacity:1">
    <g
       id="g38"
       style="stroke:#fafafa;stroke-opacity:1;fill:#ffffff;fill-opacity:1">
      <use
         xlink:href="#mf162075961"
         x="57.599998"
         y="198.72"
         style="stroke:#fafafa;stroke-width:0.8;stroke-opacity:1;fill:#ffffff;fill-opacity:1"
         id="use38" />
    </g>
  </g>
  <g
     id="text_11"
     style="fill:#ffffff;fill-opacity:1;stroke:#fafafa;stroke-opacity:1">
    <!-- 0.4 -->
    <g
       transform="matrix(0.1,0,0,-0.1,34.696875,202.51922)"
       id="g41"
       style="fill:#ffffff;fill-opacity:1;stroke:#fafafa;stroke-opacity:1">
      <use
         xlink:href="#DejaVuSans-30"
         id="use39"
         style="fill:#ffffff;fill-opacity:1;stroke:#fafafa;stroke-opacity:1" />
      <use
         xlink:href="#DejaVuSans-2e"
         x="63.623047"
         id="use40"
         style="fill:#ffffff;fill-opacity:1;stroke:#fafafa;stroke-opacity:1" />
      <use
         xlink:href="#DejaVuSans-34"
         x="95.410156"
         id="use41"
         style="fill:#ffffff;fill-opacity:1;stroke:#fafafa;stroke-opacity:1" />
    </g>
  </g>
  <g
     id="line2d_11"
     style="stroke:#fafafa;stroke-opacity:1;fill:#ffffff;fill-opacity:1">
    <g
       id="g42"
       style="stroke:#fafafa;stroke-opacity:1;fill:#ffffff;fill-opacity:1">
      <use
         xlink:href="#mf162075961"
         x="57.599998"
         y="150.336"
         style="stroke:#fafafa;stroke-width:0.8;stroke-opacity:1;fill:#ffffff;fill-opacity:1"
         id="use42" />
    </g>
  </g>
  <g
     id="text_12"
     style="fill:#ffffff;fill-opacity:1;stroke:#fafafa;stroke-opacity:1">
    <!-- 0.6 -->
    <g
       transform="matrix(0.1,0,0,-0.1,34.696875,154.13522)"
       id="g45"
       style="fill:#ffffff;fill-opacity:1;stroke:#fafafa;stroke-opacity:1">
      <use
         xlink:href="#DejaVuSans-30"
         id="use43"
         style="fill:#ffffff;fill-opacity:1;stroke:#fafafa;stroke-opacity:1" />
      <use
         xlink:href="#DejaVuSans-2e"
         x="63.623047"
         id="use44"
         style="fill:#ffffff;fill-opacity:1;stroke:#fafafa;stroke-opacity:1" />
      <use
         xlink:href="#DejaVuSans-36"
         x="95.410156"
         id="use45"
         style="fill:#ffffff;fill-opacity:1;stroke:#fafafa;stroke-opacity:1" />
    </g>
  </g>
  <g
     id="line2d_12"
     style="stroke:#fafafa;stroke-opacity:1;fill:#ffffff;fill-opacity:1">
    <g
       id="g46"
       style="stroke:#fafafa;stroke-opacity:1;fill:#ffffff;fill-opacity:1">
      <use
         xlink:href="#mf162075961"
         x="57.599998"
         y="101.952"
         style="stroke:#fafafa;stroke-width:0.8;stroke-opacity:1;fill:#ffffff;fill-opacity:1"
         id="use46" />
    </g>
  </g>
  <g
     id="text_13"
     style="fill:#ffffff;fill-opacity:1;stroke:#fafafa;stroke-opacity:1">
    <!-- 0.8 -->
    <g
       transform="matrix(0.1,0,0,-0.1,34.696875,105.75122)"
       id="g49"
       style="fill:#ffffff;fill-opacity:1;stroke:#fafafa;stroke-opacity:1">
      <defs
         id="defs46">
        <path
           id="DejaVuSans-38"
           d="m 2034,2216 q -450,0 -708,-241 -257,-241 -257,-662 0,-422 257,-663 258,-241 708,-241 450,0 709,242 260,243 260,662 0,421 -258,662 -257,241 -711,241 z m -631,268 q -406,100 -633,378 -226,279 -226,679 0,559 398,884 399,325 1092,325 697,0 1094,-325 397,-325 397,-884 0,-400 -227,-679 -226,-278 -629,-378 456,-106 710,-416 255,-309 255,-755 Q 3634,634 3220,271 2806,-91 2034,-91 1263,-91 848,271 434,634 434,1313 q 0,446 256,755 257,310 713,416 z m -231,997 q 0,-362 226,-565 227,-203 636,-203 407,0 636,203 230,203 230,565 0,363 -230,566 -229,203 -636,203 -409,0 -636,-203 -226,-203 -226,-566 z"
           transform="scale(0.015625)" />
      </defs>
      <use
         xlink:href="#DejaVuSans-30"
         id="use47"
         style="fill:#ffffff;fill-opacity:1;stroke:#fafafa;stroke-opacity:1" />
      <use
         xlink:href="#DejaVuSans-2e"
         x="63.623047"
         id="use48"
         style="fill:#ffffff;fill-opacity:1;stroke:#fafafa;stroke-opacity:1" />
      <use
         xlink:href="#DejaVuSans-38"
         x="95.410156"
         id="use49"
         style="fill:#ffffff;fill-opacity:1;stroke:#fafafa;stroke-opacity:1" />
    </g>
  </g>
  <g
     id="line2d_13"
     style="stroke:#fafafa;stroke-opacity:1;fill:#ffffff;fill-opacity:1">
    <g
       id="g50"
       style="stroke:#fafafa;stroke-opacity:1;fill:#ffffff;fill-opacity:1">
      <use
         xlink:href="#mf162075961"
         x="57.599998"
         y="53.568001"
         style="stroke:#fafafa;stroke-width:0.8;stroke-opacity:1;fill:#ffffff;fill-opacity:1"
         id="use50" />
    </g>
  </g>
  <g
     id="text_14"
     style="fill:#ffffff;fill-opacity:1;stroke:#fafafa;stroke-opacity:1">
    <!-- 1.0 -->
    <g
       transform="matrix(0.1,0,0,-0.1,34.696875,57.367219)"
       id="g53"
       style="fill:#ffffff;fill-opacity:1;stroke:#fafafa;stroke-opacity:1">
      <use
         xlink:href="#DejaVuSans-31"
         id="use51"
         style="fill:#ffffff;fill-opacity:1;stroke:#fafafa;stroke-opacity:1" />
      <use
         xlink:href="#DejaVuSans-2e"
         x="63.623047"
         id="use52"
         style="fill:#ffffff;fill-opacity:1;stroke:#fafafa;stroke-opacity:1" />
      <use
         xlink:href="#DejaVuSans-30"
         x="95.410156"
         id="use53"
         style="fill:#ffffff;fill-opacity:1;stroke:#fafafa;stroke-opacity:1" />
    </g>
  </g>
  <g
     transform="matrix(0,-0.1,-0.1,0,28.617188,184.62566)"
     id="g57"
     style="fill:#ffffff;fill-opacity:1;stroke:#fafafa;stroke-opacity:1">
    <defs
       id="defs53">
      <path
         id="DejaVuSans-50"
         d="M 1259,4147 V 2394 h 794 q 441,0 681,228 241,228 241,650 0,419 -241,647 -240,228 -681,228 z m -631,519 h 1425 q 785,0 1186,-355 402,-355 402,-1039 0,-691 -402,-1044 -401,-353 -1186,-353 H 1259 V 0 H 628 Z"
         transform="scale(0.015625)" />
      <path
         id="DejaVuSans-28"
         d="m 1984,4856 q -418,-718 -622,-1422 -203,-703 -203,-1425 0,-721 205,-1429 205,-708 620,-1424 h -500 q -468,735 -701,1444 -233,709 -233,1409 0,697 231,1403 232,707 703,1444 z"
         transform="scale(0.015625)" />
      <path
         id="DejaVuSans-29"
         d="m 513,4856 h 500 q 468,-737 701,-1444 233,-706 233,-1403 0,-700 -233,-1409 -233,-709 -701,-1444 H 513 q 415,716 620,1424 205,708 205,1429 0,722 -205,1425 -205,704 -620,1422 z"
         transform="scale(0.015625)" />
    </defs>
    <use
       xlink:href="#DejaVuSans-50"
       id="use54"
       style="fill:#ffffff;fill-opacity:1;stroke:#fafafa;stroke-opacity:1" />
    <use
       xlink:href="#DejaVuSans-28"
       x="60.302734"
       id="use55"
       style="fill:#ffffff;fill-opacity:1;stroke:#fafafa;stroke-opacity:1" />
    <use
       xlink:href="#DejaVuSans-31"
       x="99.316406"
       id="use56"
       style="fill:#ffffff;fill-opacity:1;stroke:#fafafa;stroke-opacity:1" />
    <use
       xlink:href="#DejaVuSans-29"
       x="162.93945"
       id="use57"
       style="fill:#ffffff;fill-opacity:1;stroke:#fafafa;stroke-opacity:1" />
  </g>
  <g
     id="line2d_14">
    <path
       d="m 73.832727,289.01664 10.472728,-2.7216 10.472727,-5.26176 10.472728,-7.68096 10.47273,-12.3984 10.47272,-17.17632 10.47273,-18.32544 10.47273,-20.20032 10.47272,-19.29312 10.47273,-18.7488 10.47273,-21.34944 10.47273,-12.33792 10.47272,-14.99904 10.47273,-17.90208 10.47273,-8.58816 10.47273,-4.2336 10.47272,2.54016 10.47273,1.63296 10.47273,4.11264 10.47272,10.10016 10.47273,7.62048 10.47273,12.7008 10.47273,16.08768 10.47272,18.7488 10.47273,17.59968 10.47273,18.93024 10.47273,15.90624 10.47272,23.46624 10.47273,15.24096 10.47273,17.66016 10.47272,8.83008 10.47273,5.7456"
       clip-path="url(#p681c207bb0)"
       style="fill:none;stroke:#1f77b4;stroke-width:1.5;stroke-linecap:square"
       id="path57" />
  </g>
  <g
     id="line2d_15">
    <path
       d="m 73.832727,295.488 10.472728,-2.32421 10.472727,-6.88332 10.472728,-11.17791 10.47273,-15.04292 10.47272,-18.32987 10.47273,-20.91238 10.47273,-22.69127 10.47272,-23.59812 10.47273,-23.59813 10.47273,-22.69126 10.47273,-20.91239 10.47272,-18.329856 10.47273,-15.042928 10.47273,-11.177904 10.47273,-6.88332 10.47272,-2.324212 10.47273,2.324212 10.47273,6.88332 10.47272,11.177904 10.47273,15.042928 10.47273,18.329856 10.47273,20.91239 10.47272,22.69126 10.47273,23.59813 10.47273,23.59812 10.47273,22.69127 10.47272,20.91238 10.47273,18.32987 10.47273,15.04292 10.47272,11.17791 10.47273,6.88332"
       clip-path="url(#p681c207bb0)"
       style="fill:none;stroke:#ff7f0e;stroke-width:1.5;stroke-linecap:square"
       id="path58" />
  </g>
  <g
     id="patch_3"
     style="stroke:#ffffff;stroke-opacity:1"
     sodipodi:insensitive="true">
    <path
       d="M 57.6,307.584 V 41.472"
       style="fill:none;stroke:#ffffff;stroke-width:0.8;stroke-linecap:square;stroke-linejoin:miter;stroke-opacity:1"
       id="path59" />
  </g>
  <g
     id="patch_4"
     style="fill:#ffffff;fill-opacity:0;stroke:#ffffff;stroke-opacity:1">
    <path
       d="M 414.72,307.584 V 41.472"
       style="fill:#ffffff;stroke:#ffffff;stroke-width:0.8;stroke-linecap:square;stroke-linejoin:miter;fill-opacity:0;stroke-opacity:1"
       id="path60" />
  </g>
  <g
     id="patch_5"
     style="stroke:#ffffff;stroke-opacity:1"
     sodipodi:insensitive="true">
    <path
       d="M 57.6,307.584 H 414.72"
       style="fill:none;stroke:#ffffff;stroke-width:0.8;stroke-linecap:square;stroke-linejoin:miter;stroke-opacity:1"
       id="path61" />
  </g>
  <g
     id="patch_6"
     style="fill:#ffffff;fill-opacity:0;stroke:#ffffff;stroke-opacity:1">
    <path
       d="M 57.6,41.472 H 414.72"
       style="fill:#ffffff;stroke:#ffffff;stroke-width:0.8;stroke-linecap:square;stroke-linejoin:miter;fill-opacity:0;stroke-opacity:1"
       id="path62" />
  </g>
  <path
     d="M 288.59812,78.82825 H 407.72 q 2,0 2,-2 V 48.472 q 0,-2 -2,-2 H 288.59812 q -2,0 -2,2 v 28.35625 q 0,2 2,2 z"
     style="opacity:0.8;fill:#ffffff;stroke:#cccccc;stroke-linejoin:miter;fill-opacity:0.00057722"
     id="path63" />
  <g
     id="line2d_16">
    <path
       d="m 290.59812,54.570437 h 10 10"
       style="fill:none;stroke:#1f77b4;stroke-width:1.5;stroke-linecap:square"
       id="path64" />
  </g>
  <g
     id="text_16"
     style="fill:#ffffff;fill-opacity:1">
    <!-- qibolab hardware -->
    <g
       transform="matrix(0.1,0,0,-0.1,318.59812,58.070437)"
       id="g79"
       style="fill:#ffffff;fill-opacity:1">
      <defs
         id="defs64">
        <path
           id="DejaVuSans-71"
           d="m 947,1747 q 0,-634 261,-995 261,-361 717,-361 456,0 718,361 263,361 263,995 0,634 -263,995 -262,361 -718,361 -456,0 -717,-361 Q 947,2381 947,1747 Z M 2906,525 Q 2725,213 2448,61 2172,-91 1784,-91 1150,-91 751,415 353,922 353,1747 q 0,825 398,1331 399,506 1033,506 388,0 664,-152 277,-151 458,-463 v 531 h 575 v -4831 h -575 z"
           transform="scale(0.015625)" />
        <path
           id="DejaVuSans-62"
           d="m 3116,1747 q 0,634 -261,995 -261,361 -717,361 -457,0 -718,-361 -261,-361 -261,-995 0,-634 261,-995 261,-361 718,-361 456,0 717,361 261,361 261,995 z M 1159,2969 q 182,312 458,463 277,152 661,152 638,0 1036,-506 399,-506 399,-1331 Q 3713,922 3314,415 2916,-91 2278,-91 1894,-91 1617,61 1341,213 1159,525 V 0 H 581 v 4863 h 578 z"
           transform="scale(0.015625)" />
        <path
           id="DejaVuSans-6c"
           d="m 603,4863 h 575 V 0 H 603 Z"
           transform="scale(0.015625)" />
        <path
           id="DejaVuSans-68"
           d="M 3513,2113 V 0 h -575 v 2094 q 0,497 -194,743 -194,247 -581,247 -466,0 -735,-297 -269,-296 -269,-809 V 0 H 581 v 4863 h 578 V 2956 q 207,316 486,472 280,156 646,156 603,0 912,-373 310,-373 310,-1098 z"
           transform="scale(0.015625)" />
        <path
           id="DejaVuSans-77"
           d="m 269,3500 h 575 l 719,-2731 715,2731 h 678 l 719,-2731 716,2731 h 575 L 4050,0 H 3372 L 2619,2869 1863,0 h -679 z"
           transform="scale(0.015625)" />
        <path
           id="DejaVuSans-65"
           d="M 3597,1894 V 1613 H 953 q 38,-594 358,-905 320,-311 892,-311 331,0 642,81 311,81 618,244 V 178 Q 3153,47 2828,-22 2503,-91 2169,-91 1331,-91 842,396 353,884 353,1716 q 0,859 464,1363 464,505 1252,505 706,0 1117,-455 411,-454 411,-1235 z m -575,169 q -6,471 -264,752 -258,282 -683,282 -481,0 -770,-272 -289,-272 -333,-766 z"
           transform="scale(0.015625)" />
      </defs>
      <use
         xlink:href="#DejaVuSans-71"
         id="use64"
         style="fill:#ffffff;fill-opacity:1" />
      <use
         xlink:href="#DejaVuSans-69"
         x="63.476562"
         id="use65"
         style="fill:#ffffff;fill-opacity:1" />
      <use
         xlink:href="#DejaVuSans-62"
         x="91.259766"
         id="use66"
         style="fill:#ffffff;fill-opacity:1" />
      <use
         xlink:href="#DejaVuSans-6f"
         x="154.73633"
         id="use67"
         style="fill:#ffffff;fill-opacity:1" />
      <use
         xlink:href="#DejaVuSans-6c"
         x="215.91797"
         id="use68"
         style="fill:#ffffff;fill-opacity:1" />
      <use
         xlink:href="#DejaVuSans-61"
         x="243.70117"
         id="use69"
         style="fill:#ffffff;fill-opacity:1" />
      <use
         xlink:href="#DejaVuSans-62"
         x="304.98047"
         id="use70"
         style="fill:#ffffff;fill-opacity:1" />
      <use
         xlink:href="#DejaVuSans-20"
         x="368.45703"
         id="use71"
         style="fill:#ffffff;fill-opacity:1" />
      <use
         xlink:href="#DejaVuSans-68"
         x="400.24414"
         id="use72"
         style="fill:#ffffff;fill-opacity:1" />
      <use
         xlink:href="#DejaVuSans-61"
         x="463.62305"
         id="use73"
         style="fill:#ffffff;fill-opacity:1" />
      <use
         xlink:href="#DejaVuSans-72"
         x="524.90234"
         id="use74"
         style="fill:#ffffff;fill-opacity:1" />
      <use
         xlink:href="#DejaVuSans-64"
         x="564.26562"
         id="use75"
         style="fill:#ffffff;fill-opacity:1" />
      <use
         xlink:href="#DejaVuSans-77"
         x="627.74219"
         id="use76"
         style="fill:#ffffff;fill-opacity:1" />
      <use
         xlink:href="#DejaVuSans-61"
         x="709.5293"
         id="use77"
         style="fill:#ffffff;fill-opacity:1" />
      <use
         xlink:href="#DejaVuSans-72"
         x="770.80859"
         id="use78"
         style="fill:#ffffff;fill-opacity:1" />
      <use
         xlink:href="#DejaVuSans-65"
         x="809.67188"
         id="use79"
         style="fill:#ffffff;fill-opacity:1" />
    </g>
  </g>
  <g
     id="line2d_17">
    <path
       d="m 290.59812,69.248562 h 10 10"
       style="fill:none;stroke:#ff7f0e;stroke-width:1.5;stroke-linecap:square"
       id="path79" />
  </g>
  <g
     id="text_17"
     style="fill:#ffffff;fill-opacity:1">
    <!-- numpy -->
    <g
       transform="matrix(0.1,0,0,-0.1,318.59812,72.748562)"
       id="g84"
       style="fill:#ffffff;fill-opacity:1">
      <defs
         id="defs79">
        <path
           id="DejaVuSans-75"
           d="m 544,1381 v 2119 h 575 V 1403 q 0,-497 193,-746 194,-248 582,-248 465,0 735,297 271,297 271,810 v 1984 h 575 V 0 H 2900 V 538 Q 2691,219 2414,64 2138,-91 1772,-91 1169,-91 856,284 544,659 544,1381 Z m 1447,2203 z"
           transform="scale(0.015625)" />
        <path
           id="DejaVuSans-6d"
           d="m 3328,2828 q 216,388 516,572 300,184 706,184 547,0 844,-383 297,-382 297,-1088 V 0 h -578 v 2094 q 0,503 -179,746 -178,244 -543,244 -447,0 -707,-297 -259,-296 -259,-809 V 0 h -578 v 2094 q 0,506 -178,748 -178,242 -550,242 -441,0 -701,-298 -259,-298 -259,-808 V 0 H 581 v 3500 h 578 v -544 q 197,322 472,475 275,153 653,153 382,0 649,-194 267,-193 395,-562 z"
           transform="scale(0.015625)" />
        <path
           id="DejaVuSans-70"
           d="M 1159,525 V -1331 H 581 v 4831 h 578 v -531 q 182,312 458,463 277,152 661,152 638,0 1036,-506 399,-506 399,-1331 0,-825 -399,-1332 -398,-506 -1036,-506 -384,0 -661,152 -276,152 -458,464 z m 1957,1222 q 0,634 -261,995 -261,361 -717,361 -457,0 -718,-361 -261,-361 -261,-995 0,-634 261,-995 261,-361 718,-361 456,0 717,361 261,361 261,995 z"
           transform="scale(0.015625)" />
        <path
           id="DejaVuSans-79"
           d="m 2059,-325 q -243,-625 -475,-815 -231,-191 -618,-191 H 506 v 481 h 338 q 237,0 368,113 132,112 291,531 L 1606,56 191,3500 H 800 L 1894,763 2988,3500 h 609 z"
           transform="scale(0.015625)" />
      </defs>
      <use
         xlink:href="#DejaVuSans-6e"
         id="use80"
         style="fill:#ffffff;fill-opacity:1" />
      <use
         xlink:href="#DejaVuSans-75"
         x="63.378906"
         id="use81"
         style="fill:#ffffff;fill-opacity:1" />
      <use
         xlink:href="#DejaVuSans-6d"
         x="126.75781"
         id="use82"
         style="fill:#ffffff;fill-opacity:1" />
      <use
         xlink:href="#DejaVuSans-70"
         x="224.16992"
         id="use83"
         style="fill:#ffffff;fill-opacity:1" />
      <use
         xlink:href="#DejaVuSans-79"
         x="287.64648"
         id="use84"
         style="fill:#ffffff;fill-opacity:1" />
    </g>
  </g>
  <defs
     id="defs84">
    <clipPath
       id="p681c207bb0">
      <rect
         x="57.6"
         y="41.472"
         width="357.12"
         height="266.112"
         id="rect84" />
    </clipPath>
  </defs>
</svg>
